<svg width="36" height="36" viewBox="0 0 36 36" fill="none" xmlns="http://www.w3.org/2000/svg">
<path d="M11.2452 18.0491C11.2435 18.3438 11.3002 18.6359 11.4122 18.9088C11.5242 19.1816 11.6892 19.4297 11.8977 19.639L20.8977 28.5963C21.1075 28.8051 21.3565 28.9707 21.6306 29.0837C21.9047 29.1967 22.1985 29.2549 22.4952 29.2549C22.7919 29.2549 23.0857 29.1967 23.3598 29.0837C23.6339 28.9707 23.8829 28.8051 24.0927 28.5963C24.3025 28.3875 24.4689 28.1396 24.5824 27.8668C24.696 27.594 24.7544 27.3017 24.7544 27.0064C24.7544 26.7111 24.696 26.4187 24.5824 26.1459C24.4689 25.8731 24.3025 25.6253 24.0927 25.4165L16.6452 18.0491L23.8002 10.6593C24.0303 10.4533 24.2153 10.2022 24.3435 9.92182C24.4717 9.64143 24.5405 9.33772 24.5454 9.02969C24.5503 8.72166 24.4913 8.41594 24.372 8.13165C24.2528 7.84735 24.0759 7.5906 23.8524 7.37745C23.6289 7.1643 23.3637 6.99932 23.0732 6.89286C22.7828 6.78639 22.4734 6.74072 22.1643 6.7587C21.8553 6.77668 21.5534 6.85792 21.2774 6.99734C21.0013 7.13676 20.7572 7.33136 20.5602 7.56898L11.8752 16.5263C11.4785 16.9358 11.2532 17.4803 11.2452 18.0491Z" fill="white"/>
</svg>
