<svg width="141" height="45" viewBox="0 0 141 45" fill="none" xmlns="http://www.w3.org/2000/svg">
<path d="M0.735352 36.5982H1.50115V42.2281H0.735352V36.5982ZM2.8796 39.2475L6.32571 42.1618H5.33016L1.96064 39.2475L5.10042 36.5319H6.09597L2.8796 39.2475Z" fill="#0066B3"/>
<path d="M10.3078 36.4652C12.2988 36.4652 13.6773 37.7237 13.6773 39.3795C13.6773 41.0354 12.2988 42.2938 10.3078 42.2938C8.31667 42.2938 6.93823 41.0354 6.93823 39.3795C6.93823 37.7237 8.31667 36.4652 10.3078 36.4652ZM10.3078 41.6977C11.8394 41.6977 12.9115 40.7704 12.9115 39.3795C12.9115 38.0548 11.8394 37.0613 10.3078 37.0613C8.77616 37.0613 7.70403 37.9886 7.70403 39.3795C7.70403 40.7042 8.85274 41.6977 10.3078 41.6977Z" fill="#0066B3"/>
<path d="M15.592 36.5974H19.4976V37.1935H16.3578V42.1611H15.592V36.5974Z" fill="#0066B3"/>
<path d="M19.1912 41.565H20.0335C20.4164 41.1013 20.9525 39.9091 21.1057 38.187L21.1822 36.5974H25.3176V41.565H26.3897V43.6182H25.7005V42.2273H19.957V43.6182H19.2677V41.565H19.1912ZM20.7993 41.565H24.5518V37.1935H21.8715L21.7949 38.3857C21.6417 40.0416 21.1822 41.1676 20.7993 41.565Z" fill="#0066B3"/>
<path d="M27.7682 36.9951C28.3809 36.6639 29.0701 36.4652 29.8359 36.4652C31.5973 36.4652 32.2099 37.26 32.2099 38.7172V42.1613H31.4441V41.3003C31.0612 41.7639 30.372 42.2276 29.2233 42.2276C27.998 42.2276 27.2322 41.5652 27.2322 40.5717C27.2322 39.4457 28.3043 38.8496 29.6827 38.8496C30.2188 38.8496 30.908 38.9821 31.4441 39.247C31.4441 37.9224 31.3675 37.0613 29.7593 37.0613C28.9935 37.0613 28.534 37.1938 27.9214 37.525L27.7682 36.9951ZM31.4441 40.7704V39.8431C30.9846 39.512 30.4485 39.3795 29.7593 39.3795C28.9169 39.3795 27.998 39.7107 27.998 40.5717C27.998 41.3003 28.6106 41.6977 29.453 41.6977C30.6017 41.6315 31.1378 41.1678 31.4441 40.7704Z" fill="#0066B3"/>
<path d="M42.7013 39.6443H38.4894V42.1612H37.7236V36.5313H38.4894V38.982H42.7013V36.5313H43.4671V42.1612H42.7013V39.6443Z" fill="#0066B3"/>
<path d="M48.6746 42.1612C47.7557 44.1482 47.143 44.6781 46.2241 44.6781C45.8412 44.6781 45.4583 44.5456 45.1519 44.4132L45.3817 43.8833C45.6114 44.0158 45.9177 44.082 46.1475 44.082C46.8367 44.082 47.2962 43.6184 47.8323 42.4924L47.9854 42.1612L44.769 36.5313H45.688L47.9088 40.5054L48.3683 41.3664C48.4449 41.1015 48.5981 40.7703 48.7512 40.4391L50.5126 36.5313H51.3549L48.6746 42.1612Z" fill="#0066B3"/>
<path d="M51.7379 36.5975H52.6568L55.184 39.3131L52.5037 42.2275H51.5847L54.3416 39.3131L51.7379 36.5975ZM55.6435 36.5975H56.4093V42.2275H55.6435V36.5975ZM57.6346 39.2469L60.3914 42.1612H59.4725L56.7922 39.2469L59.3193 36.5313H60.2383L57.6346 39.2469Z" fill="#0066B3"/>
<path d="M66.9007 41.499C66.288 42.0289 65.3691 42.2938 64.5267 42.2938C62.459 42.2938 61.0806 41.1678 61.0806 39.3795C61.0806 37.7237 62.2293 36.4652 64.3735 36.4652C66.0583 36.4652 67.2836 37.4587 67.2836 38.9821C67.2836 39.1808 67.2836 39.3795 67.207 39.512H61.8464C61.9229 40.8366 62.9185 41.6977 64.5267 41.6977C65.3691 41.6977 66.2114 41.4328 66.5943 41.0354L66.9007 41.499ZM61.9229 38.9821H66.5943C66.5943 37.7899 65.6754 37.0613 64.3735 37.0613C62.8419 37.0613 61.9995 37.8561 61.9229 38.9821Z" fill="#0066B3"/>
<path d="M74.0226 39.6443H69.8107V42.1612H69.0449V36.5313H69.8107V38.982H74.0226V36.5313H74.7884V42.1612H74.0226V39.6443Z" fill="#0066B3"/>
<path d="M80.4553 36.5977H81.2211V37.3263C81.6806 36.7964 82.6762 36.4652 83.5951 36.4652C85.433 36.4652 86.5817 37.6574 86.5817 39.3133C86.5817 41.0354 85.2799 42.2938 83.2888 42.2938C82.523 42.2938 81.7572 42.1613 81.2211 41.8302V44.6782H80.4553V36.5977ZM81.2211 37.9224V41.1678C81.9103 41.5652 82.523 41.6977 83.2122 41.6977C84.7438 41.6977 85.8159 40.7042 85.8159 39.3133C85.8159 37.9886 84.9736 37.0613 83.3654 37.0613C82.4464 37.0613 81.604 37.4587 81.2211 37.9224Z" fill="#0066B3"/>
<path d="M93.7803 41.499C93.1677 42.0289 92.2487 42.2938 91.4063 42.2938C89.3387 42.2938 87.9602 41.1678 87.9602 39.3795C87.9602 37.7237 89.1089 36.4652 91.2532 36.4652C92.9379 36.4652 94.1632 37.4587 94.1632 38.9821C94.1632 39.1808 94.1632 39.3795 94.0866 39.512H88.726C88.8026 40.8366 89.7981 41.6977 91.4063 41.6977C92.2487 41.6977 93.0911 41.4328 93.474 41.0354L93.7803 41.499ZM88.726 38.9821H93.3974C93.3974 37.7899 92.4784 37.0613 91.1766 37.0613C89.7216 37.0613 88.8792 37.8561 88.726 38.9821Z" fill="#0066B3"/>
<path d="M95.3884 41.5652L95.7713 41.0354C96.3074 41.499 97.2264 41.6977 97.839 41.6977C98.9877 41.6977 99.8301 41.3003 99.8301 40.5717C99.8301 39.9756 99.2175 39.6444 98.2985 39.6444H97.2264V39.1146H98.2219C98.9877 39.1146 99.5238 38.6509 99.5238 38.1211C99.5238 37.4587 98.9111 37.1276 97.9156 37.1276C96.9966 37.1276 96.384 37.3925 95.9245 37.7237L95.6182 37.1938C96.1542 36.7301 97.0732 36.4652 98.0687 36.4652C99.6004 36.4652 100.366 36.9951 100.366 37.9224C100.366 38.4522 100.06 38.9821 99.2175 39.247C100.136 39.3133 100.596 39.9094 100.596 40.5717C100.596 41.6315 99.4472 42.2276 97.9156 42.2276C97.0732 42.2938 95.8479 41.9626 95.3884 41.5652Z" fill="#0066B3"/>
<path d="M105.497 42.1612C104.578 44.1482 103.966 44.6781 103.047 44.6781C102.664 44.6781 102.281 44.5456 101.974 44.4132L102.204 43.8833C102.434 44.0158 102.74 44.082 102.97 44.082C103.659 44.082 104.119 43.6184 104.655 42.4924L104.808 42.1612L101.592 36.5313H102.511L104.731 40.5054L105.191 41.3664C105.267 41.1015 105.421 40.7703 105.574 40.4391L107.335 36.5313H108.177L105.497 42.1612Z" fill="#0066B3"/>
<path d="M113.615 37.1937H110.858L110.781 38.3859C110.475 41.6976 109.479 42.1612 108.484 42.1612L108.407 41.4989C108.867 41.4989 109.862 41.1677 110.092 38.2534L110.169 36.5313H114.38V42.1612H113.615V37.1937Z" fill="#0066B3"/>
<path d="M116.678 36.5974H117.444V38.452H118.669C120.66 38.452 121.196 39.313 121.196 40.3065C121.196 41.3 120.583 42.1611 118.516 42.1611H116.601V36.5974H116.678ZM117.444 39.0481V41.565H118.516C119.894 41.565 120.43 41.1013 120.43 40.3065C120.43 39.5117 119.894 39.0481 118.516 39.0481H117.444Z" fill="#0066B3"/>
<path d="M121.426 36.5974H127.322V37.2598H124.719V42.2273H123.953V37.1935H121.349V36.5974H121.426Z" fill="#0066B3"/>
<path d="M128.624 36.9951C129.237 36.6639 129.926 36.4652 130.692 36.4652C132.453 36.4652 133.066 37.26 133.066 38.7172V42.1613H132.3V41.3003C131.917 41.7639 131.228 42.2276 130.079 42.2276C128.854 42.2276 128.088 41.5652 128.088 40.5717C128.088 39.4457 129.161 38.8496 130.539 38.8496C131.075 38.8496 131.764 38.9821 132.3 39.247C132.3 37.9224 132.224 37.0613 130.616 37.0613C129.85 37.0613 129.39 37.1938 128.778 37.525L128.624 36.9951ZM132.377 40.7704V39.8431C131.917 39.512 131.381 39.3795 130.692 39.3795C129.85 39.3795 128.931 39.7107 128.931 40.5717C128.931 41.3003 129.543 41.6977 130.386 41.6977C131.458 41.6315 131.994 41.1678 132.377 40.7704Z" fill="#0066B3"/>
<path d="M134.291 36.5974H140.188V37.2598H137.584V42.2273H136.818V37.1935H134.215V36.5974H134.291Z" fill="#0066B3"/>
<path d="M19.8812 14.5417C19.6515 14.9391 19.2686 15.2041 18.6559 15.3365C18.1199 15.469 17.3541 15.5352 16.3585 15.5352H9.84922C8.85367 15.5352 8.01129 15.469 7.47522 15.2703C6.86258 15.0716 6.47968 14.8067 6.17336 14.2768C5.86704 13.8131 5.79046 13.1508 5.79046 12.2235V7.71962C5.79046 6.72611 5.86704 6.06377 6.09678 5.60013C6.32652 5.20272 6.70942 4.87155 7.24548 4.73909C7.78155 4.60662 8.70051 4.54038 9.84922 4.54038H16.3585C17.737 4.54038 18.7325 4.73908 19.3452 5.13649C19.9578 5.53389 20.2641 6.19623 20.2641 7.12351H25.4716C25.4716 5.46766 25.1653 4.20921 24.476 3.34817C23.7868 2.42089 22.8679 1.82479 21.7192 1.49362C20.5705 1.16245 19.0388 0.963745 17.2009 0.963745H8.93025C6.786 0.963745 5.17782 1.16245 4.02911 1.55985C2.88041 1.95726 2.03803 2.6196 1.57855 3.54687C1.11907 4.47415 0.812744 5.86506 0.812744 7.58715V12.6872C0.812744 14.343 1.04248 15.6015 1.50196 16.5287C1.96145 17.456 2.80383 18.1184 3.87595 18.5158C5.02466 18.9132 6.55626 19.1119 8.47077 19.1119H17.8901C19.9578 19.1119 21.566 18.9132 22.6381 18.582C23.7102 18.1846 24.476 17.5885 24.8589 16.7274C25.2418 15.8664 25.4716 14.5417 25.4716 12.8859H20.2641C20.2641 13.5482 20.1875 14.1443 19.8812 14.5417Z" fill="#0066B3"/>
<path d="M131.381 1.02985H126.327H117.444V4.60648H126.327V19.1117H131.381V4.60648H140.188V1.02985H131.381Z" fill="#0066B3"/>
<path d="M69.3514 1.02985L58.1707 19.1117H63.9142L66.7476 14.5416H79.3068L81.9871 19.1117H82.2934H87.8838L76.7796 1.02985H69.3514ZM77.2391 11.1637H68.8153L68.9685 10.965L73.1038 4.07661L77.2391 11.1637Z" fill="#0066B3"/>
<path d="M100.596 10.5013L93.9335 1.02985H87.9602L97.4562 14.6741L94.1632 19.1117H100.136L113.691 1.02985H107.641L100.596 10.5013Z" fill="#0066B3"/>
<path d="M43.0843 9.44157L54.5714 1.02985H47.9855L39.3319 7.32208L36.4219 9.44157L48.5981 19.1117H55.184L43.0843 9.44157Z" fill="#0066B3"/>
<path d="M36.4217 8.9117V7.78572V1.02985H31.3674V19.1117H36.4217V18.052V17.3234V14.8065V9.97144V8.9117Z" fill="#0066B3"/>
<path d="M140.188 26.0665H0.735352V29.6431H140.188V26.0665Z" fill="url(#paint0_linear)"/>
<defs>
<linearGradient id="paint0_linear" x1="0.762078" y1="27.8383" x2="140.212" y2="27.8383" gradientUnits="userSpaceOnUse">
<stop stop-color="#512B76"/>
<stop offset="0.5" stop-color="#D84245"/>
<stop offset="1" stop-color="#F4BE48"/>
</linearGradient>
</defs>
</svg>
