<svg width="78" height="78" viewBox="0 0 78 78" fill="none" xmlns="http://www.w3.org/2000/svg">
<g clip-path="url(#clip0)">
<path d="M67.8597 44.252C66.2477 42.692 63.9597 41.756 61.7757 41.808C56.9397 41.808 53.2477 45.5 53.1437 50.388C53.0917 52.572 54.0277 54.86 55.5877 56.472C57.1477 58.084 59.2797 58.968 61.6717 59.02C61.7237 59.02 61.7757 59.02 61.7757 59.02C64.0637 59.02 66.2477 58.136 67.8597 56.576C69.4717 55.016 70.3557 52.832 70.4077 50.44C70.4077 48.1 69.5237 45.864 67.8597 44.252ZM61.8277 55.068H61.7757C60.4237 55.068 59.2797 54.6 58.4477 53.716C57.6157 52.832 57.1477 51.584 57.1477 50.388C57.2517 47.736 59.1757 45.864 61.7757 45.864C63.0757 45.864 64.2717 46.384 65.1557 47.268C65.9877 48.1 66.4557 49.244 66.4557 50.44C66.4037 53.04 64.4277 55.068 61.8277 55.068Z" fill="#0066B3"/>
<path d="M25.2716 41.86C25.2196 41.86 25.2196 41.86 25.2716 41.86C22.9316 41.86 20.7476 42.796 19.1356 44.408C17.5236 46.02 16.6396 48.204 16.6916 50.492C16.7436 54.704 19.9676 59.02 25.2716 59.02C27.7156 59.02 29.8476 58.136 31.4596 56.524C33.0716 54.912 34.0076 52.52 33.9556 50.284C33.7476 45.552 29.9516 41.86 25.2716 41.86ZM29.8996 50.284C29.8996 51.584 29.4316 52.832 28.5476 53.716C27.7156 54.548 26.5716 55.016 25.3756 55.016C22.3596 55.016 20.6956 52.676 20.6436 50.492C20.5916 49.244 21.0596 48.048 21.9436 47.164C22.7756 46.28 23.9716 45.812 25.2196 45.76H25.2716C27.8196 45.812 29.8476 47.788 29.8996 50.284Z" fill="#0066B3"/>
<path d="M60.32 27.716H66.716C67.288 27.716 67.704 27.248 67.704 26.728V23.452C67.704 22.88 67.236 22.464 66.716 22.464H60.32C59.748 22.464 59.332 22.932 59.332 23.452V26.728C59.332 27.248 59.748 27.716 60.32 27.716ZM61.308 25.74V24.44H65.728V25.74H61.308Z" fill="#0066B3"/>
<path d="M64.5842 47.84C63.8562 47.112 62.9202 46.696 61.8282 46.696H61.7762C60.7362 46.696 59.8002 47.06 59.1242 47.736C58.4482 48.412 58.0322 49.348 58.0322 50.388C58.0322 52.52 59.6442 54.184 61.7762 54.236H61.8282C62.7642 54.236 63.7002 53.872 64.3762 53.144C65.1562 52.416 65.5722 51.428 65.6242 50.44C65.6242 49.504 65.2602 48.568 64.5842 47.84ZM63.7002 50.336C63.7002 50.908 63.5442 51.428 63.2322 51.792C62.9202 52.156 62.4522 52.312 61.9322 52.364C60.7882 52.416 59.9562 51.688 59.9042 50.544C59.8522 49.4 60.6322 48.568 61.7242 48.516C61.7762 48.516 61.7762 48.516 61.8282 48.516C62.3482 48.516 62.8162 48.672 63.1282 48.984C63.4402 49.296 63.6482 49.764 63.7002 50.336Z" fill="#0066B3"/>
<path d="M25.2718 46.644C23.1398 46.644 21.4238 48.256 21.4238 50.388C21.4238 52.4681 23.1398 54.1841 25.2198 54.2361H25.2718C26.2598 54.2361 27.1438 53.8721 27.8718 53.144C28.5998 52.416 29.0158 51.428 29.0158 50.44C29.0158 49.4 28.6518 48.464 27.9238 47.736C27.2998 47.06 26.3118 46.644 25.2718 46.644ZM25.2718 52.312C24.1798 52.312 23.2958 51.48 23.2958 50.44C23.2958 49.4 24.1798 48.516 25.2198 48.516C25.7918 48.516 26.3118 48.724 26.6758 49.088C27.0398 49.452 27.2478 49.92 27.1958 50.44C27.1958 51.532 26.3638 52.312 25.2718 52.312Z" fill="#0066B3"/>
<path d="M77.8439 41.132C77.7919 40.924 77.6359 40.716 77.3759 40.716L76.0759 40.612C76.0239 39.052 76.0239 37.44 76.0239 35.88C76.0239 34.216 76.0239 32.5 75.9719 30.784C75.9719 30.524 75.7639 30.316 75.5039 30.264L73.8399 30.108V20.488C74.1519 20.02 74.2039 20.02 74.4119 19.916C75.2959 19.708 75.8679 18.928 75.9199 17.94C76.0239 16.328 75.7639 15.236 75.0879 14.612C74.4119 13.988 73.5799 14.04 73.3199 14.092H73.2679C70.6679 14.092 68.0679 14.092 65.4159 14.092C60.4239 14.092 55.2759 14.144 50.2319 14.092H50.1799C47.8399 14.092 47.5799 16.432 47.4239 18.096H37.1279C28.3399 18.096 19.6039 18.096 10.8159 18.096C8.89186 18.096 6.96786 18.096 5.04386 18.148H2.75586H2.59986C2.39186 18.148 2.18386 18.148 1.97586 18.2C0.67586 18.408 -0.156141 19.344 -0.10414 20.592C-0.0521405 21.788 0.83186 22.672 2.07986 22.776C2.54786 22.828 3.01586 22.828 3.48386 22.776C3.53586 22.776 3.63986 22.776 3.69186 22.776L4.21186 29.172C4.21186 29.38 4.36786 29.536 4.52386 29.588L22.0479 37.024C21.9959 37.076 21.9439 37.18 21.8919 37.284V37.96L18.8239 39.26L18.4079 38.948C18.1999 38.792 17.8879 38.792 17.7319 39L14.0399 42.796C13.9879 42.796 13.9879 42.848 13.9359 42.848C13.8319 42.952 13.6239 43.212 14.0399 43.992L12.7919 46.904L11.9599 47.268C11.7519 47.32 11.6479 47.528 11.6479 47.736V53.092C11.6479 53.3 11.8039 53.508 12.0119 53.56L12.8439 53.82L14.0919 56.784L13.7279 57.304C13.5719 57.512 13.6239 57.772 13.7799 57.98L17.5759 61.88C17.7319 62.036 17.9919 62.088 18.1999 61.984L18.8759 61.62L21.7879 62.816C21.8399 62.92 21.8919 63.336 21.9959 63.596C22.0479 63.804 22.2559 63.96 22.4639 63.96H27.9759C28.2359 63.96 28.4439 63.752 28.4959 63.544C28.4959 63.388 28.5999 63.128 28.5999 62.972C28.5999 62.92 28.5999 62.92 28.5999 62.92L31.6159 61.672L32.1359 61.984C32.3439 62.088 32.6039 62.088 32.7599 61.88L36.6599 57.98C36.8159 57.824 36.8679 57.512 36.7119 57.304L36.3479 56.784L37.5959 53.872L38.3759 53.612C38.4799 53.716 38.5839 53.768 38.7399 53.768H44.1479C44.4079 53.768 44.6159 53.56 44.6679 53.3L44.8759 51.74H48.0479L48.1519 53.144C48.1519 53.352 48.3079 53.56 48.5159 53.612L49.2959 53.82L50.4919 56.784L50.1799 57.304C50.0759 57.512 50.0759 57.772 50.2319 57.928L54.0279 61.828C54.1839 61.984 54.4439 62.036 54.6519 61.932L55.2759 61.568L57.7719 62.556C57.8239 62.556 57.8239 62.556 57.8759 62.608C57.9799 62.608 58.0839 62.66 58.1879 62.764C58.2399 62.764 58.2399 62.816 58.2919 62.816L58.3439 62.868C58.3959 63.024 58.5519 63.336 58.6039 63.44C58.6559 63.7 58.8639 63.856 59.1239 63.856H64.5319C64.7919 63.856 65.0519 63.648 65.0519 63.336C65.0519 63.232 65.1039 62.972 65.1559 62.868L68.0679 61.62L68.6919 61.932C68.8999 62.036 69.1599 61.984 69.3159 61.828L73.1119 57.876C73.2679 57.72 73.3199 57.46 73.1639 57.252L72.9039 56.836L74.0999 53.872L74.7759 53.664C74.8799 53.612 74.9839 53.56 75.0359 53.456C75.0879 53.404 75.1919 53.3 75.1919 53.092C75.2959 51.688 75.3479 50.284 75.4519 48.828L77.1159 48.724C77.3239 48.724 77.4799 48.568 77.5839 48.36C78.0519 47.268 78.1039 42.64 77.8439 41.132ZM63.3879 61.62L63.1799 62.088H60.3199L60.2159 61.724C60.1639 61.568 60.0599 61.464 59.9039 61.412L55.3799 59.54C55.2239 59.488 55.0679 59.488 54.9639 59.54L54.6519 59.696L52.4679 57.616L52.6759 57.356C52.7799 57.2 52.7799 57.044 52.7279 56.836L50.8039 52.26C50.7519 52.104 50.6479 52 50.4919 52L50.0759 51.844V48.984L50.4919 48.828C50.6479 48.776 50.7519 48.672 50.8039 48.516L52.7279 43.94C52.7799 43.784 52.7799 43.628 52.7279 43.472L52.5719 43.16L54.5999 41.08L54.9639 41.288C55.1199 41.34 55.2759 41.392 55.4319 41.34L60.0599 39.416C60.2159 39.364 60.3199 39.208 60.3719 39.104L60.4759 38.688H63.3359L63.4919 39.104C63.5439 39.26 63.6479 39.364 63.7519 39.416L68.3279 41.34C68.4839 41.392 68.6399 41.392 68.7959 41.288L69.0559 41.132L71.2399 43.16L71.0319 43.524C70.9279 43.68 70.9279 43.836 70.9799 43.992L72.8519 48.516C72.9039 48.62 73.0079 48.724 73.1119 48.776L73.5279 48.932V51.792L73.1119 51.948C73.0079 52 72.9039 52.104 72.8519 52.208L70.9279 56.784C70.8759 56.94 70.8759 57.096 70.9799 57.252L71.1879 57.564L69.1079 59.696L68.7439 59.488C68.5879 59.384 68.4319 59.384 68.2759 59.436L63.6999 61.308C63.5439 61.412 63.4399 61.516 63.3879 61.62ZM26.8319 61.724L26.7279 62.088H23.7119L23.6079 61.724C23.5559 61.568 23.4519 61.464 23.2959 61.36L18.7199 59.436C18.5639 59.384 18.4079 59.384 18.2519 59.488L18.0959 59.592L15.8599 57.616L16.0679 57.252C16.1199 57.096 16.1719 56.94 16.0679 56.836L14.1959 52.312C14.1439 52.208 14.0399 52.104 13.9359 52.052L13.4679 51.792V48.984L13.8839 48.828C13.9879 48.776 14.0919 48.672 14.1439 48.568L16.0679 43.992C16.1199 43.836 16.1199 43.628 16.0159 43.524L15.9639 43.42C15.9119 43.368 15.8599 43.316 15.8599 43.264L17.9399 41.132L18.2519 41.34C18.4079 41.444 18.5639 41.444 18.7199 41.392L23.2439 39.52C23.3999 39.468 23.5039 39.364 23.5559 39.208L23.7119 38.688C24.1279 38.74 24.5439 38.688 24.9079 38.688C25.8959 38.636 26.4679 38.636 26.8839 39.312C26.9359 39.416 27.0399 39.468 27.1439 39.52L31.6679 41.392C31.7719 41.444 31.8239 41.444 31.9279 41.444C32.4479 41.392 34.2159 42.536 34.5279 43.16L34.3199 43.576C34.2679 43.732 34.2159 43.888 34.3199 43.992L36.1919 48.516C36.2439 48.62 36.3479 48.724 36.4519 48.776L36.9199 48.984V51.792L36.4519 51.948C36.2959 52 36.1919 52.104 36.1399 52.208L34.2679 56.732C34.2159 56.888 34.2159 57.044 34.3199 57.2L34.4759 57.46L32.4479 59.644L32.1359 59.436C31.9799 59.332 31.8239 59.332 31.6679 59.384L27.1439 61.308C26.9879 61.464 26.8839 61.568 26.8319 61.724ZM1.87186 20.644C1.87186 20.592 1.87186 20.592 1.87186 20.54C1.92386 20.436 2.13186 20.176 2.39186 20.072C2.49586 20.02 2.70386 20.02 2.96386 20.02C3.06786 20.02 3.17186 20.02 3.27586 20.02H29.6399H29.6919H55.8999H56.1079C56.3679 20.02 56.6799 20.02 56.9399 20.02C57.3039 20.02 57.3559 20.176 57.3559 20.384C57.3559 20.54 57.4079 20.748 56.9399 20.852C56.7319 20.904 56.5239 20.904 56.2639 20.904H56.1079C54.6519 20.904 53.1959 20.904 51.7399 20.904H42.6919C29.5879 20.904 16.4319 20.904 3.32786 20.904H3.22386C2.85986 20.904 2.49586 20.904 2.18386 20.8C2.02786 20.8 1.87186 20.696 1.87186 20.644ZM49.9719 15.964C50.1279 15.964 50.2319 15.964 50.3879 15.964H50.5959C58.0839 15.964 65.5719 15.964 73.1119 15.964H73.3199C73.5279 15.964 73.6839 15.964 73.8399 15.964C74.0479 16.172 74.1519 17.264 73.9959 17.992C71.1879 18.2 52.4679 18.148 49.6599 17.94C49.5559 17.16 49.7639 16.12 49.9719 15.964ZM73.3199 42.744L73.1639 42.588H76.0239V46.696H74.0999L72.9559 43.992L73.3719 43.368C73.4759 43.212 73.4759 42.952 73.3199 42.744ZM45.0319 43.992V47.06H38.0119V43.992H45.0319ZM39.4679 38.012C38.2199 38.116 37.2839 37.96 36.3999 37.596C31.2519 35.36 25.9999 33.176 20.9559 30.992C18.9799 30.16 16.9519 29.276 14.9759 28.444C14.7159 28.34 14.5079 28.236 14.2479 28.132L14.1439 28.08L13.8319 22.776H49.1399L39.4679 38.012ZM35.9319 39.416C37.1799 39.936 38.3759 39.884 39.5199 39.884C39.7279 39.884 39.9879 39.884 40.1959 39.884C40.3519 39.884 40.5079 39.78 40.6119 39.624L51.3759 22.776C51.7919 22.776 52.1559 22.776 52.5719 22.776C53.0919 22.776 53.6119 22.776 54.1319 22.776L41.8079 42.12C41.3919 42.12 40.9759 42.12 40.6119 42.12C39.8319 42.12 39.0519 42.172 38.3759 41.86C31.9799 39.156 25.5319 36.4 19.1359 33.696L11.1279 30.316C9.93186 29.796 8.73586 29.328 7.53986 28.756L6.13586 28.132L5.71986 22.828H11.9079L12.4279 29.068C12.4279 29.276 12.5319 29.432 12.7399 29.484L13.1039 29.64C13.3119 29.744 13.5199 29.848 13.7279 29.952C15.8079 30.836 17.8879 31.72 19.9679 32.604C25.1679 34.788 30.6279 37.128 35.9319 39.416ZM46.7479 42.536H50.4399L50.2319 42.796C50.0759 42.952 50.0759 43.212 50.2319 43.42L50.6479 43.992L49.4519 46.696C49.2959 46.696 49.1399 46.696 48.9839 46.696C48.2039 46.748 47.4759 46.748 46.7479 46.644V42.536ZM57.0959 22.724L56.8359 26.156H56.5759C55.7959 26.156 55.0159 26.156 54.2359 26.156L56.4199 22.776L57.0959 22.724ZM68.7959 38.896L68.2239 39.312L65.1559 38.012L64.9479 37.284C64.8959 37.076 64.6879 36.92 64.4279 36.92H59.1239C58.9159 36.92 58.7079 37.076 58.6039 37.284L58.3959 38.012L55.3279 39.312L54.5999 38.792C54.3919 38.636 54.0799 38.688 53.8719 38.896L52.5719 40.612L45.3439 40.664C45.7599 40.04 46.2279 39.312 46.6439 38.584C47.3199 37.492 48.2559 35.932 48.5159 35.724C48.7759 35.516 49.6599 35.256 51.3759 35.256H59.2799C63.9599 35.256 68.5879 35.256 73.2679 35.256C73.5279 35.256 73.7359 35.256 73.9959 35.308C74.0479 37.18 74.0479 38.948 73.9959 40.664H71.2399L69.4719 39C69.3159 38.74 69.0039 38.74 68.7959 38.896ZM73.7879 33.228H49.7639L53.0919 28.236H56.7839V31.668C56.7839 31.928 56.9919 32.188 57.3039 32.188H73.7879V33.228ZM58.9159 23.296C58.9159 21.424 59.7479 20.644 61.5679 20.592C64.6359 20.592 67.8079 20.592 70.8239 20.592H71.5519C71.6559 20.592 71.8119 20.592 71.9679 20.644V30.16H58.9679C58.9679 30.004 58.9159 29.796 58.9159 29.64C58.8639 27.872 58.8639 25.116 58.9159 23.296ZM43.3679 50.284C43.1079 50.284 42.8479 50.544 42.8479 50.804C42.8479 51.22 42.8479 51.636 42.8479 51.948H40.1959V49.036H47.7359C47.7359 49.4 47.7359 49.868 47.7359 50.18L43.3679 50.284Z" fill="#0066B3"/>
</g>
<defs>
<clipPath id="clip0">
<rect width="78" height="78" fill="white"/>
</clipPath>
</defs>
</svg>
