<svg width="84" height="84" viewBox="0 0 84 84" fill="none" xmlns="http://www.w3.org/2000/svg">
<path d="M83.3659 42C83.3659 19.1601 64.8402 0.63446 42.0003 0.63446C19.1604 0.63446 0.634766 19.1601 0.634766 42C0.634766 64.8399 19.1604 83.3656 42.0003 83.3656C64.8402 83.3656 83.3659 64.8399 83.3659 42Z" fill="#0066B3" stroke="white" stroke-miterlimit="10"/>
<path d="M24.4893 35.9094C24.4893 45.5529 41.9998 67.2508 41.9998 67.2508C41.9998 67.2508 59.5104 45.6798 59.5104 35.9094C59.5104 26.2659 51.6433 18.3988 41.9998 18.3988C32.3563 18.2719 24.4893 26.139 24.4893 35.9094Z" fill="#0066B3" stroke="white" stroke-miterlimit="10"/>
<path d="M42.0001 45.1722C47.0757 45.1722 51.263 40.9849 51.263 35.9094C51.263 30.8339 47.0757 26.6465 42.0001 26.6465C36.9246 26.6465 32.7373 30.8339 32.7373 35.9094C32.7373 41.1118 36.9246 45.1722 42.0001 45.1722Z" fill="#0066B3" stroke="white" stroke-miterlimit="10"/>
</svg>
