<svg width="78" height="78" viewBox="0 0 78 78" fill="none" xmlns="http://www.w3.org/2000/svg">
<g clip-path="url(#clip0)">
<path d="M8.52794 53.352C6.44794 53.352 4.83594 55.068 4.83594 57.2C4.83594 59.332 6.49994 61.048 8.52794 61.048C10.5559 61.048 12.2199 59.332 12.2199 57.2C12.2719 55.068 10.6079 53.352 8.52794 53.352ZM8.52794 58.916C7.64394 58.916 6.86394 58.084 6.86394 57.148C6.86394 56.16 7.64394 55.38 8.52794 55.38C9.41194 55.38 10.1919 56.212 10.1919 57.148C10.1919 58.136 9.51594 58.916 8.52794 58.916Z" fill="#0066B3"/>
<path d="M76.648 63.284H75.296L69.368 50.44L70.46 49.868C71.136 49.504 71.448 48.724 71.084 47.996C70.72 47.268 69.94 47.008 69.212 47.372L66.924 48.516C66.924 48.516 66.924 48.516 66.872 48.516C66.82 48.568 66.716 48.568 66.664 48.672C66.664 48.672 66.664 48.672 66.612 48.672L59.956 54.652C59.332 55.276 58.864 55.952 58.604 56.784H54.808C54.652 54.808 53.82 52.936 52.52 51.532H55.796C56.576 51.532 57.148 50.908 57.148 50.18V39C57.148 36.452 55.068 34.372 52.52 34.372H47.476V24.908L50.18 19.552C50.544 18.876 50.232 18.044 49.556 17.68C48.88 17.316 48.048 17.628 47.684 18.304L44.928 23.92C44.876 24.128 44.772 24.336 44.772 24.544V34.372H38.688L32.136 14.716H35.048C35.828 14.716 36.4 14.092 36.4 13.364C36.4 12.636 35.776 11.96 35.048 11.96H17.16C14.768 11.96 12.74 13.832 12.636 16.224L11.544 30.056L7.748 33.852C6.864 34.736 6.396 35.828 6.396 37.076V49.088C2.704 50.076 0 53.404 0 57.408C0 61.672 3.172 65.26 7.228 65.884C7.384 65.936 7.592 66.04 7.8 66.04H46.228C50.232 66.04 53.612 63.284 54.548 59.644H58.552C59.02 61.308 60.32 62.608 61.984 63.024L73.996 66.04C74.152 66.04 74.204 66.092 74.36 66.092H76.648C77.428 66.092 78 65.468 78 64.74C78 64.012 77.48 63.284 76.648 63.284ZM29.224 14.716L35.828 34.372H30.732L27.3 30.94C26.416 30.056 25.324 29.588 24.076 29.588H21.944V15.028C21.944 14.976 21.944 14.872 21.944 14.82H29.224V14.716ZM15.34 16.432C15.392 15.444 16.224 14.716 17.212 14.716H19.292C19.292 14.768 19.292 14.872 19.292 14.924V29.588H14.404L15.34 16.432ZM9.152 41.964H14.196C14.976 41.964 15.548 41.34 15.548 40.612C15.548 39.832 14.924 39.26 14.196 39.26H9.152V37.128C9.152 36.66 9.36 36.14 9.724 35.828L13.156 32.396H19.188V32.604C19.188 33.384 19.812 33.956 20.54 33.956C21.268 33.956 21.892 33.332 21.892 32.604V32.396H24.024C24.492 32.396 25.012 32.604 25.324 32.968L29.172 36.816C29.432 37.076 29.796 37.232 30.16 37.232H52.572C53.612 37.232 54.444 38.064 54.444 39.104V48.932H9.152V41.964ZM8.528 63.284C5.304 63.284 2.704 60.684 2.704 57.46C2.704 54.236 5.304 51.636 8.528 51.636C11.752 51.636 14.352 54.236 14.352 57.46C14.352 60.684 11.804 63.284 8.528 63.284ZM28.652 59.644H38.012C38.376 60.996 39.052 62.244 39.988 63.284H14.872C16.328 61.776 17.212 59.696 17.212 57.46C17.212 55.224 16.328 53.144 14.872 51.636H39.988C38.688 52.988 37.856 54.86 37.7 56.888H28.652C27.872 56.888 27.3 57.512 27.3 58.24C27.3 58.968 27.872 59.644 28.652 59.644ZM46.228 63.284C43.732 63.284 41.704 61.776 40.82 59.644H43.368C44.044 60.528 45.084 61.1 46.28 61.1C47.476 61.1 48.464 60.528 49.192 59.644H51.74C50.804 61.776 48.672 63.284 46.228 63.284ZM44.564 56.888C44.72 56.056 45.396 55.432 46.228 55.432C47.06 55.432 47.684 56.056 47.892 56.888H44.564ZM49.972 56.888C49.816 54.964 48.204 53.404 46.28 53.404C44.356 53.404 42.796 54.912 42.588 56.888H40.456C40.716 53.924 43.212 51.636 46.228 51.636C49.244 51.636 51.74 53.976 52 56.888H49.972ZM62.66 60.32C62.088 60.164 61.672 59.852 61.412 59.436C61.776 59.176 62.036 58.76 62.036 58.292C62.036 57.824 61.828 57.46 61.464 57.2C61.516 57.044 61.672 56.94 61.828 56.836L67.08 52.104L71.968 62.712L62.66 60.32Z" fill="#0066B3"/>
</g>
<defs>
<clipPath id="clip0">
<rect width="78" height="78" fill="white"/>
</clipPath>
</defs>
</svg>
