<svg width="70" height="70" viewBox="0 0 70 70" fill="none" xmlns="http://www.w3.org/2000/svg">
<path d="M46.6 4.8999C42.7 3.2999 38.5 2.3999 34 2.3999C16.1 2.3999 1.5 16.9999 1.5 34.9999C1.5 52.9999 16.1 67.5999 34.1 67.5999C52.1 67.5999 66.7 52.9999 66.7 34.9999C66.7 31.8999 66.3 28.9999 65.5 26.1999" stroke="#0066B3" stroke-miterlimit="10" stroke-linecap="round"/>
<path d="M49.2998 9.0001C49.5998 18.7001 56.8998 24.5001 58.8998 25.9001C60.8998 24.5001 68.1998 18.7001 68.4998 9.0001L58.8998 5.1001L49.2998 9.0001Z" stroke="#0066B3" stroke-miterlimit="10" stroke-linecap="round"/>
<path d="M50.2002 48.3996C50.2002 46.7996 51.5002 45.5996 53.0002 45.5996C54.6002 45.5996 55.8002 46.8996 55.8002 48.3996C55.8002 49.9996 54.5002 51.1996 53.0002 51.1996C51.5002 51.2996 50.2002 49.9996 50.2002 48.3996Z" stroke="#0066B3" stroke-miterlimit="10"/>
<path d="M22.3003 48.3996C22.3003 46.7996 23.6003 45.5996 25.1003 45.5996C26.7003 45.5996 27.9003 46.8996 27.9003 48.3996C27.9003 49.9996 26.6003 51.1996 25.1003 51.1996C23.6003 51.2996 22.3003 49.9996 22.3003 48.3996Z" stroke="#0066B3" stroke-miterlimit="10"/>
<path d="M12.5 48.3996C12.5 46.7996 13.8 45.5996 15.3 45.5996C16.9 45.5996 18.1 46.8996 18.1 48.3996C18.1 49.9996 16.8 51.1996 15.3 51.1996C13.7 51.2996 12.5 49.9996 12.5 48.3996Z" stroke="#0066B3" stroke-miterlimit="10"/>
<path d="M48.5 48.3999H29.5" stroke="#0066B3" stroke-miterlimit="10"/>
<path d="M21.0001 48.3999H19.6001" stroke="#0066B3" stroke-miterlimit="10"/>
<path d="M57.5001 48.4H60.0001V40.7L56.6001 38.7L50.2001 30.5H41.1001V45.2" stroke="#0066B3" stroke-miterlimit="10"/>
<path d="M54.3003 43.9996V40.0996" stroke="#0066B3" stroke-miterlimit="10"/>
<path d="M56.3999 38.7998H40.8999" stroke="#0066B3" stroke-miterlimit="10"/>
<path d="M38.8001 24.7998H8.1001V42.6998H38.8001V24.7998Z" stroke="#0066B3" stroke-miterlimit="10"/>
</svg>
