<svg width="70" height="70" viewBox="0 0 70 70" fill="none" xmlns="http://www.w3.org/2000/svg">
<path d="M18.1001 48.8999C16.7001 48.8999 16.1001 47.8999 16.8001 46.6999L33.8001 17.2999C34.5001 16.0999 35.6001 16.0999 36.3001 17.2999L53.3001 46.6999C54.0001 47.8999 53.4001 48.8999 52.0001 48.8999H18.1001Z" stroke="#0066B3" stroke-miterlimit="10"/>
<path d="M33.6001 41.9999C33.6001 41.0999 34.2001 40.4999 35.1001 40.4999C36.0001 40.4999 36.6001 41.0999 36.6001 41.9999C36.6001 42.8999 36.0001 43.4999 35.1001 43.4999C34.2001 43.4999 33.6001 42.8999 33.6001 41.9999ZM34.2001 38.3999L33.9001 26.3999H36.3001L36.0001 38.3999H34.2001Z" fill="#0F62A8"/>
<path d="M46.6 4.8999C42.7 3.2999 38.5 2.3999 34 2.3999C16.1 2.3999 1.5 16.9999 1.5 34.9999C1.5 52.9999 16.1 67.5999 34.1 67.5999C52.1 67.5999 66.7 52.9999 66.7 34.9999C66.7 31.8999 66.3 28.9999 65.5 26.1999" stroke="#0066B3" stroke-miterlimit="10" stroke-linecap="round"/>
<path d="M49.2998 9.0001C49.5998 18.7001 56.8998 24.5001 58.8998 25.9001C60.8998 24.5001 68.1998 18.7001 68.4998 9.0001L58.8998 5.1001L49.2998 9.0001Z" stroke="#0066B3" stroke-miterlimit="10" stroke-linecap="round"/>
</svg>
