<svg width="70" height="70" viewBox="0 0 70 70" fill="none" xmlns="http://www.w3.org/2000/svg">
<path d="M32.0999 40.3997C29.0999 39.1997 26.0999 38.8997 26.4999 38.6997C28.0999 37.6997 28.8999 33.2997 28.8999 33.2997C28.8999 33.2997 30.2999 33.4997 30.4999 30.7997C30.5999 29.7997 29.6999 29.6997 29.6999 29.6997C29.6999 29.6997 30.2999 26.6997 29.1999 24.5997C28.8999 23.8997 28.1999 23.0997 27.3999 22.2997C27.3999 22.2997 26.6999 21.6997 26.0999 21.2997C25.3999 20.7997 23.9999 20.2997 23.9999 20.2997C23.8999 20.2997 23.7999 20.1997 23.6999 20.1997C23.3999 20.1997 23.7999 20.3997 22.4999 20.8997C21.0999 21.3997 18.7999 23.1997 18.1999 24.5997C17.0999 26.7997 17.6999 29.6997 17.6999 29.6997C17.6999 29.6997 16.7999 29.7997 16.8999 30.7997C16.9999 33.4997 18.4999 33.2997 18.4999 33.2997C18.4999 33.2997 19.2999 37.6997 20.8999 38.6997C21.4999 39.0997 14.6999 39.5997 11.4999 42.6997C9.1999 44.9997 9.3999 47.6997 9.3999 47.6997" stroke="#0066B3" stroke-miterlimit="10"/>
<path d="M58.3998 47.7998C58.3998 47.7998 58.5998 45.0998 56.2998 42.7998C53.0998 39.5998 46.3998 39.0998 46.8998 38.7998C48.4998 37.7998 49.2998 33.3998 49.2998 33.3998C49.2998 33.3998 50.6998 33.5998 50.8998 30.8998C50.9998 29.8998 50.0998 29.7998 50.0998 29.7998C50.0998 29.7998 50.6998 26.7998 49.5998 24.6998C49.2998 23.9998 48.5998 23.1998 47.7998 22.3998C47.7998 22.3998 47.0998 21.7998 46.4998 21.3998C45.7998 20.8998 44.3998 20.3998 44.3998 20.3998C44.2998 20.3998 44.1998 20.2998 44.0998 20.2998C43.7998 20.2998 44.1998 20.4998 42.8998 20.9998C41.4998 21.4998 39.1998 23.2998 38.5998 24.6998C37.4998 26.8998 38.0998 29.7998 38.0998 29.7998C38.0998 29.7998 37.1998 29.8998 37.2998 30.8998C37.3998 33.5998 38.8998 33.3998 38.8998 33.3998C38.8998 33.3998 39.6998 37.7998 41.2998 38.7998C41.8998 39.1998 35.0998 39.6998 31.8998 42.7998C29.5998 45.0998 29.7998 47.7998 29.7998 47.7998" stroke="#0066B3" stroke-miterlimit="10"/>
<path d="M46.6 4.8999C42.7 3.2999 38.5 2.3999 34 2.3999C16.1 2.3999 1.5 16.9999 1.5 34.9999C1.5 52.9999 16.1 67.5999 34.1 67.5999C52.1 67.5999 66.7 52.9999 66.7 34.9999C66.7 31.8999 66.3 28.9999 65.5 26.1999" stroke="#0066B3" stroke-miterlimit="10" stroke-linecap="round"/>
<path d="M49.2998 9.0001C49.5998 18.7001 56.8998 24.5001 58.8998 25.9001C60.8998 24.5001 68.1998 18.7001 68.4998 9.0001L58.8998 5.1001L49.2998 9.0001Z" stroke="#0066B3" stroke-miterlimit="10" stroke-linecap="round"/>
</svg>
