<svg width="84" height="84" viewBox="0 0 84 84" fill="none" xmlns="http://www.w3.org/2000/svg">
<path d="M83.3719 42.0629C83.3719 19.2109 64.789 0.62793 41.9369 0.62793C19.0849 0.62793 0.501953 19.2109 0.501953 42.0629C0.501953 64.9149 19.0849 83.4979 41.9369 83.4979C64.9145 83.3723 83.3719 64.9149 83.3719 42.0629Z" fill="#0066B3" stroke="white" stroke-miterlimit="10"/>
<path d="M60.0179 64.7897C60.0179 61.3995 51.982 58.6372 41.9372 58.6372C32.0179 58.6372 23.8564 61.3995 23.8564 64.7897C23.8564 68.1798 31.8923 70.9421 41.9372 70.9421C51.982 70.9421 60.0179 68.1798 60.0179 64.7897Z" stroke="white" stroke-miterlimit="10"/>
<path d="M57.6322 49.9731H26.4932V63.5337H57.6322V49.9731Z" fill="#0066B3"/>
<path d="M51.6052 63.4081C51.6052 60.2691 47.3362 57.6323 42.0626 57.6323C36.7891 57.6323 32.52 60.2691 32.52 63.4081" stroke="white" stroke-miterlimit="10"/>
<path d="M57.6322 45.8301H26.4932V59.3906H57.6322V45.8301Z" fill="#0066B3"/>
<path d="M71.6947 22.4756H12.4302V58.7626H71.6947V22.4756Z" stroke="white" stroke-miterlimit="10"/>
<path d="M42.0624 57.6326C42.8158 57.6326 43.5691 57.0048 43.5691 56.1259C43.5691 55.2469 42.9413 54.6191 42.0624 54.6191C41.1835 54.6191 40.5557 55.2469 40.5557 56.1259C40.5557 57.0048 41.1835 57.6326 42.0624 57.6326Z" stroke="white" stroke-miterlimit="10"/>
<path d="M14.6904 53.7402H69.3093" stroke="white" stroke-miterlimit="10"/>
<path d="M32.1432 7.28271C24.484 7.28271 18.3315 13.4352 18.3315 21.0944C18.3315 28.7536 32.1432 45.8298 32.1432 45.8298C32.1432 45.8298 45.9549 28.7536 45.9549 21.0944C45.9549 13.4352 39.8024 7.28271 32.1432 7.28271Z" fill="#0767B2" stroke="white" stroke-miterlimit="10"/>
<path d="M32.1434 28.5025C28.1254 28.5025 24.8608 25.2379 24.8608 21.22C24.8608 17.2021 28.1254 13.9375 32.1434 13.9375C36.1613 13.9375 39.4259 17.2021 39.4259 21.22C39.4259 25.2379 36.1613 28.5025 32.1434 28.5025Z" fill="#0767B2" stroke="white" stroke-miterlimit="10"/>
<path d="M75.8384 56.251C75.8384 48.2151 69.3093 41.8115 61.3989 41.8115C53.4886 41.8115 46.9595 48.3407 46.9595 56.251C46.9595 64.2869 53.3631 70.6904 61.3989 70.6904C69.4348 70.6904 75.8384 64.1613 75.8384 56.251Z" fill="#0767B2" stroke="white" stroke-miterlimit="10"/>
<path d="M66.7982 56.2512C66.7982 53.2377 64.4126 50.8521 61.3991 50.8521C58.3857 50.8521 56 53.2377 56 56.2512C56 59.2646 58.3857 61.6502 61.3991 61.6502C64.4126 61.6502 66.7982 59.139 66.7982 56.2512Z" fill="#0767B2" stroke="white" stroke-miterlimit="10"/>
<path d="M63.4076 56.2512C63.4076 55.1211 62.5287 54.2422 61.3986 54.2422C60.2686 54.2422 59.3896 55.1211 59.3896 56.2512C59.3896 57.3812 60.2686 58.2601 61.3986 58.2601C62.5287 58.2601 63.4076 57.2556 63.4076 56.2512Z" fill="#0767B2" stroke="white" stroke-miterlimit="10"/>
</svg>
