<svg width="84" height="84" viewBox="0 0 84 84" fill="none" xmlns="http://www.w3.org/2000/svg">
<path d="M83.3654 41.9998C83.3654 19.16 64.8397 0.634277 41.9998 0.634277C19.16 0.634277 0.634277 19.16 0.634277 41.9998C0.634277 64.8397 19.16 83.3654 41.9998 83.3654C64.8397 83.3654 83.3654 64.8397 83.3654 41.9998Z" fill="#0066B3" stroke="white" stroke-miterlimit="10"/>
<path d="M56.4652 33.2445C56.0846 32.1025 55.1963 30.8336 54.1812 29.8185C52.6586 28.2959 50.7553 27.2808 49.3595 27.2808C48.725 27.2808 48.2175 27.5345 47.8368 27.7883L44.7915 32.4832C45.0453 32.4832 45.4259 32.6101 45.8066 32.737L48.5982 28.5496C48.8519 28.4228 49.1057 28.2959 49.4864 28.2959C50.6284 28.2959 52.2779 29.1841 53.6737 30.5799C54.6888 31.595 55.3232 32.6101 55.7039 33.6252C55.9577 34.5134 55.9577 35.1478 55.7039 35.5285L51.5166 38.32C51.6435 38.7007 51.6435 39.0814 51.7704 39.3351L56.3383 36.2898L56.4652 36.1629C56.719 35.5285 56.8459 34.5134 56.4652 33.2445Z" fill="white"/>
<path d="M38.5739 53.8004L37.9395 53.166C38.7008 52.4047 38.0664 50.2476 36.0361 48.2174C34.6404 46.8216 32.9908 45.9334 31.8488 45.9334C31.4682 45.9334 31.2144 46.0603 30.9606 46.1871L30.3262 45.5527L43.1419 32.737C43.5226 32.3563 44.0301 32.1025 44.6645 32.1025C46.0603 32.1025 47.9636 33.1176 49.4863 34.6403C51.7703 36.9243 52.6585 39.7158 51.3896 40.9847L38.5739 53.8004ZM32.1026 44.9183C33.4984 45.0451 35.1479 46.0603 36.5437 47.456C38.0664 48.9787 38.9546 50.6282 39.0815 51.8971L50.6283 40.3503C51.3896 39.5889 50.7552 37.4318 48.725 35.2747C47.3292 33.879 45.6796 32.9908 44.5377 32.9908C44.157 32.9908 43.9032 33.1176 43.6494 33.2445L32.1026 44.9183Z" fill="white"/>
<path d="M50.7555 58.3683L43.269 50.755L50.7555 43.2686L58.3687 50.755L50.7555 58.3683ZM44.5379 50.755L50.7555 56.9725L56.973 50.755L50.7555 44.5374L44.5379 50.755Z" fill="white"/>
<path d="M57.6075 65.2203L50.1211 57.7339L57.6075 50.1206L65.0939 57.7339L57.6075 65.2203ZM51.39 57.607L57.6075 63.8245L63.825 57.607L57.6075 51.3895L51.39 57.607Z" fill="white"/>
<path d="M26.3927 33.879L18.9062 26.2657L26.3927 18.7793L33.8791 26.2657L26.3927 33.879ZM20.1751 26.3926L26.3927 32.6101L32.6102 26.3926L26.3927 20.1751L20.1751 26.3926Z" fill="white"/>
<path d="M33.2447 40.731L25.7583 33.2446L33.2447 25.6313L40.7311 33.2446L33.2447 40.731ZM27.0272 33.2446L33.2447 39.4622L39.4622 33.2446L33.2447 27.0271L27.0272 33.2446Z" fill="white"/>
<path d="M36.5437 47.4562C35.021 45.9336 33.1177 44.9185 31.7219 44.9185C31.0875 44.9185 30.5799 45.1722 30.1993 45.5529C29.5648 46.1873 29.438 47.2024 29.8186 48.3444C30.1993 48.3444 30.5799 48.4713 30.9606 48.5982C30.9606 48.4713 30.8337 48.3444 30.8337 48.2175C30.5799 47.3293 30.5799 46.568 30.9606 46.3142C31.2144 46.0604 31.4682 46.0604 31.8488 46.0604C32.9908 46.0604 34.6404 46.9487 36.0361 48.3444C38.0663 50.3746 38.7008 52.6586 37.9395 53.2931C37.6857 53.5469 37.4319 53.5469 37.0512 53.5469C36.6706 53.5469 36.163 53.42 35.6555 53.1662C35.7824 53.5469 35.9092 53.9275 35.9092 54.3082C36.2899 54.4351 36.6706 54.562 37.0512 54.562C37.6857 54.562 38.1932 54.3082 38.5739 53.9275C39.8428 52.5317 38.9546 49.7402 36.5437 47.4562Z" fill="white"/>
<path d="M34.1329 49.867C32.7372 48.4712 30.7069 47.583 28.6767 47.583C27.281 47.583 25.7583 47.9637 24.4894 48.5981L23.855 48.8519L24.1088 49.1057C24.6163 48.725 25.3776 48.5981 26.139 48.8519C26.9003 48.5981 27.6616 48.4712 28.5498 48.4712C30.4532 48.4712 32.1027 49.1057 33.3716 50.3746C35.148 52.151 35.7825 54.9425 34.8943 57.6072C35.0211 58.4954 35.0211 59.2567 34.6405 59.6374L34.8943 59.8912L35.148 59.2567C37.0514 56.2114 36.6707 52.2779 34.1329 49.867Z" fill="white"/>
<path d="M33.2448 60.9062C31.3414 60.9062 28.8037 59.5104 26.6466 57.3533C23.4744 54.1811 22.2055 50.5013 23.7281 48.9787C24.1088 48.598 24.7433 48.3442 25.5046 48.3442C27.4079 48.3442 29.8188 49.74 32.1028 51.8971C35.275 55.0693 36.5439 58.7491 35.0212 60.2717C34.6405 60.7793 34.0061 60.9062 33.2448 60.9062ZM25.5046 49.3593C24.997 49.3593 24.7433 49.4862 24.4895 49.74C23.6013 50.6282 24.4895 53.8004 27.4079 56.7189C29.4381 58.7491 31.7221 60.018 33.3716 60.018C33.8792 60.018 34.133 59.8911 34.3868 59.6373C35.275 58.7491 34.3868 55.5769 31.4683 52.6584C29.3112 50.6282 27.0272 49.3593 25.5046 49.3593Z" fill="white"/>
<path d="M29.0122 54.3859L24.7988 58.6064L25.5172 59.3236L29.7306 55.1031L29.0122 54.3859Z" fill="white"/>
</svg>
