<svg width="84" height="84" viewBox="0 0 84 84" fill="none" xmlns="http://www.w3.org/2000/svg">
<path d="M83.3654 41.9998C83.3654 19.16 64.8397 0.634277 41.9998 0.634277C19.16 0.634277 0.634277 19.16 0.634277 41.9998C0.634277 64.8397 19.16 83.3654 41.9998 83.3654C64.8397 83.3654 83.3654 64.8397 83.3654 41.9998Z" fill="#0066B3" stroke="white" stroke-miterlimit="10"/>
<path d="M68.7733 38.3203H15.0996V62.556H68.7733V38.3203Z" fill="#0066B3" stroke="white" stroke-miterlimit="10"/>
<path d="M68.7733 28.2959H15.0996V38.5738H68.7733V28.2959Z" fill="#0066B3" stroke="white" stroke-miterlimit="10"/>
<path d="M53.0391 31.5952H31.0874V45.426H53.0391V31.5952Z" fill="#0066B3"/>
<path d="M48.0904 34.7671H35.9092V42.3804H48.0904V34.7671Z" fill="#0066B3" stroke="white" stroke-miterlimit="10"/>
<path d="M30.0723 26.2658V18.9062H53.9273V26.2658" fill="#0066B3"/>
<path d="M30.0723 26.2658V18.9062H53.9273V26.2658" stroke="white" stroke-miterlimit="10"/>
</svg>
