<svg width="84" height="84" viewBox="0 0 84 84" fill="none" xmlns="http://www.w3.org/2000/svg">
<path d="M83.3654 41.9998C83.3654 19.16 64.8397 0.634277 41.9998 0.634277C19.16 0.634277 0.634277 19.16 0.634277 41.9998C0.634277 64.8397 19.16 83.3654 41.9998 83.3654C64.8397 83.3654 83.3654 64.8397 83.3654 41.9998Z" fill="#0066B3" stroke="white" stroke-miterlimit="10"/>
<path d="M17.6375 53.6735C17.6375 51.7702 16.1148 50.1206 14.0846 50.1206C12.1813 50.1206 10.5317 51.6433 10.5317 53.6735C10.5317 55.5768 12.0544 57.2263 14.0846 57.2263C15.9879 57.2263 17.6375 55.7037 17.6375 53.6735Z" stroke="white" stroke-miterlimit="10"/>
<path d="M15.4805 53.6736C15.4805 52.9123 14.8461 52.2778 14.0847 52.2778C13.3234 52.2778 12.689 52.9123 12.689 53.6736C12.689 54.4349 13.3234 55.0694 14.0847 55.0694C14.8461 55.0694 15.4805 54.4349 15.4805 53.6736Z" stroke="white" stroke-miterlimit="10"/>
<path d="M49.8667 53.6736C49.8667 52.9123 49.2323 52.2778 48.471 52.2778C47.7096 52.2778 47.0752 52.9123 47.0752 53.6736C47.0752 54.4349 47.7096 55.0694 48.471 55.0694C49.2323 55.0694 49.8667 54.4349 49.8667 53.6736Z" stroke="white" stroke-miterlimit="10"/>
<path d="M52.0242 53.6735C52.0242 51.7702 50.5015 50.1206 48.4713 50.1206C46.4411 50.1206 44.9185 51.6433 44.9185 53.6735C44.9185 55.5768 46.4411 57.2263 48.4713 57.2263C50.5015 57.2263 52.0242 55.7037 52.0242 53.6735Z" stroke="white" stroke-miterlimit="10"/>
<path d="M62.0484 53.6736C62.0484 52.9123 61.4139 52.2778 60.6526 52.2778C59.8913 52.2778 59.2568 52.9123 59.2568 53.6736C59.2568 54.4349 59.8913 55.0694 60.6526 55.0694C61.4139 55.0694 62.0484 54.4349 62.0484 53.6736Z" stroke="white" stroke-miterlimit="10"/>
<path d="M64.2053 53.6735C64.2053 51.7702 62.6827 50.1206 60.6525 50.1206C58.7492 50.1206 57.0996 51.6433 57.0996 53.6735C57.0996 55.5768 58.6223 57.2263 60.6525 57.2263C62.5558 57.2263 64.2053 55.7037 64.2053 53.6735Z" stroke="white" stroke-miterlimit="10"/>
<path d="M19.6675 53.6733H43.1418" stroke="white" stroke-miterlimit="10"/>
<path d="M53.5469 53.6733H55.3233" stroke="white" stroke-miterlimit="10"/>
<path d="M69.5349 31.595V24.4893H31.7222V46.5678H61.1602" stroke="white" stroke-miterlimit="10"/>
<path d="M8.50137 53.6738H5.45605V44.1571L9.64337 41.7463L17.6373 31.5952H28.8035V49.7402" stroke="white" stroke-miterlimit="10"/>
<path d="M12.4351 48.2173V43.3955" stroke="white" stroke-miterlimit="10"/>
<path d="M21.0635 52.0239V43.3955" stroke="white" stroke-miterlimit="10"/>
<path d="M12.4351 42.0001L18.5257 33.6255H21.0635V42.0001H12.4351Z" stroke="white" stroke-miterlimit="10"/>
<path d="M26.5196 33.6255H22.8398V42.0001H26.5196V33.6255Z" stroke="white" stroke-miterlimit="10"/>
<path d="M41.6194 48.3442H32.6104V52.024H41.6194V48.3442Z" stroke="white" stroke-miterlimit="10"/>
<path d="M62.6826 39.4619H78.5436" stroke="white" stroke-miterlimit="10"/>
<path d="M61.1602 43.9033H71.4381" stroke="white" stroke-miterlimit="10"/>
<path d="M61.1602 35.1479H73.9759" stroke="white" stroke-miterlimit="10"/>
</svg>
