<svg width="84" height="84" viewBox="0 0 84 84" fill="none" xmlns="http://www.w3.org/2000/svg">
<path d="M83.3654 41.9998C83.3654 19.16 64.8397 0.634277 41.9998 0.634277C19.16 0.634277 0.634277 19.16 0.634277 41.9998C0.634277 64.8397 19.16 83.3654 41.9998 83.3654C64.8397 83.3654 83.3654 64.8397 83.3654 41.9998Z" fill="#0066B3" stroke="white" stroke-miterlimit="10"/>
<path d="M37.3046 52.9121C37.3046 47.5828 32.9904 43.2686 27.6611 43.2686C22.3318 43.2686 18.0176 47.5828 18.0176 52.9121C18.0176 58.2414 22.3318 62.5556 27.6611 62.5556C32.9904 62.5556 37.3046 58.2414 37.3046 52.9121Z" stroke="white" stroke-miterlimit="10"/>
<path d="M31.7219 52.912C31.7219 50.628 29.9455 48.8516 27.6615 48.8516C25.3775 48.8516 23.6011 50.628 23.6011 52.912C23.6011 55.196 25.3775 56.9724 27.6615 56.9724C29.8186 56.9724 31.7219 55.196 31.7219 52.912Z" stroke="white" stroke-miterlimit="10"/>
<path d="M64.7126 52.912C64.7126 50.628 62.9362 48.8516 60.6522 48.8516C58.3682 48.8516 56.5918 50.628 56.5918 52.912C56.5918 55.196 58.3682 56.9724 60.6522 56.9724C62.9362 56.9724 64.7126 55.196 64.7126 52.912Z" stroke="white" stroke-miterlimit="10"/>
<path d="M70.2958 52.9121C70.2958 47.5828 65.9816 43.2686 60.6523 43.2686C55.323 43.2686 51.0088 47.5828 51.0088 52.9121C51.0088 58.2414 55.323 62.5556 60.6523 62.5556C65.9816 62.5556 70.2958 58.2414 70.2958 52.9121Z" stroke="white" stroke-miterlimit="10"/>
<path d="M38.7007 52.9121H48.8517" stroke="white" stroke-miterlimit="10"/>
<path d="M30.4528 40.8577H23.2202V36.2898L32.8637 34.5133L39.0812 21.4438H54.8154V33.752H67.8849V38.9544" stroke="white" stroke-miterlimit="10"/>
<path d="M35.4014 35.7823L40.35 23.6011L51.8968 23.728V39.9697L48.0902 41.4923H38.3198L35.4014 35.7823Z" stroke="white" stroke-miterlimit="10"/>
<path d="M29.9453 26.3926H27.0269V32.6101L29.9453 31.9757V26.3926Z" stroke="white" stroke-miterlimit="10"/>
<path d="M28.5498 21.4438V24.3623" stroke="white" stroke-miterlimit="10"/>
<path d="M22.2051 50.2476H13.7036V55.7038H22.2051V50.2476Z" fill="#0066B3"/>
<path d="M14.5918 52.9121H21.3169" stroke="white" stroke-miterlimit="10"/>
</svg>
