<svg width="84" height="84" viewBox="0 0 84 84" fill="none" xmlns="http://www.w3.org/2000/svg">
<path d="M83.3659 42C83.3659 19.1601 64.8402 0.63443 42.0003 0.63443C19.1604 0.63443 0.634766 19.1601 0.634766 42C0.634766 64.8399 19.1604 83.3656 42.0003 83.3656C64.8402 83.3656 83.3659 64.8399 83.3659 42Z" fill="#0066B3" stroke="white" stroke-miterlimit="10"/>
<path d="M40.9854 14.2115V22.9668" stroke="white" stroke-miterlimit="10"/>
<path d="M15.3535 23.6012L21.571 29.8188" stroke="white" stroke-miterlimit="10"/>
<path d="M29.0576 21.9517L27.0273 17.003" stroke="white" stroke-miterlimit="10"/>
<path d="M66.616 23.6012L60.3984 29.8187" stroke="white" stroke-miterlimit="10"/>
<path d="M52.9121 21.9517L54.8154 17.003" stroke="white" stroke-miterlimit="10"/>
<path d="M11.9277 40.858H18.399V42.1269H13.4504V46.1873H18.0184V47.4562H13.4504V52.9124H11.9277V40.858Z" fill="white"/>
<path d="M71.819 47.3293H67.1242V51.6435H72.3266V52.9124H65.4746V40.7311H72.0728V42H67.1242V45.8066H71.819V47.3293Z" fill="white"/>
<path d="M39.8438 51.3897L59.2576 20.8097L43.6504 53.4199L39.8438 51.3897Z" stroke="white" stroke-miterlimit="10"/>
<path d="M46.0613 52.4048C46.0613 50.1208 44.2848 48.3444 42.0009 48.3444C39.8438 48.3444 37.9404 50.1208 37.9404 52.4048C37.9404 54.5619 39.7169 56.4652 42.0009 56.4652C44.158 56.3384 46.0613 54.5619 46.0613 52.4048Z" fill="#0066B3" stroke="white" stroke-miterlimit="10"/>
</svg>
