<svg width="24" height="24" viewBox="0 0 24 24" fill="none" xmlns="http://www.w3.org/2000/svg">
<path d="M7.08018 12.0001C6.7987 11.7469 6.43191 11.6096 6.05339 11.6156C5.67487 11.6216 5.31261 11.7705 5.03929 12.0324C4.76597 12.2944 4.6018 12.65 4.57971 13.0279C4.55762 13.4058 4.67924 13.7781 4.92018 14.0701L8.25018 17.5651C8.3896 17.7113 8.55713 17.8279 8.74272 17.9078C8.9283 17.9877 9.12812 18.0293 9.33018 18.0301C9.53117 18.0313 9.73034 17.992 9.91586 17.9147C10.1014 17.8374 10.2695 17.7236 10.4102 17.5801L20.5802 7.08009C20.7181 6.93826 20.8267 6.77066 20.8998 6.58687C20.9729 6.40307 21.0091 6.20667 21.0063 6.00888C21.0035 5.81109 20.9618 5.61579 20.8835 5.43412C20.8053 5.25245 20.692 5.08798 20.5502 4.95009C20.4084 4.8122 20.2408 4.7036 20.057 4.63048C19.8732 4.55737 19.6768 4.52117 19.479 4.52395C19.2812 4.52674 19.0859 4.56845 18.9042 4.64672C18.7225 4.72498 18.5581 4.83826 18.4202 4.98009L9.34518 14.3701L7.08018 12.0001Z" fill="#0066B3"/>
</svg>
