<svg width="22" height="22" viewBox="0 0 22 22" fill="none" xmlns="http://www.w3.org/2000/svg">
<path fill-rule="evenodd" clip-rule="evenodd" d="M21.7149 10.7043C21.7149 16.5584 16.9692 21.304 11.1152 21.304C5.26106 21.304 0.515381 16.5584 0.515381 10.7043C0.515381 4.85017 5.26106 0.104492 11.1152 0.104492C16.9692 0.104492 21.7149 4.85017 21.7149 10.7043ZM15.5387 5.74244L5.31876 9.68291C4.61829 9.95673 4.63065 10.3445 5.19863 10.5247L7.815 11.3409L13.8843 7.51967C14.166 7.33241 14.4275 7.43841 14.2137 7.62655L9.30251 12.0634L9.11436 14.7602C9.38819 14.7602 9.50743 14.641 9.64876 14.4996L10.9269 13.2683L13.5769 15.2213C14.06 15.4951 14.4054 15.3538 14.5344 14.7726L16.2745 6.57452L16.2736 6.57541C16.4273 5.85816 16.013 5.57108 15.5387 5.74244Z" fill="#18A0FB"/>
</svg>
