<svg width="84" height="84" viewBox="0 0 84 84" fill="none" xmlns="http://www.w3.org/2000/svg">
<path d="M83.3654 41.9998C83.3654 19.16 64.8397 0.634277 41.9998 0.634277C19.16 0.634277 0.634277 19.16 0.634277 41.9998C0.634277 64.8397 19.16 83.3654 41.9998 83.3654C64.8397 83.3654 83.3654 64.8397 83.3654 41.9998Z" fill="#0066B3" stroke="white" stroke-miterlimit="10"/>
<path d="M33.6257 55.577C33.6257 51.7704 30.4535 48.5981 26.6468 48.5981C22.8402 48.5981 19.668 51.7704 19.668 55.577C19.668 59.3836 22.8402 62.5559 26.6468 62.5559C30.4535 62.5559 33.6257 59.3836 33.6257 55.577Z" stroke="white" stroke-miterlimit="10"/>
<path d="M29.5654 55.5771C29.5654 53.9276 28.2965 52.6587 26.6469 52.6587C24.9974 52.6587 23.7285 53.9276 23.7285 55.5771C23.7285 57.2267 24.9974 58.4955 26.6469 58.4955C28.2965 58.4955 29.5654 57.0998 29.5654 55.5771Z" stroke="white" stroke-miterlimit="10"/>
<path d="M61.1604 52.9125C61.1604 50.6285 59.384 48.8521 57.1 48.8521C54.816 48.8521 53.0396 50.6285 53.0396 52.9125C53.0396 55.1965 54.816 56.9729 57.1 56.9729C59.384 56.9729 61.1604 55.1965 61.1604 52.9125Z" stroke="white" stroke-miterlimit="10"/>
<path d="M66.7435 52.9126C66.7435 47.5832 62.4293 43.269 57.1 43.269C51.7707 43.269 47.4565 47.5832 47.4565 52.9126C47.4565 58.2419 51.7707 62.5561 57.1 62.5561C62.4293 62.5561 66.7435 58.2419 66.7435 52.9126Z" stroke="white" stroke-miterlimit="10"/>
<path d="M35.4019 51.8975H45.5529" stroke="white" stroke-miterlimit="10"/>
<path d="M33.245 46.5677H19.668V36.2898L38.0668 34.0058L43.6498 21.4438H59.384V40.9846H65.8553V44.1568" stroke="white" stroke-miterlimit="10"/>
<path d="M41.7466 34.7672L46.1877 23.6011H56.7194V38.447L53.2934 39.8428H44.4112L41.7466 34.7672Z" stroke="white" stroke-miterlimit="10"/>
<path d="M26.5199 27.4077H23.4746V33.7521L26.5199 33.1177V27.4077Z" stroke="white" stroke-miterlimit="10"/>
<path d="M24.9976 22.4595V25.5048" stroke="white" stroke-miterlimit="10"/>
<path d="M42.7617 19.1602H60.1454" stroke="white" stroke-miterlimit="10"/>
<path d="M40.4775 40.604H35.6558V50.1206H40.4775V40.604Z" stroke="white" stroke-miterlimit="10"/>
<path d="M17.3837 51.8975H12.4351V56.7192H17.3837V51.8975Z" stroke="white" stroke-miterlimit="10"/>
<path d="M17.3837 35.7827H15.3535V50.1211H17.3837V35.7827Z" stroke="white" stroke-miterlimit="10"/>
</svg>
