<svg width="140" height="44" viewBox="0 0 140 44" fill="none" xmlns="http://www.w3.org/2000/svg">
<path d="M0 35.9022H0.765802V41.5321H0V35.9022ZM2.14425 38.5515L5.59035 41.4658H4.59481L1.22529 38.5515L4.36507 35.8359H5.36061L2.14425 38.5515Z" fill="white"/>
<path d="M9.57265 35.7695C11.5637 35.7695 12.9422 37.028 12.9422 38.6838C12.9422 40.3397 11.5637 41.5981 9.57265 41.5981C7.58157 41.5981 6.20312 40.3397 6.20312 38.6838C6.20312 37.028 7.58157 35.7695 9.57265 35.7695ZM9.57265 41.002C11.1043 41.002 12.1764 40.0747 12.1764 38.6838C12.1764 37.3591 11.1043 36.3656 9.57265 36.3656C8.04105 36.3656 6.96893 37.2929 6.96893 38.6838C6.96893 40.0085 8.11763 41.002 9.57265 41.002Z" fill="white"/>
<path d="M14.8567 35.9014H18.7623V36.4975H15.6225V41.465H14.8567V35.9014Z" fill="white"/>
<path d="M18.4558 40.8689H19.2982C19.6811 40.4053 20.2172 39.2131 20.3703 37.491L20.4469 35.9014H24.5822V40.8689H25.6544V42.9222H24.9651V41.5313H19.2216V42.9222H18.5324V40.8689H18.4558ZM20.064 40.8689H23.8164V36.4975H21.1361L21.0595 37.6897C20.9064 39.3455 20.4469 40.4715 20.064 40.8689Z" fill="white"/>
<path d="M27.0329 36.2994C27.6455 35.9682 28.3348 35.7695 29.1006 35.7695C30.8619 35.7695 31.4745 36.5643 31.4745 38.0215V41.4657H30.7087V40.6046C30.3258 41.0682 29.6366 41.5319 28.4879 41.5319C27.2626 41.5319 26.4968 40.8695 26.4968 39.876C26.4968 38.7501 27.5689 38.154 28.9474 38.154C29.4835 38.154 30.1727 38.2864 30.7087 38.5514C30.7087 37.2267 30.6322 36.3656 29.024 36.3656C28.2582 36.3656 27.7987 36.4981 27.186 36.8293L27.0329 36.2994ZM30.7087 40.0747V39.1475C30.2493 38.8163 29.7132 38.6838 29.024 38.6838C28.1816 38.6838 27.2626 39.015 27.2626 39.876C27.2626 40.6046 27.8753 41.002 28.7177 41.002C29.8664 40.9358 30.4024 40.4721 30.7087 40.0747Z" fill="white"/>
<path d="M41.966 38.948H37.7541V41.4649H36.9883V35.835H37.7541V38.2856H41.966V35.835H42.7318V41.4649H41.966V38.948Z" fill="white"/>
<path d="M47.9393 41.4649C47.0203 43.4519 46.4077 43.9818 45.4887 43.9818C45.1058 43.9818 44.7229 43.8493 44.4166 43.7168L44.6463 43.1869C44.8761 43.3194 45.1824 43.3856 45.4121 43.3856C46.1014 43.3856 46.5608 42.922 47.0969 41.796L47.2501 41.4649L44.0337 35.835H44.9527L47.1735 39.809L47.633 40.67C47.7095 40.4051 47.8627 40.0739 48.0159 39.7428L49.7772 35.835H50.6196L47.9393 41.4649Z" fill="white"/>
<path d="M51.0025 35.9012H51.9215L54.4486 38.6168L51.7683 41.5311H50.8494L53.6063 38.6168L51.0025 35.9012ZM54.9081 35.9012H55.6739V41.5311H54.9081V35.9012ZM56.8992 38.5506L59.6561 41.4649H58.7371L56.0568 38.5506L58.584 35.835H59.5029L56.8992 38.5506Z" fill="white"/>
<path d="M66.1653 40.8033C65.5527 41.3332 64.6337 41.5981 63.7913 41.5981C61.7237 41.5981 60.3452 40.4721 60.3452 38.6838C60.3452 37.028 61.4939 35.7695 63.6382 35.7695C65.3229 35.7695 66.5482 36.763 66.5482 38.2864C66.5482 38.4851 66.5482 38.6838 66.4716 38.8163H61.111C61.1876 40.141 62.1831 41.002 63.7913 41.002C64.6337 41.002 65.4761 40.7371 65.859 40.3397L66.1653 40.8033ZM61.1876 38.2864H65.859C65.859 37.0942 64.94 36.3656 63.6382 36.3656C62.1066 36.3656 61.2642 37.1604 61.1876 38.2864Z" fill="white"/>
<path d="M73.2873 38.948H69.0754V41.4649H68.3096V35.835H69.0754V38.2856H73.2873V35.835H74.0531V41.4649H73.2873V38.948Z" fill="white"/>
<path d="M79.72 35.902H80.4858V36.6306C80.9453 36.1007 81.9408 35.7695 82.8598 35.7695C84.6977 35.7695 85.8464 36.9617 85.8464 38.6176C85.8464 40.3397 84.5445 41.5981 82.5534 41.5981C81.7876 41.5981 81.0218 41.4657 80.4858 41.1345V43.9826H79.72V35.902ZM80.4858 37.2267V40.4722C81.175 40.8696 81.7876 41.002 82.4769 41.002C84.0085 41.002 85.0806 40.0085 85.0806 38.6176C85.0806 37.2929 84.2382 36.3656 82.63 36.3656C81.7111 36.3656 80.8687 36.763 80.4858 37.2267Z" fill="white"/>
<path d="M93.045 40.8033C92.4323 41.3332 91.5134 41.5981 90.671 41.5981C88.6033 41.5981 87.2249 40.4721 87.2249 38.6838C87.2249 37.028 88.3736 35.7695 90.5178 35.7695C92.2026 35.7695 93.4279 36.763 93.4279 38.2864C93.4279 38.4851 93.4279 38.6838 93.3513 38.8163H87.9907C88.0672 40.141 89.0628 41.002 90.671 41.002C91.5134 41.002 92.3557 40.7371 92.7386 40.3397L93.045 40.8033ZM87.9907 38.2864H92.6621C92.6621 37.0942 91.7431 36.3656 90.4412 36.3656C88.9862 36.3656 88.1438 37.1604 87.9907 38.2864Z" fill="white"/>
<path d="M94.6531 40.8696L95.036 40.3397C95.572 40.8033 96.491 41.002 97.1037 41.002C98.2524 41.002 99.0947 40.6046 99.0947 39.876C99.0947 39.2799 98.4821 38.9488 97.5631 38.9488H96.491V38.4189H97.4866C98.2524 38.4189 98.7884 37.9553 98.7884 37.4254C98.7884 36.763 98.1758 36.4319 97.1802 36.4319C96.2613 36.4319 95.6486 36.6968 95.1891 37.028L94.8828 36.4981C95.4189 36.0345 96.3378 35.7695 97.3334 35.7695C98.865 35.7695 99.6308 36.2994 99.6308 37.2267C99.6308 37.7566 99.3245 38.2864 98.4821 38.5514C99.4011 38.6176 99.8605 39.2137 99.8605 39.876C99.8605 40.9358 98.7118 41.5319 97.1802 41.5319C96.3378 41.5981 95.1126 41.267 94.6531 40.8696Z" fill="white"/>
<path d="M104.762 41.4649C103.843 43.4519 103.23 43.9818 102.311 43.9818C101.928 43.9818 101.545 43.8493 101.239 43.7168L101.469 43.1869C101.699 43.3194 102.005 43.3856 102.235 43.3856C102.924 43.3856 103.383 42.922 103.919 41.796L104.073 41.4649L100.856 35.835H101.775L103.996 39.809L104.455 40.67C104.532 40.4051 104.685 40.0739 104.838 39.7428L106.6 35.835H107.442L104.762 41.4649Z" fill="white"/>
<path d="M112.879 36.4973H110.122L110.046 37.6895C109.74 41.0012 108.744 41.4649 107.748 41.4649L107.672 40.8025C108.131 40.8025 109.127 40.4713 109.357 37.557L109.433 35.835H113.645V41.4649H112.879V36.4973Z" fill="white"/>
<path d="M115.943 35.9014H116.708V37.7559H117.934C119.925 37.7559 120.461 38.617 120.461 39.6105C120.461 40.604 119.848 41.465 117.78 41.465H115.866V35.9014H115.943ZM116.708 38.352V40.8689H117.78C119.159 40.8689 119.695 40.4053 119.695 39.6105C119.695 38.8157 119.159 38.352 117.78 38.352H116.708Z" fill="white"/>
<path d="M120.69 35.9014H126.587V36.5637H123.983V41.5313H123.217V36.4975H120.614V35.9014H120.69Z" fill="white"/>
<path d="M127.889 36.2994C128.502 35.9682 129.191 35.7695 129.957 35.7695C131.718 35.7695 132.331 36.5643 132.331 38.0215V41.4657H131.565V40.6046C131.182 41.0682 130.493 41.5319 129.344 41.5319C128.119 41.5319 127.353 40.8695 127.353 39.876C127.353 38.7501 128.425 38.154 129.804 38.154C130.34 38.154 131.029 38.2864 131.565 38.5514C131.565 37.2267 131.488 36.3656 129.88 36.3656C129.114 36.3656 128.655 36.4981 128.042 36.8293L127.889 36.2994ZM131.642 40.0747V39.1475C131.182 38.8163 130.646 38.6838 129.957 38.6838C129.114 38.6838 128.195 39.015 128.195 39.876C128.195 40.6046 128.808 41.002 129.65 41.002C130.723 40.9358 131.259 40.4721 131.642 40.0747Z" fill="white"/>
<path d="M133.556 35.9014H139.452V36.5637H136.849V41.5313H136.083V36.4975H133.479V35.9014H133.556Z" fill="white"/>
<path d="M19.1459 13.8456C18.9161 14.243 18.5332 14.5079 17.9206 14.6404C17.3845 14.7728 16.6187 14.8391 15.6232 14.8391H9.11386C8.11832 14.8391 7.27594 14.7728 6.73987 14.5741C6.12723 14.3754 5.74433 14.1105 5.43801 13.5806C5.13169 13.117 5.05511 12.4546 5.05511 11.5274V7.02345C5.05511 6.02994 5.13169 5.3676 5.36143 4.90396C5.59117 4.50656 5.97407 4.17539 6.51013 4.04292C7.0462 3.91045 7.96516 3.84422 9.11386 3.84422H15.6232C17.0016 3.84422 17.9972 4.04292 18.6098 4.44032C19.2225 4.83773 19.5288 5.50007 19.5288 6.42734H24.7362C24.7362 4.77149 24.4299 3.51305 23.7407 2.652C23.0515 1.72473 22.1325 1.12862 20.9838 0.797451C19.8351 0.466281 18.3035 0.267578 16.4656 0.267578H8.1949C6.05065 0.267578 4.44247 0.466281 3.29376 0.863685C2.14506 1.26109 1.30268 1.92343 0.843195 2.85071C0.383714 3.77798 0.0773926 5.1689 0.0773926 6.89098V11.991C0.0773926 13.6469 0.307132 14.9053 0.766613 15.8326C1.22609 16.7599 2.06848 17.4222 3.1406 17.8196C4.28931 18.217 5.82091 18.4157 7.73542 18.4157H17.1548C19.2225 18.4157 20.8306 18.217 21.9028 17.8858C22.9749 17.4884 23.7407 16.8923 24.1236 16.0313C24.5065 15.1702 24.7362 13.8456 24.7362 12.1897H19.5288C19.5288 12.852 19.4522 13.4481 19.1459 13.8456Z" fill="white"/>
<path d="M130.646 0.333984H125.592H116.708V3.91062H125.592V18.4159H130.646V3.91062H139.453V0.333984H130.646Z" fill="white"/>
<path d="M68.616 0.333984L57.4353 18.4159H63.1788L66.0123 13.8457H78.5714L81.2517 18.4159H81.5581H87.1484L76.0443 0.333984H68.616ZM76.5038 10.4678H68.0799L68.2331 10.2691L72.3684 3.38075L76.5038 10.4678Z" fill="white"/>
<path d="M99.8606 9.80545L93.1981 0.333984H87.2249L96.7208 13.9782L93.4279 18.4159H99.4011L112.956 0.333984H106.906L99.8606 9.80545Z" fill="white"/>
<path d="M42.349 8.74571L53.836 0.333984H47.2501L38.5966 6.62622L35.6865 8.74571L47.8628 18.4159H54.4487L42.349 8.74571Z" fill="white"/>
<path d="M35.6864 8.21584V7.08986V0.333984H30.6321V18.4159H35.6864V17.3561V16.6276V14.1107V9.27558V8.21584Z" fill="white"/>
<path d="M139.453 25.3701H0V28.9468H139.453V25.3701Z" fill="white"/>
</svg>
