<svg width="84" height="84" viewBox="0 0 84 84" fill="none" xmlns="http://www.w3.org/2000/svg">
<path d="M83.3654 42.0001C83.3654 19.1602 64.8397 0.634521 41.9998 0.634521C19.16 0.634521 0.634277 19.1602 0.634277 42.0001C0.634277 64.84 19.16 83.3656 41.9998 83.3656C64.8397 83.3656 83.3654 64.84 83.3654 42.0001Z" fill="#0066B3" stroke="white" stroke-width="0.9888" stroke-miterlimit="10"/>
<path d="M26 30.625H33C33.4832 30.625 33.875 30.2332 33.875 29.75V27.125H32.125V28.875H26.875V23.625H29.5V21.875H26C25.5168 21.875 25.125 22.2668 25.125 22.75V29.75C25.125 30.2332 25.5168 30.625 26 30.625Z" fill="#FAFBFF"/>
<path d="M29.5 25.8877L28.3687 24.7563L27.1313 25.9936L28.8813 27.7436C29.0522 27.9145 29.2761 28 29.5 28C29.7239 28 29.9478 27.9145 30.1187 27.7436L35.3687 22.4937L34.1314 21.2563L29.5 25.8877Z" fill="#FAFBFF"/>
<path d="M32.125 40.25H26.875V35H29.5V33.25H26C25.5168 33.25 25.125 33.6418 25.125 34.125V41.125C25.125 41.6082 25.5168 42 26 42H33C33.4832 42 33.875 41.6082 33.875 41.125V38.5H32.125V40.25Z" fill="#FAFBFF"/>
<path d="M29.5 37.2627L28.3687 36.1313L27.1313 37.3687L28.8813 39.1187C29.0522 39.2895 29.2761 39.375 29.5 39.375C29.7239 39.375 29.9478 39.2895 30.1187 39.1187L35.3687 33.8686L34.1314 32.6313L29.5 37.2627Z" fill="#FAFBFF"/>
<path d="M33 44.625H26C25.5168 44.625 25.125 45.0168 25.125 45.5V52.5C25.125 52.9832 25.5168 53.375 26 53.375H33C33.4832 53.375 33.875 52.9832 33.875 52.5V45.5C33.875 45.0168 33.4832 44.625 33 44.625ZM32.125 51.625H26.875V46.375H32.125V51.625Z" fill="#FAFBFF"/>
<path d="M33 56H26C25.5168 56 25.125 56.3918 25.125 56.875V63.875C25.125 64.3582 25.5168 64.75 26 64.75H33C33.4832 64.75 33.875 64.3582 33.875 63.875V56.875C33.875 56.3918 33.4832 56 33 56ZM32.125 63H26.875V57.75H32.125V63Z" fill="#FAFBFF"/>
<path d="M69.4936 18.6313C69.1519 18.2896 68.5981 18.2896 68.2563 18.6313L62.75 24.1377L54.6186 16.0063C54.4546 15.8423 54.232 15.75 54 15.75H21.625C21.1418 15.75 20.75 16.1418 20.75 16.625V67.375C20.75 67.8582 21.1418 68.25 21.625 68.25H62.75C63.2332 68.25 63.625 67.8582 63.625 67.375V32.7373L72.9936 23.3687C73.3354 23.0269 73.3354 22.4731 72.9936 22.1313L69.4936 18.6313ZM61.875 66.5H22.5V17.5H53.6377L60.6377 24.5H54.875V20.125H53.125V25.375C53.125 25.8582 53.5168 26.25 54 26.25H60.6377L40.2563 46.6313C40.1602 46.7275 40.088 46.8445 40.0449 46.9731L38.2949 52.2231C38.1902 52.5376 38.2718 52.8845 38.5063 53.1187C38.673 53.2857 38.8969 53.375 39.125 53.375C39.2177 53.375 39.3108 53.3605 39.4019 53.3301L44.6519 51.5801C44.7805 51.537 44.8975 51.4648 44.9936 51.3687L61.875 34.4873V66.5ZM41.2574 48.8697L42.7553 50.3676L40.5084 51.1166L41.2574 48.8697ZM44.375 49.5127L42.1123 47.25L68.875 20.4873L71.1377 22.75L44.375 49.5127Z" fill="#FAFBFF"/>
<path d="M58.375 63H60.125V64.75H58.375V63Z" fill="#FAFBFF"/>
<path d="M54.875 63H56.625V64.75H54.875V63Z" fill="#FAFBFF"/>
<path d="M51.375 63H53.125V64.75H51.375V63Z" fill="#FAFBFF"/>
</svg>
