<svg width="84" height="84" viewBox="0 0 84 84" fill="none" xmlns="http://www.w3.org/2000/svg">
<g clip-path="url(#clip0)">
<path d="M83.7311 42.3656C83.7311 19.5257 65.2054 1 42.3656 1C19.5257 1 1 19.5257 1 42.3656C1 65.2054 19.5257 83.7311 42.3656 83.7311C65.2054 83.7311 83.7311 65.2054 83.7311 42.3656Z" fill="#0066B3" stroke="white" stroke-width="0.9888" stroke-miterlimit="10"/>
<path d="M58.9583 40.396V37.0835C58.9583 30.0949 54.2933 24.1823 47.9166 22.2763V21.6252C47.9166 19.1894 45.9347 17.2085 43.4999 17.2085C41.0651 17.2085 39.0833 19.1894 39.0833 21.6252V22.2763C32.7068 24.1823 28.0416 30.0949 28.0416 37.0835V40.396C28.0416 47.7466 26.3121 50.3291 25.0482 52.2151C24.3173 53.3075 23.625 54.3393 23.625 55.8544C23.625 59.4542 31.1294 60.7174 37.2136 61.1524C38.0667 63.8835 40.5708 65.7919 43.5 65.7919C46.4292 65.7919 48.9333 63.8835 49.7864 61.1524C55.8706 60.7174 63.375 59.454 63.375 55.8544C63.375 54.3394 62.6827 53.3075 61.9517 52.2152C60.6879 50.3292 58.9583 47.7467 58.9583 40.396ZM41.2917 21.6252C41.2917 20.4079 42.2816 19.4169 43.5 19.4169C44.7184 19.4169 45.7083 20.4079 45.7083 21.6252V21.8016C44.985 21.6975 44.2517 21.6252 43.5 21.6252C42.7483 21.6252 42.015 21.6975 41.2917 21.8016V21.6252ZM43.5 63.5835C41.8495 63.5835 40.4 62.6727 39.647 61.2909C41.2116 61.357 42.5702 61.3752 43.5 61.3752C44.4299 61.3752 45.7884 61.357 47.3532 61.2909C46.6001 62.6727 45.1505 63.5835 43.5 63.5835ZM43.5 59.1669C33.3878 59.1669 25.8333 57.4179 25.8333 55.8544C25.8333 55.0468 26.1741 54.5022 26.8836 53.4444C28.2229 51.4431 30.25 48.4185 30.25 40.396V37.0835C30.25 29.7771 36.1936 23.8335 43.5 23.8335C50.8064 23.8335 56.75 29.7771 56.75 37.0835V40.396C56.75 48.4185 58.7771 51.4431 60.1164 53.4443C60.8259 54.5022 61.1667 55.0467 61.1667 55.8543C61.1667 57.4179 53.6122 59.1669 43.5 59.1669Z" fill="white"/>
<path d="M68.6849 33.4734C68.4908 32.8933 67.8697 32.5828 67.2875 32.7757C66.7095 32.9688 66.3968 33.5941 66.5887 34.1722C67.3866 36.5627 67.7921 39.0277 67.7921 41.5002C67.7921 43.9728 67.3866 46.4377 66.5887 48.8283C66.3968 49.4062 66.7095 50.0317 67.2875 50.2247C67.4039 50.2636 67.5204 50.2819 67.6368 50.2819C68.0983 50.2819 68.5297 49.9897 68.6849 49.527C69.5583 46.9121 70.0004 44.2111 70.0004 41.5002C70.0004 38.7894 69.5583 36.0883 68.6849 33.4734Z" fill="white"/>
<path d="M63.1009 34.1701C62.523 34.3632 62.2103 34.9885 62.4022 35.5665C63.047 37.5052 63.3748 39.5012 63.3748 41.5003C63.3748 43.4994 63.047 45.4953 62.4022 47.4341C62.2103 48.012 62.523 48.6375 63.1009 48.8305C63.2174 48.8683 63.3339 48.8866 63.4503 48.8866C63.914 48.8866 64.3431 48.5944 64.4984 48.1308C65.2187 45.9677 65.5831 43.7367 65.5831 41.5004C65.5831 39.264 65.2187 37.0331 64.4984 34.87C64.3043 34.2898 63.6832 33.9846 63.1009 34.1701Z" fill="white"/>
<path d="M19.2083 41.5003C19.2083 39.0299 19.6116 36.5638 20.4095 34.1722C20.6014 33.5932 20.2887 32.9678 19.7108 32.7748C19.1328 32.5893 18.5074 32.8956 18.3133 33.4735C17.4421 36.0916 17 38.7927 17 41.5003C17 44.2112 17.4421 46.9122 18.3155 49.5271C18.4707 49.9897 18.9021 50.2819 19.3636 50.2819C19.48 50.2819 19.5965 50.2636 19.7129 50.2248C20.2909 50.0317 20.6036 49.4064 20.4117 48.8284C19.6138 46.4378 19.2083 43.9728 19.2083 41.5003Z" fill="white"/>
<path d="M24.5979 47.4341C23.9531 45.4954 23.6253 43.4995 23.6253 41.5003C23.6253 39.5011 23.9531 37.5052 24.5979 35.5665C24.7898 34.9885 24.4771 34.3631 23.8992 34.17C23.3147 33.9835 22.6958 34.2897 22.5017 34.8698C21.7815 37.033 21.417 39.2639 21.417 41.5003C21.417 43.7366 21.7815 45.9676 22.5017 48.1307C22.657 48.5943 23.0862 48.8865 23.5498 48.8865C23.6663 48.8865 23.7827 48.8682 23.8992 48.8304C24.4771 48.6375 24.7898 48.012 24.5979 47.4341Z" fill="white"/>
</g>
<defs>
<clipPath id="clip0">
<rect width="84" height="84" fill="white"/>
</clipPath>
</defs>
</svg>
