<svg width="84" height="84" viewBox="0 0 84 84" fill="none" xmlns="http://www.w3.org/2000/svg">
<path d="M83.3654 41.9998C83.3654 19.16 64.8397 0.634277 41.9998 0.634277C19.16 0.634277 0.634277 19.16 0.634277 41.9998C0.634277 64.8397 19.16 83.3654 41.9998 83.3654C64.8397 83.3654 83.3654 64.8397 83.3654 41.9998Z" fill="#0066B3" stroke="white" stroke-width="0.9888" stroke-miterlimit="10"/>
<path d="M25.1237 50.3742H24.1086L22.8398 47.202H18.2718L17.0029 50.3742H15.9878L20.0482 40.2231H21.0633L25.1237 50.3742ZM20.5558 41.1114L18.5256 46.3138H22.586L20.5558 41.1114Z" fill="white"/>
<path d="M64.2051 42.634H59.3833V32.4829H66.3622V33.2442H60.3984V36.7971H64.2051C66.1084 36.7971 67.2504 37.9391 67.2504 39.7155C67.2504 41.492 66.1084 42.634 64.2051 42.634ZM64.0782 37.6853H60.5253V41.8726H64.0782C65.4739 41.8726 66.3622 41.1113 66.3622 39.7155C66.2353 38.4467 65.4739 37.6853 64.0782 37.6853Z" fill="white"/>
<path d="M29.9454 36.4165H11.9272V54.4346H29.9454V36.4165Z" stroke="white" stroke-width="0.9888" stroke-miterlimit="10"/>
<path d="M72.0723 29.311H54.0542V47.3292H72.0723V29.311Z" stroke="white" stroke-width="0.9888" stroke-miterlimit="10"/>
<path d="M20.9365 36.4165C20.9365 30.5796 25.6314 25.8848 31.4682 25.8848" stroke="white" stroke-width="0.9888" stroke-miterlimit="10" stroke-dasharray="2.97 2.97"/>
<path d="M31.4678 25.8848C37.3046 25.8848 41.9995 28.2956 41.9995 41.9996" stroke="white" stroke-width="0.9888" stroke-miterlimit="10" stroke-dasharray="2.97 2.97"/>
<path d="M62.8095 47.5825C62.8095 53.4194 58.1147 58.1142 52.2778 58.1142" stroke="white" stroke-width="0.9888" stroke-miterlimit="10" stroke-dasharray="2.97 2.97"/>
<path d="M52.4048 57.9874C46.5679 57.9874 41.873 55.5765 41.873 41.8726" stroke="white" stroke-width="0.9888" stroke-miterlimit="10" stroke-dasharray="2.97 2.97"/>
</svg>
