<svg width="84" height="84" viewBox="0 0 84 84" fill="none" xmlns="http://www.w3.org/2000/svg">
<path d="M83.3654 42.0001C83.3654 19.1602 64.8397 0.634521 41.9998 0.634521C19.16 0.634521 0.634277 19.1602 0.634277 42.0001C0.634277 64.84 19.16 83.3656 41.9998 83.3656C64.8397 83.3656 83.3654 64.84 83.3654 42.0001Z" fill="#0066B3" stroke="white" stroke-width="0.9888" stroke-miterlimit="10"/>
<path d="M66 64.3667H17V66H66V64.3667Z" fill="white"/>
<path d="M20.2669 62.7332H28.4335C28.8845 62.7332 29.2502 62.3676 29.2502 61.9166V47.2166C29.2502 46.7656 28.8845 46.3999 28.4335 46.3999H20.2669C19.8159 46.3999 19.4502 46.7656 19.4502 47.2166V61.9166C19.4502 62.3676 19.8159 62.7332 20.2669 62.7332ZM21.0835 48.0332H27.6169V61.0999H21.0835V48.0332Z" fill="white"/>
<path d="M43.1336 62.7334H51.3002C51.7512 62.7334 52.1169 62.3678 52.1169 61.9168V37.4168C52.1169 36.9658 51.7512 36.6001 51.3002 36.6001H43.1336C42.6826 36.6001 42.3169 36.9658 42.3169 37.4168V61.9168C42.3169 62.3678 42.6826 62.7334 43.1336 62.7334ZM43.9502 38.2334H50.4836V61.1001H43.9502V38.2334Z" fill="white"/>
<path d="M31.7 62.7334H39.8666C40.3176 62.7334 40.6833 62.3677 40.6833 61.9167V27.6167C40.6833 27.1657 40.3176 26.8 39.8666 26.8H31.7C31.249 26.8 30.8833 27.1657 30.8833 27.6167V61.9167C30.8833 62.3677 31.249 62.7334 31.7 62.7334ZM32.5166 28.4334H39.05V61.1H32.5166V28.4334Z" fill="white"/>
<path d="M54.5667 62.7333H62.7333C63.1843 62.7333 63.55 62.3677 63.55 61.9167V17.8167C63.55 17.3657 63.1843 17 62.7333 17H54.5667C54.1157 17 53.75 17.3657 53.75 17.8167V61.9167C53.75 62.3677 54.1157 62.7333 54.5667 62.7333ZM55.3833 18.6333H61.9167V61.1H55.3833V18.6333Z" fill="white"/>
</svg>
