<svg width="41" height="41" viewBox="0 0 41 41" fill="none" xmlns="http://www.w3.org/2000/svg">
<circle cx="20.5" cy="20.5" r="20" fill="white" stroke="#0066B3"/>
<path d="M24.265 25.614H17.713C18.055 24.174 19.387 23.454 20.557 22.752C22.429 21.618 24.373 20.43 24.373 17.946C24.373 15.696 22.807 14.238 20.395 14.238C17.929 14.238 16.291 15.912 16.291 18.432V18.774H17.839C17.875 17.19 18.415 15.57 20.323 15.57C21.781 15.57 22.789 16.56 22.789 17.982C22.789 19.836 21.115 20.772 19.747 21.636C17.533 23.022 16.111 24.066 15.949 27H24.265V25.614Z" fill="#0066B3"/>
</svg>
