<svg width="41" height="41" viewBox="0 0 41 41" fill="none" xmlns="http://www.w3.org/2000/svg">
<circle cx="20.5" cy="20.5" r="20" fill="white" stroke="#0066B3"/>
<path d="M16.327 18.378H17.821C17.875 16.578 18.775 15.57 20.305 15.57C21.637 15.57 22.519 16.398 22.519 17.658C22.519 18.954 21.529 19.764 19.945 19.764C19.765 19.764 19.675 19.764 19.423 19.746V21.042C19.801 20.988 19.945 20.97 20.251 20.97C21.979 20.97 23.077 21.924 23.077 23.418C23.077 24.894 21.943 25.902 20.323 25.902C18.631 25.902 17.623 24.876 17.551 23.058H16.039V23.292C16.039 25.722 17.731 27.252 20.305 27.252C22.915 27.252 24.733 25.686 24.715 23.31C24.715 21.762 23.815 20.574 22.375 20.232C23.473 19.764 24.121 18.774 24.121 17.568C24.121 15.57 22.627 14.238 20.377 14.238C17.857 14.238 16.399 15.732 16.327 18.378Z" fill="#0066B3"/>
</svg>
