<svg width="84" height="84" viewBox="0 0 84 84" fill="none" xmlns="http://www.w3.org/2000/svg">
<path d="M83.3654 42.0001C83.3654 19.1602 64.8397 0.634521 41.9998 0.634521C19.16 0.634521 0.634277 19.1602 0.634277 42.0001C0.634277 64.84 19.16 83.3656 41.9998 83.3656C64.8397 83.3656 83.3654 64.84 83.3654 42.0001Z" fill="#0066B3" stroke="white" stroke-width="0.9888" stroke-miterlimit="10"/>
<path d="M33.3816 53.7949C28.663 53.7912 24.0915 52.1517 20.4461 49.1555C16.8006 46.1594 14.3068 41.992 13.3893 37.3634C12.4718 32.7347 13.1875 27.9312 15.4145 23.771C17.6415 19.6109 21.2419 16.3515 25.6024 14.5482C29.9629 12.745 34.8138 12.5093 39.3286 13.8814C43.8434 15.2535 47.7428 18.1484 50.3626 22.0731C52.9823 25.9977 54.1603 30.7093 53.6959 35.4051C53.2314 40.1009 51.1533 44.4904 47.8155 47.8258C45.9213 49.7224 43.6711 51.2261 41.1941 52.2504C38.7171 53.2748 36.0621 53.7997 33.3816 53.7949ZM33.3816 14.5587C29.0263 14.5621 24.8069 16.0754 21.4421 18.8409C18.0774 21.6063 15.7756 25.4528 14.9287 29.725C14.0819 33.9972 14.7425 38.4309 16.7979 42.2707C18.8533 46.1105 22.1765 49.1189 26.2012 50.7835C30.2259 52.448 34.7032 52.6656 38.8704 51.3992C43.0376 50.1329 46.6368 47.4609 49.055 43.8386C51.4731 40.2162 52.5605 35.8675 52.132 31.5333C51.7035 27.199 49.7855 23.1475 46.7048 20.0688C44.9562 18.3181 42.879 16.9302 40.5925 15.9846C38.306 15.039 35.8552 14.5544 33.3809 14.5587H33.3816Z" fill="white"/>
<path d="M61.7966 68.0001C61.718 68.0001 61.6339 68.0001 61.5521 67.9954C60.6959 67.9602 59.8561 67.7488 59.0852 67.3745C58.3143 67.0001 57.6289 66.4708 57.0718 65.8196L46.6962 53.604C46.6244 53.5195 46.5713 53.4207 46.5404 53.3143C46.5095 53.2078 46.5015 53.096 46.5169 52.9862C46.5322 52.8764 46.5706 52.7711 46.6296 52.6772C46.6885 52.5833 46.7667 52.503 46.8589 52.4414C46.9197 52.3984 46.9765 52.35 47.0287 52.2968L52.2872 47.0383C52.3378 46.9902 52.3839 46.9376 52.4247 46.8811C52.4855 46.7872 52.5656 46.7073 52.6596 46.6468C52.7537 46.5864 52.8596 46.5467 52.9702 46.5304C53.0808 46.5141 53.1937 46.5216 53.3012 46.5524C53.4087 46.5831 53.5083 46.6365 53.5936 46.7089L65.8092 57.0845C66.4602 57.6402 66.9892 58.3246 67.3631 59.0945C67.7371 59.8645 67.9477 60.7034 67.982 61.5586C68.0162 62.4139 67.8733 63.267 67.5622 64.0644C67.251 64.8617 66.7784 65.5862 66.174 66.1922C65.0113 67.35 63.4374 68.0001 61.7966 68.0001ZM48.3853 53.1638L58.2681 64.8009C58.6827 65.2863 59.1931 65.6807 59.7673 65.9597C60.3414 66.2387 60.967 66.3961 61.6048 66.4222C62.2426 66.4482 62.8789 66.3423 63.4739 66.1111C64.0688 65.8799 64.6097 65.5283 65.0625 65.0784C65.5138 64.6258 65.8667 64.0848 66.099 63.4893C66.3313 62.8938 66.438 62.2567 66.4124 61.6181C66.3868 60.9794 66.2294 60.3529 65.9502 59.7779C65.671 59.203 65.2759 58.6919 64.7898 58.2769L53.1565 48.3949L48.3853 53.1638Z" fill="white"/>
<path d="M46.038 54.2846C45.6459 54.2845 45.2577 54.2069 44.8956 54.0564C44.5336 53.9059 44.2048 53.6853 43.9283 53.4074L42.1086 51.5877C42.0335 51.5152 41.9737 51.4285 41.9325 51.3326C41.8913 51.2367 41.8696 51.1335 41.8687 51.0292C41.8678 50.9248 41.8877 50.8213 41.9272 50.7247C41.9667 50.6281 42.0251 50.5403 42.0989 50.4665C42.1727 50.3927 42.2604 50.3344 42.357 50.2948C42.4536 50.2553 42.5571 50.2354 42.6615 50.2363C42.7659 50.2373 42.869 50.2589 42.9649 50.3001C43.0608 50.3413 43.1476 50.4012 43.2201 50.4763L45.0374 52.2959C45.2705 52.5307 45.5793 52.6754 45.909 52.7041C46.2386 52.7329 46.5678 52.644 46.8382 52.4531C46.9039 52.4059 46.9657 52.3533 47.0229 52.2959L52.2838 47.0358C52.3396 46.9817 52.3907 46.9228 52.4363 46.8598C52.6295 46.5893 52.7202 46.259 52.6923 45.9278C52.6643 45.5966 52.5195 45.2862 52.2838 45.0519L50.4641 43.2322C50.3209 43.084 50.2417 42.8854 50.2435 42.6793C50.2453 42.4733 50.3279 42.2761 50.4737 42.1304C50.6194 41.9846 50.8166 41.902 51.0227 41.9002C51.2288 41.8984 51.4273 41.9776 51.5755 42.1208L53.3952 43.9404C53.8933 44.435 54.1999 45.0902 54.2605 45.7895C54.3211 46.4888 54.1317 47.1869 53.7261 47.7598C53.6279 47.9005 53.5171 48.032 53.3952 48.1528L48.1343 53.4129C47.8603 53.6912 47.5336 53.9121 47.1733 54.0628C46.8129 54.2134 46.4262 54.2907 46.0356 54.2901L46.038 54.2846Z" fill="white"/>
<path d="M30.0621 39.2786C29.9588 39.2788 29.8565 39.2586 29.7611 39.2191C29.6657 39.1796 29.5791 39.1215 29.5063 39.0483L26.2553 35.798C26.1121 35.6498 26.0329 35.4512 26.0347 35.2451C26.0365 35.039 26.1192 34.8419 26.2649 34.6962C26.4106 34.5504 26.6078 34.4678 26.8139 34.466C27.02 34.4642 27.2185 34.5434 27.3668 34.6866L30.0621 37.3811L39.4024 28.0407C39.5507 27.8975 39.7492 27.8183 39.9553 27.8201C40.1614 27.8219 40.3586 27.9046 40.5043 28.0503C40.65 28.196 40.7327 28.3932 40.7345 28.5993C40.7363 28.8054 40.6571 29.0039 40.5139 29.1522L30.6178 39.0483C30.4704 39.1957 30.2705 39.2785 30.0621 39.2786Z" fill="white"/>
<path d="M33.3809 48.9357C29.7847 48.9334 26.3006 47.6843 23.5221 45.4012C20.7436 43.1182 18.8426 39.9423 18.1431 36.4148C17.4436 32.8873 17.9888 29.2264 19.6858 26.0558C21.3828 22.8852 24.1267 20.4011 27.4499 19.0267C30.773 17.6523 34.4699 17.4727 37.9107 18.5184C41.3515 19.5641 44.3233 21.7704 46.3198 24.7615C48.3162 27.7526 49.2138 31.3434 48.8597 34.9221C48.5055 38.5008 46.9215 41.846 44.3774 44.3877C42.9343 45.8326 41.22 46.9782 39.3329 47.7587C37.4457 48.5392 35.423 48.9392 33.3809 48.9357ZM33.3809 19.4187C30.1482 19.421 27.0163 20.5441 24.5188 22.5966C22.0213 24.6491 20.3127 27.504 19.6842 30.675C19.0556 33.846 19.546 37.1368 21.0717 39.9868C22.5974 42.8368 25.0641 45.0696 28.0514 46.3049C31.0388 47.5401 34.3621 47.7013 37.455 46.7611C40.5479 45.8208 43.2191 43.8373 45.0135 41.1483C46.808 38.4594 47.6146 35.2315 47.2959 32.0146C46.9773 28.7976 45.5531 25.7907 43.266 23.5061C41.9688 22.2072 40.4277 21.1774 38.7313 20.4759C37.0349 19.7745 35.2166 19.4152 33.3809 19.4187Z" fill="white"/>
</svg>
