<svg width="78" height="78" viewBox="0 0 78 78" fill="none" xmlns="http://www.w3.org/2000/svg">
<g clip-path="url(#clip0)">
<path d="M77.4277 52.676L71.8117 34.424C71.2397 32.604 69.5757 31.356 67.6517 31.356H54.1317C53.4557 31.356 52.9877 31.876 52.9877 32.5V57.772H45.9677C45.9677 54.288 45.9677 50.804 45.9677 47.32C46.4877 47.164 46.9037 46.956 46.8517 46.28C46.6437 45.24 45.7597 45.604 45.0317 45.5C45.1877 45.188 45.2397 44.824 45.4477 44.616C46.8517 43.16 48.3077 41.756 49.7117 40.352C49.8677 40.196 50.1277 40.04 50.3877 40.04C50.9077 39.988 51.3237 39.832 51.4277 39.26C51.4797 38.688 51.1157 38.376 50.5437 38.324C50.5437 37.544 50.5437 36.712 50.5437 35.828C50.5437 34.528 49.8677 33.8 48.5677 33.852C47.6837 33.904 47.1117 33.54 46.5397 32.968C36.6077 23.452 26.8837 13.676 17.0557 3.90001C16.2757 3.12001 15.3917 2.75601 14.1957 2.75601C9.98374 2.75601 5.77174 2.75601 1.55973 2.75601C0.103734 2.75601 -0.572266 3.43201 -0.572266 4.88801C-0.572266 5.56401 -0.572266 6.18801 -0.572266 6.91601C-0.572266 7.80001 -0.260266 8.06001 0.571735 8.06001C0.779734 8.06001 0.935735 8.06001 1.24773 8.06001C1.24773 8.37201 1.24773 8.58001 1.24773 8.73601C1.24773 12.896 1.24773 17.004 1.24773 21.164C1.24773 22.412 1.66373 23.348 2.75573 23.92C2.91173 23.972 2.96373 24.232 2.96373 24.336C2.96373 24.908 2.96373 25.48 2.96373 26.156C2.07973 26.572 1.45573 27.196 1.19573 28.184C0.883735 29.588 1.92373 31.044 3.32773 31.252C4.83573 31.46 6.29173 30.472 6.44773 29.016C6.49973 28.34 6.29174 27.976 5.77174 27.924C5.25174 27.872 4.88774 28.132 4.73174 28.808C4.57574 29.484 4.21173 29.744 3.69173 29.692C3.17173 29.64 2.96373 29.328 2.80773 28.912C2.75573 28.392 3.11973 28.028 3.69173 27.872C4.52373 27.664 4.67974 27.456 4.67974 26.728C4.67974 26 4.67974 25.272 4.67974 24.492C4.67974 24.336 4.83574 24.076 4.99173 23.972C6.03174 23.4 6.49973 22.568 6.44773 21.424C6.44773 17.212 6.44773 13.052 6.44773 8.84001C6.44773 8.63201 6.44773 8.42401 6.44773 8.11201C7.53973 8.11201 8.57973 8.11201 9.56773 8.11201C9.72373 8.11201 9.93174 8.42401 10.0877 8.52801C13.5717 12.792 17.1597 17.056 20.6437 21.32C25.0637 26.676 29.5357 32.084 33.9557 37.544C34.1637 37.752 34.3197 38.22 34.3197 38.48C34.3197 40.664 34.3197 42.9 34.3197 45.084C34.3197 45.292 34.3197 45.448 34.3197 45.76C34.0077 45.76 33.7477 45.76 33.5397 45.76C33.0197 45.76 32.6557 45.916 32.6037 46.436C32.5517 46.956 32.7597 47.32 33.2797 47.476C33.3317 47.476 33.3317 47.528 33.4357 47.528C33.4357 51.012 33.4357 54.496 33.4357 57.98H8.37174C7.79974 57.98 7.27974 58.5 7.27974 59.072C7.27974 59.228 7.27974 59.384 7.33174 59.436H7.27974V67.288C7.27974 67.964 7.79974 68.432 8.42374 68.432H14.2997C14.5077 71.916 17.4197 74.776 21.0077 74.776C24.5957 74.776 27.4557 72.02 27.7157 68.432H30.1077C30.3157 71.916 33.2277 74.776 36.8157 74.776C40.4037 74.776 43.2637 72.02 43.5237 68.432H57.7197C57.9277 71.916 60.8397 74.776 64.4277 74.776C67.9637 74.776 70.8757 72.02 71.1357 68.432H76.2837C76.9597 68.432 77.4277 67.912 77.4277 67.288V53.04C77.4277 52.884 77.4277 52.832 77.4277 52.676ZM45.0837 42.38C45.0837 41.808 45.0837 40.976 45.0837 40.196C45.7597 40.196 46.3837 40.196 47.0597 40.196C47.1117 40.196 47.2677 40.196 47.2157 40.196C46.4877 40.976 45.7597 41.704 45.0837 42.38ZM45.0317 35.724C46.2797 35.724 47.4237 35.724 48.6717 35.724C48.6717 36.66 48.6717 37.544 48.6717 38.48C47.4237 38.48 46.2797 38.48 45.0317 38.48C45.0317 37.544 45.0317 36.712 45.0317 35.724ZM74.4637 51.168L63.3357 47.476V40.04H71.0317L74.4637 51.168ZM19.3957 8.58001C27.6637 16.952 36.0357 25.22 44.3037 33.488C44.4597 33.644 44.6677 33.696 44.8237 33.852C44.7717 33.904 44.7717 34.008 44.6677 34.06C44.2517 34.008 43.8877 34.268 43.4197 33.852C34.9437 25.376 26.5197 16.848 17.9917 8.42401C17.9397 8.37201 17.8357 8.21601 17.6797 8.06001C18.4077 7.90401 18.8757 8.06001 19.3957 8.58001ZM3.95173 22.36C3.43173 22.36 3.01573 21.996 2.91173 21.424C2.91173 20.904 3.32773 20.488 3.79573 20.488C4.31573 20.488 4.73174 20.904 4.73174 21.424C4.83574 21.996 4.47173 22.36 3.95173 22.36ZM3.01573 18.876C3.01573 15.236 3.01573 11.596 3.01573 7.95601C3.69173 7.95601 4.26373 7.95601 4.83574 7.95601C4.83574 11.596 4.83574 15.236 4.83574 18.876C4.15974 18.876 3.58773 18.876 3.01573 18.876ZM1.19573 6.29201C1.19573 5.61601 1.19573 5.04401 1.19573 4.47201C1.24773 4.47201 1.35173 4.42001 1.40373 4.42001C5.82373 4.42001 10.1917 4.42001 14.6117 4.42001C14.9237 4.42001 15.2877 4.57601 15.4957 4.78401C16.0157 5.20001 16.5357 5.72001 17.1077 6.29201C11.7517 6.29201 6.44774 6.29201 1.19573 6.29201ZM13.9877 10.452C13.3117 9.67201 12.6877 8.84001 11.9597 7.95601C12.9997 7.95601 13.8317 7.95601 14.7157 7.95601C15.0277 7.95601 15.2877 8.11201 15.4957 8.26801C24.6477 17.524 33.7997 26.676 42.9517 35.828C43.1597 36.036 43.3157 36.348 43.3157 36.608C43.3157 39.468 43.3157 42.276 43.3157 45.136C43.3157 45.292 43.3157 45.5 43.3157 45.656C40.9237 45.656 38.5317 45.656 36.0357 45.656C36.0357 45.448 36.0357 45.24 36.0357 44.98C36.0357 42.64 36.0357 40.404 36.0357 38.064C36.0357 37.492 35.8797 37.024 35.5157 36.66C28.3917 27.924 21.1637 19.188 13.9877 10.452ZM35.2037 47.372C38.1677 47.372 41.1837 47.372 44.1997 47.372C44.1997 50.908 44.1997 54.34 44.1997 57.824H35.2037C35.2037 54.34 35.2037 50.96 35.2037 47.372ZM9.72374 60.112H53.0397V66.04H43.2637C42.3797 63.284 39.8317 61.308 36.8677 61.308C33.9037 61.308 31.2517 63.284 30.4717 66.04H27.5597C26.6757 63.284 24.1277 61.308 21.1637 61.308C18.1997 61.308 15.5997 63.284 14.7677 66.04H9.77573V60.06H9.72374V60.112ZM21.1117 72.332C18.7197 72.332 16.8477 70.356 16.8477 68.068C16.8477 65.728 18.8237 63.804 21.1117 63.804C23.3997 63.804 25.3757 65.78 25.3757 68.068C25.4277 70.356 23.5037 72.332 21.1117 72.332ZM36.8677 72.332C34.4757 72.332 32.6037 70.356 32.6037 68.068C32.6037 65.728 34.5797 63.804 36.8677 63.804C39.1557 63.804 41.1317 65.78 41.1317 68.068C41.1837 70.356 39.3117 72.332 36.8677 72.332ZM64.4277 72.332C62.0357 72.332 60.1637 70.356 60.1637 68.068C60.1637 65.728 62.1397 63.804 64.4277 63.804C66.7677 63.804 68.6917 65.78 68.6917 68.068C68.7437 70.356 66.8197 72.332 64.4277 72.332ZM70.8237 66.04C69.9397 63.284 67.3917 61.308 64.4277 61.308C61.4637 61.308 58.8117 63.284 58.0317 66.04H55.4317V33.8H67.6517C68.5357 33.8 69.2637 34.372 69.5237 35.204L70.3037 37.752H62.0877C61.4117 37.752 60.9437 38.272 60.9437 38.896V48.36C60.9437 48.88 61.3077 49.296 61.7237 49.504L75.0877 53.924V56.628H71.5517V59.02H75.0877V66.04C75.1397 66.04 70.8237 66.04 70.8237 66.04Z" fill="#0066B3"/>
<path d="M21.1115 65.312C19.6035 65.312 18.3555 66.56 18.3555 68.068C18.3555 69.576 19.6035 70.824 21.1115 70.824C22.6195 70.824 23.8675 69.576 23.8675 68.068C23.8675 66.56 22.6195 65.312 21.1115 65.312ZM21.1115 69.42C20.3835 69.42 19.8115 68.848 19.8115 68.12C19.8115 67.392 20.3835 66.82 21.1115 66.82C21.8395 66.82 22.4115 67.392 22.4115 68.12C22.4115 68.848 21.8395 69.42 21.1115 69.42Z" fill="#0066B3"/>
<path d="M36.8673 65.312C35.3593 65.312 34.1113 66.56 34.1113 68.068C34.1113 69.576 35.3593 70.824 36.8673 70.824C38.3753 70.824 39.6233 69.576 39.6233 68.068C39.6233 66.56 38.4273 65.312 36.8673 65.312ZM36.8673 69.42C36.1393 69.42 35.5673 68.848 35.5673 68.12C35.5673 67.392 36.1393 66.82 36.8673 66.82C37.5953 66.82 38.1673 67.392 38.1673 68.12C38.1673 68.848 37.5953 69.42 36.8673 69.42Z" fill="#0066B3"/>
<path d="M64.4279 65.312C62.9199 65.312 61.6719 66.56 61.6719 68.068C61.6719 69.576 62.9199 70.824 64.4279 70.824C65.9359 70.824 67.1839 69.576 67.1839 68.068C67.1839 66.56 65.9879 65.312 64.4279 65.312ZM64.4279 69.42C63.6999 69.42 63.1279 68.848 63.1279 68.12C63.1279 67.392 63.6999 66.82 64.4279 66.82C65.1559 66.82 65.7279 67.392 65.7279 68.12C65.7279 68.848 65.1559 69.42 64.4279 69.42Z" fill="#0066B3"/>
</g>
<defs>
<clipPath id="clip0">
<rect width="78" height="78" fill="white"/>
</clipPath>
</defs>
</svg>
