<svg width="84" height="84" viewBox="0 0 84 84" fill="none" xmlns="http://www.w3.org/2000/svg">
<path d="M83.3659 42C83.3659 19.1601 64.8402 0.63446 42.0003 0.63446C19.1604 0.63446 0.634766 19.1601 0.634766 42C0.634766 64.8399 19.1604 83.3656 42.0003 83.3656C64.8402 83.3656 83.3659 64.8399 83.3659 42Z" fill="#0066B3" stroke="white" stroke-width="0.9888" stroke-miterlimit="10"/>
<path d="M71.6392 34.6284H11.3604C11.1557 34.6284 10.9595 34.5471 10.8148 34.4024C10.6701 34.2577 10.5889 34.0615 10.5889 33.8569C10.5889 33.6523 10.6701 33.456 10.8148 33.3114C10.9595 33.1667 11.1557 33.0854 11.3604 33.0854H71.6392C71.8438 33.0854 72.04 33.1667 72.1847 33.3114C72.3294 33.456 72.4107 33.6523 72.4107 33.8569C72.4107 34.0615 72.3294 34.2577 72.1847 34.4024C72.04 34.5471 71.8438 34.6284 71.6392 34.6284Z" fill="white"/>
<path d="M26.0664 47.5208C25.3701 47.5206 24.6895 47.3139 24.1107 46.9269C23.5319 46.5398 23.0808 45.9899 22.8145 45.3465C22.5482 44.7032 22.4787 43.9953 22.6147 43.3124C22.7507 42.6296 23.0861 42.0023 23.5785 41.5101C24.0709 41.0178 24.6983 40.6826 25.3812 40.5469C26.0641 40.4111 26.772 40.4809 27.4152 40.7474C28.0585 41.0139 28.6083 41.4652 28.9951 42.0442C29.3819 42.6231 29.5884 43.3038 29.5884 44.0001C29.5873 44.9337 29.2159 45.8288 28.5555 46.4889C27.8952 47.1489 27 47.5201 26.0664 47.5208ZM26.0664 42.0226C25.6752 42.0225 25.2928 42.1385 24.9675 42.3558C24.6422 42.5731 24.3886 42.882 24.2389 43.2434C24.0892 43.6048 24.05 44.0025 24.1263 44.3861C24.2026 44.7698 24.391 45.1222 24.6676 45.3989C24.9442 45.6755 25.2966 45.8639 25.6803 45.9402C26.064 46.0165 26.4617 45.9773 26.8231 45.8275C27.1845 45.6778 27.4934 45.4243 27.7107 45.099C27.928 44.7737 28.0439 44.3912 28.0438 44.0001C28.0433 43.4758 27.8348 42.9731 27.464 42.6024C27.0933 42.2317 26.5907 42.0232 26.0664 42.0226Z" fill="white"/>
<path d="M30.8469 55.6187H21.2852C21.0805 55.6187 20.8843 55.5374 20.7396 55.3927C20.595 55.248 20.5137 55.0518 20.5137 54.8472V50.6966C20.5137 49.3752 21.7567 48.3007 23.2845 48.3007H28.8476C30.3754 48.3007 31.6181 49.3752 31.6181 50.6966V54.8472C31.6181 55.0517 31.5369 55.2479 31.3923 55.3926C31.2476 55.5373 31.0515 55.6186 30.8469 55.6187ZM22.0566 54.0757H30.0755V50.6966C30.0755 50.2337 29.5135 49.8436 28.8479 49.8436H23.2845C22.6189 49.8436 22.0566 50.234 22.0566 50.6966V54.0757Z" fill="white"/>
<path d="M71.6392 22.5784H11.3604C11.1557 22.5784 10.9595 22.6597 10.8148 22.8044C10.6701 22.9491 10.5889 23.1453 10.5889 23.3499V61.6501C10.5889 61.7514 10.6088 61.8517 10.6476 61.9453C10.6864 62.0389 10.7432 62.124 10.8148 62.1956C10.8865 62.2673 10.9715 62.3241 11.0651 62.3629C11.1587 62.4016 11.259 62.4216 11.3604 62.4216H71.6392C71.7405 62.4216 71.8408 62.4016 71.9344 62.3629C72.028 62.3241 72.1131 62.2673 72.1847 62.1956C72.2564 62.124 72.3132 62.0389 72.352 61.9453C72.3907 61.8517 72.4107 61.7514 72.4107 61.6501V23.3499C72.4107 23.1453 72.3294 22.9491 72.1847 22.8044C72.04 22.6597 71.8438 22.5784 71.6392 22.5784ZM70.8677 60.8786H12.1318V24.1214H70.8677V60.8786Z" fill="white"/>
<path d="M42.1826 39.5684H54.0243C54.2289 39.5684 54.4251 39.4871 54.5698 39.3424C54.7145 39.1977 54.7958 39.0015 54.7958 38.7969C54.7958 38.5923 54.7145 38.396 54.5698 38.2514C54.4251 38.1067 54.2289 38.0254 54.0243 38.0254H42.1826C41.978 38.0254 41.7818 38.1067 41.6371 38.2514C41.4924 38.396 41.4111 38.5923 41.4111 38.7969C41.4111 39.0015 41.4924 39.1977 41.6371 39.3424C41.7818 39.4871 41.978 39.5684 42.1826 39.5684Z" fill="white"/>
<path d="M42.1826 46.8345H51.6287C51.8333 46.8345 52.0295 46.7532 52.1742 46.6085C52.3189 46.4638 52.4002 46.2676 52.4002 46.063C52.4002 45.8584 52.3189 45.6621 52.1742 45.5175C52.0295 45.3728 51.8333 45.2915 51.6287 45.2915H42.1826C41.978 45.2915 41.7818 45.3728 41.6371 45.5175C41.4924 45.6621 41.4111 45.8584 41.4111 46.063C41.4111 46.2676 41.4924 46.4638 41.6371 46.6085C41.7818 46.7532 41.978 46.8345 42.1826 46.8345Z" fill="white"/>
<path d="M42.1826 51.2264H46.016C46.2206 51.2264 46.4168 51.1451 46.5615 51.0004C46.7062 50.8557 46.7875 50.6595 46.7875 50.4549C46.7875 50.2503 46.7062 50.0541 46.5615 49.9094C46.4168 49.7647 46.2206 49.6834 46.016 49.6834H42.1826C41.978 49.6834 41.7818 49.7647 41.6371 49.9094C41.4924 50.0541 41.4111 50.2503 41.4111 50.4549C41.4111 50.6595 41.4924 50.8557 41.6371 51.0004C41.7818 51.1451 41.978 51.2264 42.1826 51.2264Z" fill="white"/>
<path d="M42.1826 55.6187H53.2713C53.4759 55.6187 53.6722 55.5374 53.8168 55.3927C53.9615 55.248 54.0428 55.0518 54.0428 54.8472C54.0428 54.6426 53.9615 54.4463 53.8168 54.3016C53.6722 54.157 53.4759 54.0757 53.2713 54.0757H42.1826C41.978 54.0757 41.7818 54.157 41.6371 54.3016C41.4924 54.4463 41.4111 54.6426 41.4111 54.8472C41.4111 55.0518 41.4924 55.248 41.6371 55.3927C41.7818 55.5374 41.978 55.6187 42.1826 55.6187Z" fill="white"/>
<path d="M54.4844 46.063C54.4844 46.2676 54.5657 46.4638 54.7103 46.6085C54.855 46.7532 55.0512 46.8345 55.2559 46.8345H61.1423C61.3469 46.8345 61.5431 46.7532 61.6878 46.6085C61.8325 46.4638 61.9138 46.2676 61.9138 46.063C61.9138 45.8584 61.8325 45.6621 61.6878 45.5175C61.5431 45.3728 61.3469 45.2915 61.1423 45.2915H55.2559C55.0512 45.2915 54.855 45.3728 54.7103 45.5175C54.5657 45.6621 54.4844 45.8584 54.4844 46.063Z" fill="white"/>
<path d="M59.5187 50.4549C59.5187 50.2503 59.4374 50.0541 59.2927 49.9094C59.1481 49.7647 58.9518 49.6834 58.7472 49.6834H49.5752C49.3706 49.6834 49.1744 49.7647 49.0297 49.9094C48.885 50.0541 48.8037 50.2503 48.8037 50.4549C48.8037 50.6595 48.885 50.8557 49.0297 51.0004C49.1744 51.1451 49.3706 51.2264 49.5752 51.2264H58.7472C58.9518 51.2264 59.1481 51.1451 59.2927 51.0004C59.4374 50.8557 59.5187 50.6595 59.5187 50.4549Z" fill="white"/>
<path d="M59.8414 54.0757H56.3506C56.146 54.0757 55.9497 54.157 55.8051 54.3016C55.6604 54.4463 55.5791 54.6426 55.5791 54.8472C55.5791 55.0518 55.6604 55.248 55.8051 55.3927C55.9497 55.5374 56.146 55.6187 56.3506 55.6187H59.8414C60.046 55.6187 60.2422 55.5374 60.3869 55.3927C60.5316 55.248 60.6129 55.0518 60.6129 54.8472C60.6129 54.6426 60.5316 54.4463 60.3869 54.3016C60.2422 54.157 60.046 54.0757 59.8414 54.0757Z" fill="white"/>
<path d="M33.7006 55.6186H18.4326C18.228 55.6186 18.0318 55.5373 17.8871 55.3927C17.7424 55.248 17.6611 55.0518 17.6611 54.8471V38.7969C17.6611 38.5923 17.7424 38.396 17.8871 38.2514C18.0318 38.1067 18.228 38.0254 18.4326 38.0254H33.7006C33.9052 38.0254 34.1014 38.1067 34.2461 38.2514C34.3908 38.396 34.4721 38.5923 34.4721 38.7969V54.8481C34.4718 55.0525 34.3904 55.2485 34.2458 55.393C34.1011 55.5375 33.9051 55.6186 33.7006 55.6186ZM19.2041 54.0757H32.9291V39.5684H19.2041V54.0757Z" fill="white"/>
<path d="M34.4482 29.4048H21.0713C20.8667 29.4048 20.6704 29.3236 20.5258 29.1789C20.3811 29.0342 20.2998 28.838 20.2998 28.6334C20.2998 28.4288 20.3811 28.2325 20.5258 28.0878C20.6704 27.9432 20.8667 27.8619 21.0713 27.8619H34.4476C34.6522 27.8619 34.8484 27.9432 34.9931 28.0878C35.1378 28.2325 35.2191 28.4288 35.2191 28.6334C35.2191 28.838 35.1378 29.0342 34.9931 29.1789C34.8484 29.3236 34.6522 29.4048 34.4476 29.4048H34.4482Z" fill="white"/>
<path d="M61.9291 29.4048H39.8955C39.6909 29.4048 39.4947 29.3236 39.35 29.1789C39.2053 29.0342 39.124 28.838 39.124 28.6334C39.124 28.4288 39.2053 28.2325 39.35 28.0878C39.4947 27.9432 39.6909 27.8619 39.8955 27.8619H61.9291C62.1337 27.8619 62.3299 27.9432 62.4746 28.0878C62.6193 28.2325 62.7006 28.4288 62.7006 28.6334C62.7006 28.838 62.6193 29.0342 62.4746 29.1789C62.3299 29.3236 62.1337 29.4048 61.9291 29.4048Z" fill="white"/>
</svg>
