<svg width="78" height="78" viewBox="0 0 78 78" fill="none" xmlns="http://www.w3.org/2000/svg">
<path d="M23.4612 34.3375C23.088 33.9269 22.7521 33.591 22.4162 33.2178C21.2966 31.8743 20.6248 30.3068 20.4009 28.5526C20.1023 26.276 20.5875 24.1487 21.8564 22.2453C23.3866 19.9314 25.5512 18.5505 28.2757 18.1026C29.1714 17.9533 30.1045 17.9907 31.0002 18.0653C34.0232 18.3266 36.9343 19.1476 39.808 20.1553C43.3536 21.3869 46.7498 22.8798 50.0715 24.5966C50.4447 24.7832 50.8552 24.9698 51.1911 25.1937C51.8256 25.5669 52.5347 25.9401 53.0945 26.388C54.3261 27.3584 55.0725 28.6646 55.2218 30.2321C55.3711 31.6503 55.0352 32.9566 54.2141 34.1509C54.1768 34.1882 54.1395 34.2255 54.1395 34.3002C54.1395 34.3002 54.1395 34.3375 54.1395 34.3748C54.2141 34.3748 54.2888 34.3748 54.3634 34.3748C56.5654 34.3748 58.7674 34.3748 60.9693 34.3748C62.2756 34.3748 63.2833 34.8973 64.1416 35.8303C65.224 36.9873 65.8211 38.3682 66.269 39.8611C66.6422 41.0553 66.8288 42.2869 66.9034 43.5186C67.0527 45.4966 66.9034 47.4373 66.4183 49.3407C66.0824 50.7216 65.5599 52.0652 64.7015 53.2595C64.1416 54.0432 63.4325 54.715 62.4995 55.0882C62.0516 55.2748 61.6038 55.3495 61.1559 55.3495C60.0736 55.3495 58.954 55.3495 57.8716 55.3495C57.685 55.3495 57.6477 55.3868 57.6477 55.5734C57.6104 56.5437 57.2745 57.4021 56.6774 58.1859C54.8859 60.4998 51.4897 60.6491 49.5116 58.4845C48.7652 57.6634 48.3547 56.693 48.3173 55.5734C48.3173 55.3868 48.2427 55.3495 48.0934 55.3495C42.01 55.3495 35.9639 55.3495 29.8805 55.3495C29.7313 55.3495 29.6566 55.3868 29.6193 55.5734C29.5446 56.693 29.1714 57.6634 28.425 58.4845C27.3427 59.6414 26.0364 60.1639 24.4316 59.9773C22.4162 59.7534 20.8487 58.2979 20.4009 56.3198C20.3262 56.0586 20.3262 55.7973 20.3262 55.5361C20.3262 55.3868 20.2516 55.3495 20.1023 55.3495C19.0573 55.3495 17.975 55.3495 16.93 55.3495C15.8103 55.3495 14.8773 54.9389 14.0936 54.1925C13.0859 53.2595 12.4514 52.0652 11.9662 50.8336C11.4437 49.4527 11.1825 48.0345 11.0332 46.6162C10.9212 45.422 10.9212 44.1903 11.0332 42.9961C11.2198 41.018 11.6677 39.1519 12.638 37.3978C13.1605 36.4648 13.795 35.6064 14.728 35.0093C15.3625 34.5987 16.0716 34.3748 16.8553 34.3748C18.9453 34.3748 21.0727 34.3748 23.1627 34.3748C23.2746 34.3375 23.3493 34.3375 23.4612 34.3375ZM38.987 36.6887C31.7093 36.6887 24.4316 36.6887 17.1539 36.6887C16.4821 36.6887 15.9596 36.95 15.5118 37.3978C14.7653 38.1816 14.3548 39.1519 14.0189 40.1223C13.4591 41.8764 13.2725 43.6678 13.3471 45.4966C13.3844 46.6536 13.5337 47.8105 13.8323 48.9302C14.1309 50.0498 14.5414 51.0948 15.2505 51.9905C15.5491 52.3637 15.885 52.6996 16.3702 52.8862C16.7807 53.0355 16.818 52.9982 16.818 52.5877C16.818 48.1464 16.818 43.7052 16.818 39.2639C16.818 39.0027 16.818 39.0027 17.0793 39.0027C17.6764 39.0027 18.2736 39.0027 18.908 39.0027C19.1693 39.0027 19.1693 39.0027 19.1693 39.2639C19.1693 41.0927 19.1693 42.8841 19.1693 44.7128C19.1693 47.4 19.1693 50.0871 19.1693 52.7743C19.1693 52.9609 19.2066 52.9982 19.3932 52.9982C19.8411 52.9982 20.2889 52.9982 20.7368 52.9982C20.8861 52.9982 20.998 52.9609 21.11 52.8116C22.043 51.4307 23.3493 50.6843 25.0287 50.6843C26.7082 50.6843 27.9771 51.468 28.9102 52.8116C28.9848 52.9609 29.0968 52.9982 29.2461 52.9982C35.74 52.9982 42.2713 52.9982 48.7652 52.9982C48.9145 52.9982 49.0265 52.9609 49.1011 52.8116C49.9595 51.5053 51.1911 50.7589 52.7586 50.6843C54.55 50.6096 55.8936 51.3934 56.9013 52.8489C56.9759 52.9609 57.0506 53.0355 57.1999 52.9982C57.6477 52.9982 58.0956 52.9982 58.5061 52.9982C58.8047 52.9982 58.8047 52.9982 58.8047 52.6996C58.8047 48.2584 58.8047 43.8171 58.8047 39.3759C58.8047 39.3012 58.8047 39.2266 58.8047 39.1893C58.8047 39.0773 58.842 39.04 58.954 39.04C59.6258 39.04 60.2975 39.04 60.9693 39.04C61.0813 39.04 61.1186 39.0773 61.1186 39.1893C61.1186 39.2639 61.1186 39.3386 61.1186 39.3759C61.1186 43.8171 61.1186 48.2211 61.1186 52.6623C61.1186 53.0355 61.1559 53.0355 61.4918 52.9236C61.5665 52.8862 61.6038 52.8862 61.6784 52.8489C62.089 52.6623 62.4249 52.3264 62.7234 51.9532C63.2833 51.2441 63.6192 50.423 63.9177 49.5646C64.5522 47.5493 64.7388 45.4593 64.5522 43.3693C64.4402 42.1003 64.2163 40.8687 63.7684 39.6744C63.5072 38.928 63.134 38.1816 62.6115 37.5471C62.1263 36.95 61.5291 36.6141 60.7081 36.6141C53.505 36.6887 46.2273 36.6887 38.987 36.6887ZM29.6566 34.3375C33.6873 34.3002 36.7104 31.0532 36.673 27.2091C36.5984 23.4769 33.538 20.1926 29.358 20.3419C25.8125 20.4539 22.6775 23.365 22.6775 27.3584C22.6775 31.2025 25.7379 34.3002 29.6566 34.3375ZM37.1582 21.7601C38.5391 23.7382 39.1736 25.9028 38.9123 28.2914C38.6511 30.68 37.6061 32.658 35.8147 34.3002C38.8377 34.3002 41.7861 34.3002 44.8091 34.3002C43.7641 32.8446 43.3909 31.2398 43.8014 29.4857C44.212 27.7316 45.2943 26.5 46.8618 25.6416C43.6895 24.1487 40.4798 22.8051 37.1582 21.7601ZM52.9825 30.8293C52.9825 28.8885 51.415 27.321 49.5116 27.321C47.5709 27.321 46.0034 28.8885 46.0034 30.7919C46.0034 32.7327 47.5709 34.3002 49.5116 34.3002C51.415 34.3375 52.9825 32.77 52.9825 30.8293ZM52.9825 57.6634C54.2888 57.6634 55.2965 56.6557 55.2965 55.3868C55.2965 54.0432 54.2888 53.0355 52.9825 53.0355C51.6763 53.0355 50.6313 54.0432 50.6313 55.3495C50.6313 56.6184 51.6763 57.6634 52.9825 57.6634ZM24.9914 57.6634C26.2977 57.6634 27.3054 56.6557 27.3054 55.3495C27.3054 54.0432 26.2977 53.0355 24.9914 53.0355C23.6852 53.0355 22.6402 54.0432 22.6402 55.3495C22.6775 56.6184 23.6852 57.6634 24.9914 57.6634Z" fill="#0066B3"/>
<path d="M32.5298 26.1641V26.1268C32.5671 26.0895 32.6044 26.0148 32.6791 25.9775C33.2389 25.4177 33.836 24.8205 34.3959 24.2607C34.5078 24.1487 34.5078 24.0741 34.4332 23.9621C34.06 23.4396 33.6121 22.9918 33.0896 22.6186C32.9403 22.5066 32.8657 22.5066 32.7537 22.6559C32.1939 23.2157 31.5968 23.8128 31.0369 24.3727C30.9996 24.41 30.9623 24.4473 30.8503 24.522C30.8503 24.41 30.8503 24.3353 30.8503 24.2607C30.8503 23.4396 30.8503 22.6559 30.8503 21.8348C30.8503 21.6855 30.7757 21.6109 30.6264 21.5736C29.9919 21.4989 29.3575 21.4989 28.7603 21.5736C28.5737 21.6109 28.4991 21.6482 28.5364 21.8348C28.5364 22.6559 28.5364 23.4396 28.5364 24.2607C28.5364 24.3353 28.5364 24.3727 28.5364 24.4846C28.4618 24.41 28.4244 24.3727 28.3498 24.3354C27.79 23.7755 27.1928 23.1784 26.633 22.6186C26.521 22.5066 26.4837 22.5066 26.3717 22.5812C25.8492 22.9545 25.3641 23.4396 24.9909 23.9621C24.8789 24.1114 24.9162 24.1861 25.0282 24.298C25.588 24.8578 26.1478 25.4177 26.745 26.0148C26.7823 26.0521 26.8196 26.1268 26.8942 26.2014C26.7823 26.2014 26.7076 26.2014 26.633 26.2014C25.8492 26.2014 25.0282 26.2014 24.2444 26.2014C24.0951 26.2014 24.0205 26.2387 24.0205 26.388C23.9085 27.0225 23.9085 27.6943 24.0205 28.3287C24.0578 28.478 24.0951 28.5527 24.2817 28.5527C25.1028 28.5527 25.9239 28.5527 26.745 28.5527C26.8196 28.5527 26.8569 28.5527 26.9316 28.5527L26.9689 28.59C26.8569 28.6646 26.7823 28.7393 26.6703 28.8512C26.1478 29.3737 25.588 29.9336 25.0655 30.4561C25.0282 30.4934 24.9909 30.6054 25.0282 30.6427C25.4387 31.2771 25.9612 31.7996 26.633 32.2102C27.3048 31.5384 27.9393 30.8666 28.611 30.1948C28.611 30.1948 28.6484 30.1948 28.6484 30.2321C28.6484 30.3068 28.6484 30.3441 28.6484 30.4187C28.6484 31.2398 28.6484 32.0609 28.6484 32.882C28.6484 33.0313 28.6857 33.1059 28.835 33.1059C29.4694 33.1805 30.1039 33.2179 30.701 33.1059C30.9623 33.0686 30.9623 33.0686 30.9623 32.8073C30.9623 32.0236 30.9623 31.2398 30.9623 30.4561C30.9623 30.3814 30.9623 30.3068 30.9623 30.1948C31.0369 30.2695 31.1116 30.3068 31.1489 30.3814C31.7087 30.9413 32.2685 31.5011 32.8284 32.0609C32.9403 32.1729 33.015 32.1729 33.1643 32.0982C33.6868 31.725 34.1346 31.2771 34.5078 30.7546C34.5825 30.6427 34.5825 30.568 34.4705 30.4561C33.9107 29.8962 33.3135 29.2991 32.7537 28.7393C32.7164 28.702 32.6791 28.6646 32.6044 28.5527C32.7164 28.5527 32.791 28.5527 32.8657 28.5527C33.6868 28.5527 34.5078 28.5527 35.3289 28.5527C35.4782 28.5527 35.5155 28.5154 35.5528 28.3661C35.6648 27.7316 35.6275 27.0598 35.5528 26.4254C35.5155 26.2387 35.4409 26.2014 35.2916 26.2014C34.5078 26.2014 33.6868 26.2014 32.903 26.2014C32.6791 26.1641 32.6044 26.1641 32.5298 26.1641Z" fill="#0066B3"/>
<path d="M32.53 26.1641C32.6046 26.1641 32.6793 26.1641 32.7539 26.1641C33.5377 26.1641 34.3587 26.1641 35.1425 26.1641C35.2918 26.1641 35.3664 26.2014 35.4037 26.388C35.4784 27.0598 35.4784 27.6943 35.4037 28.3287C35.3664 28.478 35.3291 28.5153 35.1798 28.5153C34.3587 28.5153 33.5377 28.5153 32.7166 28.5153C32.642 28.5153 32.6046 28.5153 32.4554 28.5153C32.53 28.59 32.5673 28.6646 32.6046 28.7019C33.1645 29.2618 33.7616 29.8589 34.3214 30.4187C34.4334 30.5307 34.4334 30.6053 34.3587 30.7173C33.9855 31.2398 33.5377 31.6876 33.0152 32.0609C32.8659 32.1728 32.7912 32.1728 32.6793 32.0235C32.1195 31.4637 31.5596 30.9039 30.9998 30.3441C30.9625 30.3068 30.8878 30.2321 30.8132 30.1575C30.8132 30.2694 30.8132 30.3441 30.8132 30.4187C30.8132 31.2025 30.8132 31.9862 30.8132 32.77C30.8132 33.0312 30.8132 33.0312 30.552 33.0685C29.9175 33.1805 29.283 33.1432 28.6859 33.0685C28.5366 33.0312 28.4993 32.9939 28.4993 32.8446C28.4993 32.0235 28.4993 31.2025 28.4993 30.3814C28.4993 30.3068 28.4993 30.2694 28.4993 30.1948C28.4993 30.1948 28.462 30.1948 28.462 30.1575C27.7902 30.8293 27.1557 31.501 26.4839 32.1728C25.8121 31.7623 25.2896 31.2398 24.8791 30.6053C24.8418 30.568 24.8791 30.456 24.9164 30.4187C25.4389 29.8589 25.9987 29.3364 26.5212 28.8139C26.5959 28.7393 26.7078 28.6273 26.8198 28.5526L26.7825 28.5153C26.7078 28.5153 26.6705 28.5153 26.5959 28.5153C25.7748 28.5153 24.9537 28.5153 24.1327 28.5153C23.9834 28.5153 23.9087 28.478 23.8714 28.2914C23.7968 27.6569 23.7968 26.9851 23.8714 26.3507C23.9087 26.2014 23.9461 26.1641 24.0953 26.1641C24.8791 26.1641 25.7002 26.1641 26.4839 26.1641C26.5586 26.1641 26.6332 26.1641 26.7452 26.1641C26.6705 26.0894 26.6332 26.0148 26.5959 25.9775C26.0361 25.4176 25.4762 24.8578 24.8791 24.2607C24.7671 24.1487 24.7298 24.0741 24.8418 23.9248C25.2523 23.4023 25.7002 22.9171 26.2227 22.5439C26.3346 22.4692 26.4093 22.4692 26.4839 22.5812C27.0437 23.1784 27.6409 23.7382 28.2007 24.298C28.238 24.3353 28.3127 24.3726 28.3873 24.4473C28.3873 24.3353 28.3873 24.2607 28.3873 24.2234C28.3873 23.4023 28.3873 22.6185 28.3873 21.7975C28.3873 21.6108 28.462 21.5362 28.6112 21.5362C29.2457 21.4616 29.8802 21.4616 30.4773 21.5362C30.6266 21.5735 30.7012 21.6108 30.7012 21.7975C30.7012 22.6185 30.7012 23.4023 30.7012 24.2234C30.7012 24.298 30.7012 24.3726 30.7012 24.4846C30.7759 24.41 30.8505 24.3726 30.8878 24.3353C31.4477 23.7755 32.0448 23.1784 32.6046 22.6185C32.7166 22.5066 32.7912 22.5066 32.9405 22.5812C33.463 22.9544 33.9109 23.4023 34.2841 23.9248C34.3587 24.0367 34.3587 24.1114 34.2468 24.2234C33.687 24.7832 33.0898 25.3803 32.53 25.9401C32.4927 25.9775 32.4554 26.0148 32.3807 26.0894C32.53 26.1267 32.53 26.1641 32.53 26.1641Z" fill="#0066B3"/>
<path d="M49.4746 29.6723C50.109 29.6723 50.6315 30.1948 50.6315 30.8293C50.6315 31.4637 50.109 31.9862 49.4746 31.9862C48.8028 31.9862 48.2803 31.5011 48.2803 30.8293C48.3176 30.1948 48.8401 29.6723 49.4746 29.6723Z" fill="#0066B3"/>
</svg>
