<svg width="84" height="84" viewBox="0 0 84 84" fill="none" xmlns="http://www.w3.org/2000/svg">
<path d="M83.3654 41.9998C83.3654 19.16 64.8397 0.634277 41.9998 0.634277C19.16 0.634277 0.634277 19.16 0.634277 41.9998C0.634277 64.8397 19.16 83.3654 41.9998 83.3654C64.8397 83.3654 83.3654 64.8397 83.3654 41.9998Z" fill="#0066B3" stroke="white" stroke-miterlimit="10"/>
<path d="M22.7132 51.7702C22.7132 48.8517 20.3023 46.314 17.257 46.314C14.3385 46.314 11.8008 48.7248 11.8008 51.7702C11.8008 54.6886 14.2117 57.2263 17.257 57.2263C20.3023 57.2263 22.7132 54.8155 22.7132 51.7702Z" stroke="white" stroke-miterlimit="10"/>
<path d="M19.4138 51.7704C19.4138 50.6284 18.5256 49.6133 17.2567 49.6133C16.1147 49.6133 15.0996 50.5015 15.0996 51.7704C15.0996 52.9124 15.9878 53.9275 17.2567 53.9275C18.5256 53.9275 19.4138 52.9124 19.4138 51.7704Z" stroke="white" stroke-miterlimit="10"/>
<path d="M54.3083 51.7704C54.3083 50.6284 53.4201 49.6133 52.1512 49.6133C51.0092 49.6133 49.9941 50.5015 49.9941 51.7704C49.9941 52.9124 50.8824 53.9275 52.1512 53.9275C53.4201 53.9275 54.3083 52.9124 54.3083 51.7704Z" stroke="white" stroke-miterlimit="10"/>
<path d="M57.6072 51.7702C57.6072 48.8517 55.1963 46.314 52.151 46.314C49.2326 46.314 46.6948 48.7248 46.6948 51.7702C46.6948 54.6886 49.1057 57.2263 52.151 57.2263C55.1963 57.2263 57.6072 54.8155 57.6072 51.7702Z" stroke="white" stroke-miterlimit="10"/>
<path d="M24.6162 51.77H45.0452" stroke="white" stroke-miterlimit="10"/>
<path d="M64.0787 46.4409L62.683 51.7702H59.5107" stroke="white" stroke-miterlimit="10"/>
<path d="M10.0242 51.7701H5.96381L3.93359 43.7762L22.4593 39.9695L30.3263 30.9604H60.0182L62.0484 33.8789" stroke="white" stroke-miterlimit="10"/>
<path d="M25.7583 40.2231L31.9758 33.498H58.6224L60.7795 40.2231H25.7583Z" stroke="white" stroke-miterlimit="10"/>
<path d="M42.5078 41.3652V50.3743" stroke="white" stroke-miterlimit="10"/>
<path d="M42.5078 34.5132V39.5887" stroke="white" stroke-miterlimit="10"/>
<path d="M25.7583 41.3652V50.3743" stroke="white" stroke-miterlimit="10"/>
<path d="M64.4595 39.7158H80.0667" stroke="white" stroke-miterlimit="10"/>
<path d="M62.9365 44.0298H72.9607" stroke="white" stroke-miterlimit="10"/>
<path d="M62.9365 35.5283H75.4985" stroke="white" stroke-miterlimit="10"/>
<path d="M41.2391 26.6465H34.2603V29.0574H41.2391V26.6465Z" stroke="white" stroke-miterlimit="10"/>
<path d="M37.686 20.8096V24.1087" stroke="white" stroke-miterlimit="10"/>
<path d="M32.103 22.3325L34.387 24.6165" stroke="white" stroke-miterlimit="10"/>
<path d="M43.3962 22.3325L40.9854 24.6165" stroke="white" stroke-miterlimit="10"/>
</svg>
