<svg width="84" height="84" viewBox="0 0 84 84" fill="none" xmlns="http://www.w3.org/2000/svg">
<g clip-path="url(#clip0)">
<path d="M47.3684 83.0182C70.0221 80.0552 85.9845 59.2887 83.0214 36.635C80.0583 13.9814 59.2919 -1.98102 36.6382 0.982055C13.9845 3.94512 -1.97784 24.7116 0.98523 47.3653C3.9483 70.0189 24.7148 85.9813 47.3684 83.0182Z" fill="#0066B3" stroke="white" stroke-miterlimit="10"/>
<path d="M47.2023 71.8188H34.1328V74.4835H47.2023V71.8188Z" stroke="white" stroke-miterlimit="10"/>
<path d="M38.4463 70.0426L43.0143 65.4746" stroke="white" stroke-miterlimit="10"/>
<path d="M38.4463 60.272L43.0143 64.84" stroke="white" stroke-miterlimit="10"/>
<path d="M38.4463 59.5108L43.0143 54.9429" stroke="white" stroke-miterlimit="10"/>
<path d="M38.4463 49.7402L43.0143 54.3082" stroke="white" stroke-miterlimit="10"/>
<path d="M38.4463 48.9791L43.0143 44.4111" stroke="white" stroke-miterlimit="10"/>
<path d="M38.4463 39.2085L43.0143 43.7765" stroke="white" stroke-miterlimit="10"/>
<path d="M38.4463 38.4474L43.0143 33.8794" stroke="white" stroke-miterlimit="10"/>
<path d="M38.4463 28.6768L43.0143 33.3716" stroke="white" stroke-miterlimit="10"/>
<path d="M49.7389 24.6163L45.1709 19.9214" stroke="white" stroke-miterlimit="10"/>
<path d="M39.9688 24.6163L44.5367 20.0483" stroke="white" stroke-miterlimit="10"/>
<path d="M39.3345 24.6163L34.6396 19.9214" stroke="white" stroke-miterlimit="10"/>
<path d="M29.4375 24.6163L34.1324 20.0483" stroke="white" stroke-miterlimit="10"/>
<path d="M37.5586 26.7734V70.0423" stroke="white" stroke-miterlimit="10"/>
<path d="M43.9023 26.7734V70.0423" stroke="white" stroke-miterlimit="10"/>
<path d="M68.011 13.5771H55.1953V26.3929H68.011V13.5771Z" stroke="white" stroke-miterlimit="10"/>
<path d="M65.3467 16.3687H57.7334V23.4744H65.3467V16.3687Z" stroke="white" stroke-miterlimit="10"/>
<path d="M53.166 19.2871H28.2959V25.3777H53.166V19.2871Z" stroke="white" stroke-miterlimit="10"/>
<path d="M26.0115 25.3777H16.1143V22.8399L26.0115 19.1602V25.3777Z" stroke="white" stroke-miterlimit="10"/>
<path d="M37.5586 17.6374L40.7308 9.5166" stroke="white" stroke-miterlimit="10"/>
<path d="M43.9027 17.6374L40.7305 9.5166" stroke="white" stroke-miterlimit="10"/>
</g>
<defs>
<clipPath id="clip0">
<rect width="84" height="84" fill="white"/>
</clipPath>
</defs>
</svg>
