<svg width="237" height="57" viewBox="0 0 237 57" fill="none" xmlns="http://www.w3.org/2000/svg">
<path d="M32.4773 26.5276C32.0876 27.304 31.4381 27.8216 30.3988 28.0805C29.4895 28.3393 28.1905 28.4687 26.5017 28.4687H15.46C13.7712 28.4687 12.3423 28.3393 11.4329 27.9511C10.3937 27.5628 9.7442 27.0452 9.22459 26.01C8.70497 25.1042 8.57507 23.8102 8.57507 21.9985V13.1991C8.57507 11.2581 8.70497 9.96403 9.09468 9.05821C9.48439 8.28179 10.1339 7.63478 11.0432 7.37597C11.9526 7.11717 13.5114 6.98776 15.46 6.98776H26.5017C28.84 6.98776 30.5287 7.37597 31.568 8.15239C32.6072 8.92881 33.1268 10.2228 33.1268 12.0345H41.9603C41.9603 8.7994 41.4406 6.34075 40.2715 4.65851C39.1024 2.84687 37.5435 1.68224 35.595 1.03523C33.6464 0.388211 31.0484 0 27.9307 0H13.9011C10.2638 0 7.53584 0.388211 5.58729 1.16463C3.63874 1.94105 2.2098 3.23508 1.43038 5.04672C0.650961 6.85836 0.131348 9.57582 0.131348 12.9403V22.9043C0.131348 26.1394 0.521055 28.5981 1.30048 30.4097C2.0799 32.2213 3.50884 33.5154 5.32749 34.2918C7.27604 35.0682 9.87411 35.4564 13.1217 35.4564H29.0998C32.6072 35.4564 35.3352 35.0682 37.1538 34.4212C38.9725 33.6448 40.2715 32.4802 40.921 30.7979C41.5705 29.1157 41.9603 26.5276 41.9603 23.2925H33.1268C33.1268 24.5866 32.9969 25.7512 32.4773 26.5276Z" fill="#0066B3"/>
<path d="M221.615 0.129395H213.041H197.973V7.11716H213.041V35.4564H221.615V7.11716H236.554V0.129395H221.615Z" fill="#0066B3"/>
<path d="M116.394 0.129395L97.4277 35.4564H107.17L111.977 26.5276H133.281L137.828 35.4564H138.347H147.83L128.994 0.129395H116.394ZM129.774 19.9281H115.484L115.744 19.5399L122.759 6.08193L129.774 19.9281Z" fill="#0066B3"/>
<path d="M169.394 18.634L158.092 0.129395H147.96L164.068 26.7864L158.482 35.4564H168.615L191.608 0.129395H181.345L169.394 18.634Z" fill="#0066B3"/>
<path d="M71.8367 16.5636L91.3223 0.129395H80.1506L65.4715 12.4227L60.5352 16.5636L81.1898 35.4564H92.3615L71.8367 16.5636Z" fill="#0066B3"/>
<path d="M60.5351 15.5284V13.3285V0.129395H51.9614V35.4564H60.5351V33.386V31.9625V27.0452V17.5988V15.5284Z" fill="#0066B3"/>
<path d="M236.554 49.0437H0V56.0315H236.554V49.0437Z" fill="url(#paint0_linear)"/>
<defs>
<linearGradient id="paint0_linear" x1="0.0453363" y1="52.5054" x2="236.595" y2="52.5054" gradientUnits="userSpaceOnUse">
<stop stop-color="#512B76"/>
<stop offset="0.5" stop-color="#D84245"/>
<stop offset="1" stop-color="#F4BE48"/>
</linearGradient>
</defs>
</svg>
