<svg width="84" height="84" viewBox="0 0 84 84" fill="none" xmlns="http://www.w3.org/2000/svg">
<path d="M83.3659 42C83.3659 19.1601 64.8402 0.63446 42.0003 0.63446C19.1604 0.63446 0.634766 19.1601 0.634766 42C0.634766 64.8399 19.1604 83.3656 42.0003 83.3656C64.8402 83.3656 83.3659 64.8399 83.3659 42Z" fill="#0066B3" stroke="white" stroke-width="0.9888" stroke-miterlimit="10"/>
<path d="M47.5433 25.442H41.6743V19.3477H42.3473C42.7195 19.3477 43.0211 19.046 43.0211 18.6738C43.0211 18.3017 42.7195 18 42.3473 18H39.652C39.2798 18 38.9782 18.3017 38.9782 18.6738C38.9782 19.046 39.2798 19.3477 39.652 19.3477H40.3266V25.442H34.4561C34.0838 25.442 33.7822 25.7437 33.7822 26.1159V63.3262C33.7822 63.6983 34.0838 64 34.4561 64H47.5433C47.9156 64 48.2172 63.6983 48.2172 63.3262V36.2533C48.2172 35.8812 47.9156 35.5795 47.5433 35.5795C47.1711 35.5795 46.8695 35.8812 46.8695 36.2533V62.6523H35.1299V26.7897H40.3266V32.8841H39.652C39.2798 32.8841 38.9782 33.1858 38.9782 33.5579C38.9782 33.93 39.2798 34.2317 39.652 34.2317H42.3473C42.7195 34.2317 43.0211 33.93 43.0211 33.5579C43.0211 33.1858 42.7195 32.8841 42.3473 32.8841H41.6743V26.7897H46.8695V33.5579C46.8695 33.93 47.1711 34.2317 47.5433 34.2317C47.9156 34.2317 48.2172 33.93 48.2172 33.5579V26.1159C48.2172 25.7437 47.9156 25.442 47.5433 25.442Z" fill="white"/>
<path d="M63.3265 29.1631H57.4576V26.7897H58.1306C58.5028 26.7897 58.8044 26.488 58.8044 26.1158C58.8044 25.7437 58.5028 25.442 58.1306 25.442H55.4353C55.0631 25.442 54.7615 25.7437 54.7615 26.1158C54.7615 26.488 55.0631 26.7897 55.4353 26.7897H56.1099V29.1631H50.2393C49.867 29.1631 49.5654 29.4648 49.5654 29.8369V63.3262C49.5654 63.6983 49.867 64 50.2393 64H63.3265C63.6987 64 64.0004 63.6983 64.0004 63.3262V29.8369C64.0004 29.4648 63.6987 29.1631 63.3265 29.1631ZM62.6527 62.6523H50.9131V30.5107H56.1099V32.8841H55.4353C55.0631 32.8841 54.7615 33.1858 54.7615 33.558C54.7615 33.9301 55.0631 34.2318 55.4353 34.2318H58.1306C58.5028 34.2318 58.8044 33.9301 58.8044 33.558C58.8044 33.1858 58.5028 32.8841 58.1306 32.8841H57.4576V30.5107H62.6527V62.6523Z" fill="white"/>
<path d="M31.7611 44.0472H25.8921V34.2318H26.5651C26.9373 34.2318 27.2389 33.9301 27.2389 33.558C27.2389 33.1859 26.9373 32.8842 26.5651 32.8842H23.8698C23.4975 32.8842 23.1959 33.1859 23.1959 33.558C23.1959 33.9301 23.4975 34.2318 23.8698 34.2318H24.5444V44.0472H18.6738C18.3016 44.0472 18 44.3489 18 44.7211V63.3262C18 63.6983 18.3016 64 18.6738 64H31.7611C32.1333 64 32.4349 63.6983 32.4349 63.3262V44.7211C32.4349 44.3488 32.1333 44.0472 31.7611 44.0472ZM31.0873 62.6524H19.3477V45.3949H24.5444V55.2103H23.8698C23.4975 55.2103 23.1959 55.512 23.1959 55.8842C23.1959 56.2563 23.4975 56.558 23.8698 56.558H26.5651C26.9373 56.558 27.2389 56.2563 27.2389 55.8842C27.2389 55.512 26.9373 55.2103 26.5651 55.2103H25.8921V45.3949H31.0873V62.6524Z" fill="white"/>
</svg>
