<svg width="78" height="78" viewBox="0 0 78 78" fill="none" xmlns="http://www.w3.org/2000/svg">
<g clip-path="url(#clip0)">
<path d="M29.4318 59.124C29.0158 59.124 28.5478 59.124 28.1838 59.124C26.7278 59.124 25.7398 58.136 25.7398 56.68C25.7398 54.964 25.7398 53.144 25.7398 51.428C25.7398 51.012 25.2718 50.648 24.7518 50.544C23.8158 50.544 22.9318 50.544 21.9438 50.544C21.9438 50.752 21.9438 50.856 21.9438 51.012C21.9438 52.468 21.9438 54.028 21.9438 55.484C21.9438 55.692 22.0998 55.952 22.2558 56.16C22.7758 56.628 23.1398 57.2 23.1398 58.032C23.1398 59.228 23.1398 60.424 23.1398 61.62C23.1398 62.348 22.6718 62.816 21.9438 62.816C15.0798 62.816 8.21576 62.816 1.40376 62.816C0.467758 62.816 0.0517578 62.4 0.0517578 61.464C0.0517578 60.424 0.0517578 59.28 0.0517578 58.188C0.0517578 57.304 0.363758 56.68 1.03976 56.108C1.19576 55.952 1.29976 55.692 1.29976 55.484C1.29976 53.56 1.29976 51.688 1.29976 49.764C1.29976 47.944 2.23576 47.06 4.00376 47.06C4.67976 47.06 5.35576 47.06 5.92776 47.06C6.65576 47.06 7.07176 47.476 7.17576 48.204C7.33176 49.14 7.79976 49.556 8.68376 49.556C9.41176 49.556 10.1398 49.556 11.0238 49.556C11.0238 49.14 11.0238 48.828 11.0238 48.412C11.0238 47.528 11.4918 47.06 12.3758 47.06C15.1838 47.06 17.8878 47.06 20.6958 47.06C21.4758 47.06 21.8398 47.528 21.9438 48.308C22.7238 48.308 23.5558 48.308 24.3358 48.308C25.2198 48.308 25.9998 48.516 26.7278 48.984C26.8838 49.036 27.0398 49.036 27.1958 48.984C27.9238 48.516 28.6518 48.308 29.5358 48.308C30.1598 48.308 30.7318 48.308 31.3558 48.308C31.4078 48.256 31.4078 48.152 31.5118 48.1C31.2518 47.892 30.9918 47.684 30.7838 47.476C29.5358 46.228 28.2358 44.928 26.9878 43.732C26.2078 42.952 25.7918 42.016 25.7918 40.872C25.7918 37.804 25.7918 34.736 25.7918 31.616C25.7918 31.408 25.7918 31.2 25.7918 31.096C25.1678 30.888 24.6478 30.836 24.1278 30.576C22.7758 29.9 22.1518 28.756 22.0478 27.248C22.0478 24.232 22.0478 21.268 22.0478 18.304C22.0478 18.044 22.0478 17.784 22.0478 17.524C21.6318 17.524 21.2678 17.524 20.8518 17.524C20.1238 17.524 19.6038 17.004 19.6038 16.328C19.6038 15.704 20.0718 15.288 20.7998 15.184C20.9558 15.184 21.0078 15.184 21.1118 15.184C29.0158 15.184 36.9718 15.184 44.9278 15.184C45.1878 15.184 45.4478 15.184 45.7078 15.34C46.1758 15.548 46.4358 16.068 46.3318 16.536C46.1758 17.056 45.8118 17.472 45.2918 17.472C44.8238 17.472 44.4078 17.472 43.9398 17.472C43.9398 21.216 43.9398 24.856 43.9398 28.652C44.1478 28.652 44.2518 28.652 44.4598 28.652C45.7078 28.652 46.9038 28.652 48.2038 28.704C49.2438 28.756 50.2838 29.172 51.1158 29.744C51.1678 29.796 51.2718 29.796 51.3758 29.9C51.3758 28.756 51.3758 27.612 51.3758 26.572C51.3758 24.856 51.3758 23.036 51.3758 21.32C51.3758 20.696 51.2198 20.28 50.7518 19.864C50.2318 19.396 49.7638 18.928 49.2958 18.408C48.7758 17.888 48.7758 17.16 49.2438 16.692C49.7118 16.224 50.3878 16.224 50.9078 16.744C51.5318 17.264 52.0518 17.888 52.5718 18.408C53.2478 19.136 53.6118 20.02 53.6118 21.008C53.6118 24.544 53.6118 28.132 53.6118 31.668C53.6118 31.824 53.6118 31.98 53.6118 32.188C53.7678 32.188 53.8718 32.188 54.0278 32.188C58.2918 32.188 62.6078 32.188 66.8718 32.188C68.2758 32.188 69.3158 32.656 70.1998 33.8C71.4478 35.412 72.7998 36.92 74.1518 38.532C75.1398 39.728 75.6598 41.132 75.6077 42.64C75.6077 44.356 75.6077 46.02 75.6077 47.788C75.6077 47.996 75.6077 48.1 75.6077 48.308C76.8558 48.776 77.6878 49.66 77.9477 50.96C77.9997 51.22 77.9997 51.584 77.9997 51.844C77.9997 53.352 77.9997 54.964 77.9997 56.524C77.9997 58.084 77.0118 58.968 75.4518 58.968C73.9958 58.968 72.4358 58.968 70.9798 58.968C70.6678 58.968 70.4597 59.02 70.3037 59.384C69.5758 61.36 67.8598 62.66 65.7278 62.66C55.2238 62.66 44.7198 62.66 34.1638 62.66C31.7718 62.66 30.1078 61.464 29.3278 59.176C29.4838 59.228 29.4318 59.228 29.4318 59.124ZM24.2838 17.576C24.2838 17.628 24.2318 17.732 24.2318 17.732C24.2318 21.008 24.2318 24.232 24.2318 27.508C24.2318 27.716 24.3878 27.976 24.4918 28.184C24.8038 28.704 25.4278 28.704 25.9478 28.704C27.6638 28.704 29.4318 28.704 31.1998 28.704C31.9278 28.704 32.2398 28.912 32.5518 29.588C32.8118 30.212 33.0198 30.784 33.2798 31.408C33.5398 32.136 34.0078 32.396 34.7878 32.396C36.8678 32.396 38.8438 32.396 40.9238 32.396C41.1318 32.396 41.3398 32.396 41.5478 32.396C41.5478 27.404 41.5478 22.464 41.5478 17.576C35.7238 17.576 30.0038 17.576 24.2838 17.576ZM53.6638 34.632C53.6638 36.764 53.6638 38.844 53.6638 40.976C54.0798 40.976 54.4438 40.976 54.8598 40.976C55.5878 40.976 56.0558 41.444 56.0558 42.12C56.0558 42.796 55.5358 43.264 54.8078 43.264C54.3918 43.264 54.0278 43.264 53.6638 43.264C53.6638 44.98 53.6638 46.644 53.6638 48.256C60.2678 48.256 66.7678 48.256 73.3198 48.256C73.3198 46.592 73.3198 44.928 73.3198 43.264C73.1637 43.264 73.0597 43.264 73.0078 43.264C69.6797 43.264 66.2998 43.264 62.9718 43.264C61.9838 43.264 60.8918 43.264 59.9038 43.264C59.2278 43.264 58.7598 42.744 58.7598 42.12C58.7598 41.444 59.2278 40.976 59.9038 40.976C60.0598 40.976 60.1638 40.976 60.3718 40.976C64.4278 40.976 68.4837 40.976 72.5397 40.976C72.6958 40.976 72.7998 40.976 73.0598 40.976C72.8518 40.716 72.7478 40.508 72.5918 40.3C71.2398 38.688 69.8878 37.024 68.5358 35.464C68.1198 34.944 67.5998 34.736 66.9238 34.736C62.6598 34.736 58.4478 34.736 54.2358 34.736C53.9758 34.632 53.8198 34.632 53.6638 34.632ZM27.8718 38.324C27.8718 39.208 27.8718 39.936 27.8718 40.716C27.8718 41.236 28.0798 41.704 28.4958 42.12C30.4198 44.044 32.3438 45.968 34.3718 47.892C34.5278 48.048 34.8398 48.152 35.0478 48.152C39.5198 48.152 43.9918 48.152 48.4118 48.152C49.3478 48.152 50.3358 48.152 51.3238 48.152C51.3238 44.824 51.3238 41.548 51.3238 38.22C43.4718 38.324 35.7238 38.324 27.8718 38.324ZM75.7118 56.836C75.7118 55.224 75.7118 53.716 75.7118 52.156C75.7118 51.012 75.2438 50.544 74.0998 50.544C68.2238 50.544 62.3998 50.544 56.5238 50.544C50.6478 50.544 44.8238 50.544 38.9478 50.544C35.8278 50.544 32.7078 50.544 29.4838 50.544C29.1718 50.544 28.8078 50.596 28.4958 50.7C28.4958 50.752 28.4438 50.856 28.4438 50.908C29.4838 51.896 30.5758 52.832 31.6158 53.82C32.3438 53.352 33.2798 53.144 34.3198 53.196C39.1558 53.196 44.0438 53.196 48.8798 53.196C54.5478 53.196 60.2158 53.196 65.8318 53.196C67.7038 53.196 69.1598 54.08 69.8877 55.744C70.3558 56.732 70.8757 56.94 71.8637 56.888C73.2678 56.784 74.4638 56.836 75.7118 56.836ZM49.9718 60.476C53.9238 60.476 57.8238 60.476 61.8278 60.476C63.2318 60.476 64.6358 60.476 66.0398 60.476C67.3918 60.424 68.4318 59.332 68.4318 58.084C68.4318 56.68 67.4958 55.64 66.0918 55.484C65.4158 55.432 64.7398 55.484 64.1678 55.484C55.3798 55.484 46.6438 55.484 37.8558 55.484C36.4518 55.484 35.1518 55.432 33.7478 55.536C31.9278 55.744 31.0438 57.824 31.9278 59.332C32.4478 60.216 33.3318 60.528 34.3198 60.528C39.6238 60.476 44.7718 60.476 49.9718 60.476ZM2.28776 60.476C8.47576 60.476 14.6118 60.476 20.7998 60.476C20.7998 59.592 20.7998 58.812 20.7998 57.928C19.7598 57.616 19.6038 57.304 19.6038 56.212C19.6038 54.08 19.6038 51.896 19.6038 49.764C19.6038 49.608 19.6038 49.504 19.6038 49.296C17.5238 49.296 15.4958 49.296 13.4158 49.296C13.4158 51.376 13.4158 53.404 13.4158 55.536C14.1958 55.536 14.9238 55.536 15.7558 55.536C16.5878 55.536 17.1078 56.004 17.1078 56.68C17.1078 57.356 16.5878 57.824 15.7558 57.824C13.4158 57.824 11.1798 57.824 8.83976 57.824C6.86376 57.824 4.83576 57.824 2.85976 57.824C2.70376 57.824 2.44376 57.98 2.44376 58.084C2.28776 58.916 2.28776 59.696 2.28776 60.476ZM43.7838 30.992C43.7838 31.772 43.7838 32.5 43.7838 33.332C43.7838 34.216 43.3678 34.58 42.5358 34.58C39.8318 34.58 37.0758 34.58 34.3718 34.58C32.8638 34.58 31.7718 33.696 31.1998 32.292C31.0438 31.876 30.9398 31.564 30.7318 31.148C30.6798 30.992 30.5238 30.888 30.4718 30.888C29.6918 30.888 28.8078 30.888 27.9238 30.888C27.9238 32.604 27.9238 34.216 27.9238 35.932C35.7238 35.932 43.4718 35.932 51.2718 35.932C51.2718 35.412 51.2718 34.892 51.2718 34.32C51.2198 32.656 49.8678 31.148 48.2038 30.94C46.7998 30.94 45.3438 30.992 43.7838 30.992ZM10.9198 55.588C10.9198 54.34 10.9198 53.04 10.9198 51.792C10.1398 51.792 9.46376 51.792 8.73576 51.792C7.07176 51.792 5.87576 51.116 5.14776 49.608C5.09576 49.452 4.93976 49.348 4.88776 49.348C4.41976 49.348 4.00376 49.348 3.53576 49.348C3.53576 51.48 3.53576 53.56 3.53576 55.588C5.97976 55.588 8.47576 55.588 10.9198 55.588ZM28.0798 53.456C28.0278 53.508 28.0278 53.508 27.9238 53.612C27.9238 54.652 27.9238 55.744 27.9238 56.888C28.3918 56.888 28.8078 56.888 29.1718 56.888C29.2238 56.888 29.3798 56.732 29.4318 56.68C29.6398 56.264 29.7438 55.9 29.8998 55.64C29.2758 54.86 28.7038 54.132 28.0798 53.456Z" fill="#0066B3"/>
<path d="M49.9718 59.124C44.7718 59.124 39.5718 59.124 34.4238 59.124C34.2158 59.124 33.9558 59.124 33.7478 59.072C33.2798 58.916 32.9678 58.448 32.9678 57.928C32.9678 57.46 33.2798 56.992 33.7478 56.888C33.9558 56.836 34.2158 56.836 34.4758 56.836C44.8758 56.836 55.2238 56.836 65.6238 56.836C65.8838 56.836 66.2478 56.888 66.5078 57.044C66.9758 57.252 67.1838 57.824 67.0278 58.292C66.8718 58.812 66.4038 59.176 65.8318 59.176C64.3238 59.176 62.7638 59.176 61.1518 59.176C57.4598 59.176 53.7158 59.124 49.9718 59.124Z" fill="#0066B3"/>
</g>
<defs>
<clipPath id="clip0">
<rect width="78" height="78" fill="white"/>
</clipPath>
</defs>
</svg>
