<svg width="122" height="135" viewBox="0 0 122 135" fill="none" xmlns="http://www.w3.org/2000/svg">
<path d="M63.3 10.0649C95.3 11.4044 120.8 38.5017 120.8 71.6779C120.8 105.781 94 133.394 60.9 133.394C27.8 133.394 1 105.781 1 71.6779C1 55.2958 7.2 40.3562 17.3 29.3319" stroke="white" stroke-width="2" stroke-miterlimit="10"/>
<path d="M76.6999 20.3679C76.9999 19.8528 76.8999 19.2346 76.3999 18.9255L63.6999 10.0648L76.7999 1.92539C77.2999 1.6163 77.3999 0.998111 77.0999 0.482957C76.7999 -0.0321971 76.1999 -0.135228 75.6999 0.173865L61.3999 9.13755C61.0999 9.34361 60.8999 9.6527 60.8999 9.96179C60.8999 10.2709 61.0999 10.683 61.2999 10.8891L75.2999 20.574C75.4999 20.677 75.5999 20.78 75.7999 20.78C76.1999 20.78 76.4999 20.677 76.6999 20.3679Z" fill="white"/>
</svg>
