<svg width="193" height="32" viewBox="0 0 193 32" fill="none" xmlns="http://www.w3.org/2000/svg">
<g opacity="0.5">
<path d="M73.7072 10.325C73.3607 10.5525 72.9218 10.7107 72.3906 10.7997C71.8593 10.8888 71.2934 10.9333 70.6929 10.9333C69.9653 10.9333 69.2839 10.8294 68.6487 10.6217C68.0135 10.4041 67.4592 10.0778 66.9856 9.64263C66.5121 9.20747 66.1368 8.65364 65.8596 7.98113C65.5824 7.29873 65.4438 6.4927 65.4438 5.56305C65.4438 4.59385 65.594 3.77299 65.8943 3.10048C66.2061 2.41807 66.6103 1.86424 67.1069 1.43898C67.6151 1.00382 68.181 0.687346 68.8046 0.489549C69.4283 0.291751 70.0635 0.192853 70.7102 0.192853C71.4031 0.192853 71.969 0.227467 72.4079 0.296696C72.8468 0.356035 73.2221 0.440099 73.5339 0.548888L73.1875 1.63183C72.6331 1.40436 71.842 1.29063 70.8141 1.29063C70.3406 1.29063 69.8729 1.3648 69.4109 1.51315C68.949 1.6615 68.5332 1.9038 68.1636 2.24006C67.8056 2.57631 67.5169 3.01641 67.2975 3.56035C67.078 4.1043 66.9683 4.77186 66.9683 5.56305C66.9683 6.27513 67.0723 6.89819 67.2801 7.43224C67.488 7.96629 67.771 8.41134 68.129 8.76737C68.4986 9.12341 68.9259 9.39044 69.4109 9.56845C69.9075 9.74647 70.4446 9.83548 71.022 9.83548C71.5417 9.83548 71.9921 9.79098 72.3733 9.70197C72.7659 9.61296 73.0951 9.49922 73.3607 9.36077L73.7072 10.325Z" fill="white"/>
<path d="M75.5658 3.88672C76.0047 3.65925 76.5128 3.49113 77.0903 3.38234C77.6793 3.27355 78.2914 3.21915 78.9266 3.21915C79.5271 3.21915 80.0064 3.28838 80.3644 3.42684C80.734 3.5653 81.0112 3.74826 81.1959 3.97573C81.3923 4.19331 81.5193 4.43561 81.5771 4.70263C81.6464 4.96966 81.681 5.23669 81.681 5.50372C81.681 6.09711 81.6637 6.67566 81.629 7.23939C81.5944 7.80311 81.5771 8.33716 81.5771 8.84155C81.5771 9.20747 81.5944 9.55362 81.629 9.87998C81.6637 10.2063 81.7272 10.508 81.8196 10.7849H80.7975L80.4337 9.74647H80.3471C80.2431 9.88493 80.1103 10.0234 79.9486 10.1618C79.7985 10.2904 79.6137 10.4091 79.3943 10.5179C79.1749 10.6168 78.9208 10.7008 78.6321 10.7701C78.3433 10.8393 78.0142 10.8739 77.6446 10.8739C77.275 10.8739 76.9286 10.8245 76.6052 10.7256C76.2934 10.6267 76.022 10.4882 75.791 10.3102C75.56 10.1223 75.3752 9.89976 75.2366 9.64263C75.1096 9.38549 75.0461 9.09374 75.0461 8.76737C75.0461 8.33222 75.15 7.97124 75.3579 7.68443C75.5658 7.38774 75.8545 7.15532 76.2241 6.9872C76.6052 6.80918 77.0556 6.68555 77.5753 6.61633C78.1066 6.53721 78.6898 6.49765 79.325 6.49765C79.4867 6.49765 79.6426 6.49765 79.7927 6.49765C79.9544 6.49765 80.1161 6.50754 80.2778 6.52732C80.3124 6.23062 80.3298 5.96359 80.3298 5.72624C80.3298 5.18229 80.2027 4.80153 79.9486 4.58396C79.6946 4.36638 79.2326 4.25759 78.5628 4.25759C78.3664 4.25759 78.1528 4.27243 77.9218 4.30209C77.7024 4.32187 77.4714 4.35649 77.2289 4.40594C76.9979 4.4455 76.7727 4.49989 76.5532 4.56912C76.3454 4.62846 76.1606 4.69769 75.9989 4.77681L75.5658 3.88672ZM78.0257 9.83548C78.3491 9.83548 78.6378 9.80086 78.8919 9.73164C79.146 9.65252 79.3654 9.55856 79.5502 9.44977C79.735 9.3311 79.8851 9.20253 80.0006 9.06407C80.1277 8.92561 80.22 8.7921 80.2778 8.66353V7.43224C80.1161 7.42235 79.9486 7.41741 79.7754 7.41741C79.6137 7.40752 79.452 7.40257 79.2904 7.40257C78.9323 7.40257 78.5801 7.42235 78.2336 7.46191C77.8987 7.49158 77.5984 7.55586 77.3328 7.65476C77.0787 7.74377 76.8708 7.87234 76.7091 8.04047C76.559 8.19871 76.4839 8.40145 76.4839 8.64869C76.4839 8.99484 76.6283 9.28165 76.917 9.50911C77.2058 9.72669 77.5753 9.83548 78.0257 9.83548Z" fill="white"/>
<path d="M89.7034 6.36413L89.7554 5.44438H89.7034L88.9932 6.3938L85.0954 10.7552H84.2985V3.33783H85.6844V7.86245L85.6324 8.7377H85.7017L86.3773 7.81794L90.2751 3.33783H91.0893V10.7552H89.7034V6.36413ZM86.2907 0.341201C86.4062 0.796135 86.6025 1.11261 86.8797 1.29063C87.1684 1.46865 87.4976 1.55766 87.8671 1.55766C88.2367 1.55766 88.5658 1.4637 88.8546 1.27579C89.1433 1.08789 89.3396 0.7813 89.4436 0.356035L90.483 0.637897C90.379 1.21151 90.0788 1.65161 89.5822 1.95819C89.0971 2.26478 88.5139 2.41807 87.8325 2.41807C87.5207 2.41807 87.2088 2.38346 86.897 2.31423C86.5967 2.245 86.3253 2.14116 86.0828 2.0027C85.8403 1.86424 85.6324 1.68622 85.4592 1.46865C85.2859 1.25107 85.1704 0.993933 85.1127 0.697236L86.2907 0.341201Z" fill="white"/>
<path d="M99.2816 4.37627H96.5618V10.7552H95.1759V4.37627H92.4561V3.33783H99.2816V4.37627Z" fill="white"/>
<path d="M104.735 3.33783H105.688L105.947 4.22792H106.017C106.282 3.88178 106.623 3.61969 107.039 3.44168C107.466 3.25377 107.951 3.15981 108.494 3.15981C109.649 3.15981 110.509 3.45157 111.075 4.03507C111.641 4.61857 111.924 5.57294 111.924 6.89819C111.924 7.52125 111.826 8.08497 111.63 8.58936C111.445 9.08385 111.179 9.50417 110.833 9.85032C110.486 10.1965 110.065 10.4635 109.568 10.6514C109.083 10.8393 108.54 10.9333 107.94 10.9333C107.512 10.9333 107.172 10.9085 106.918 10.8591C106.675 10.8195 106.409 10.7453 106.121 10.6366V13.7222H104.735V3.33783ZM108.234 4.19825C107.645 4.19825 107.177 4.33176 106.831 4.59879C106.496 4.85593 106.259 5.25152 106.121 5.78558V9.46461C106.329 9.60307 106.565 9.71186 106.831 9.79098C107.097 9.8602 107.449 9.89482 107.888 9.89482C108.685 9.89482 109.314 9.64263 109.776 9.13824C110.249 8.62397 110.486 7.87234 110.486 6.88335C110.486 6.47787 110.446 6.11194 110.365 5.78558C110.284 5.44932 110.151 5.16746 109.967 4.93999C109.793 4.70264 109.562 4.51967 109.274 4.3911C108.996 4.26254 108.65 4.19825 108.234 4.19825Z" fill="white"/>
<path d="M113.969 3.88672C114.407 3.65925 114.916 3.49113 115.493 3.38234C116.082 3.27355 116.694 3.21915 117.329 3.21915C117.93 3.21915 118.409 3.28838 118.767 3.42684C119.137 3.5653 119.414 3.74826 119.599 3.97573C119.795 4.19331 119.922 4.43561 119.98 4.70263C120.049 4.96966 120.084 5.23669 120.084 5.50372C120.084 6.09711 120.066 6.67566 120.032 7.23939C119.997 7.80311 119.98 8.33716 119.98 8.84155C119.98 9.20747 119.997 9.55362 120.032 9.87998C120.066 10.2063 120.13 10.508 120.222 10.7849H119.2L118.836 9.74647H118.75C118.646 9.88493 118.513 10.0234 118.351 10.1618C118.201 10.2904 118.016 10.4091 117.797 10.5179C117.578 10.6168 117.324 10.7008 117.035 10.7701C116.746 10.8393 116.417 10.8739 116.047 10.8739C115.678 10.8739 115.331 10.8245 115.008 10.7256C114.696 10.6267 114.425 10.4882 114.194 10.3102C113.963 10.1223 113.778 9.89976 113.639 9.64263C113.512 9.38549 113.449 9.09374 113.449 8.76737C113.449 8.33222 113.553 7.97124 113.761 7.68443C113.969 7.38774 114.257 7.15532 114.627 6.9872C115.008 6.80918 115.458 6.68555 115.978 6.61633C116.509 6.53721 117.093 6.49765 117.728 6.49765C117.889 6.49765 118.045 6.49765 118.195 6.49765C118.357 6.49765 118.519 6.50754 118.681 6.52732C118.715 6.23062 118.733 5.96359 118.733 5.72624C118.733 5.18229 118.605 4.80153 118.351 4.58396C118.097 4.36638 117.635 4.25759 116.966 4.25759C116.769 4.25759 116.556 4.27243 116.325 4.30209C116.105 4.32187 115.874 4.35649 115.632 4.40594C115.401 4.4455 115.175 4.49989 114.956 4.56912C114.748 4.62846 114.563 4.69769 114.402 4.77681L113.969 3.88672ZM116.428 9.83548C116.752 9.83548 117.041 9.80086 117.295 9.73164C117.549 9.65252 117.768 9.55856 117.953 9.44977C118.138 9.3311 118.288 9.20253 118.403 9.06407C118.53 8.92561 118.623 8.7921 118.681 8.66353V7.43224C118.519 7.42235 118.351 7.41741 118.178 7.41741C118.016 7.40752 117.855 7.40257 117.693 7.40257C117.335 7.40257 116.983 7.42235 116.636 7.46191C116.301 7.49158 116.001 7.55586 115.736 7.65476C115.481 7.74377 115.274 7.87234 115.112 8.04047C114.962 8.19871 114.887 8.40145 114.887 8.64869C114.887 8.99484 115.031 9.28165 115.32 9.50911C115.608 9.72669 115.978 9.83548 116.428 9.83548Z" fill="white"/>
<path d="M123.533 7.44708V6.48281H124.745C124.953 6.48281 125.155 6.45314 125.352 6.3938C125.56 6.33446 125.744 6.25535 125.906 6.15645C126.068 6.04766 126.195 5.92404 126.287 5.78558C126.391 5.63723 126.443 5.48393 126.443 5.3257C126.443 4.93999 126.287 4.66802 125.975 4.50978C125.664 4.35154 125.196 4.27243 124.572 4.27243C124.122 4.27243 123.706 4.33176 123.325 4.45044C122.955 4.56912 122.667 4.68286 122.459 4.79164L122.06 3.87189C122.407 3.70376 122.811 3.55541 123.273 3.42684C123.746 3.29827 124.307 3.23399 124.953 3.23399C126.87 3.23399 127.829 3.84222 127.829 5.05867C127.829 5.40482 127.696 5.74602 127.431 6.08227C127.176 6.40864 126.807 6.64105 126.322 6.77951V6.83885C127.003 6.94764 127.477 7.15532 127.742 7.46191C128.02 7.7685 128.158 8.17398 128.158 8.67836C128.158 8.99484 128.083 9.28659 127.933 9.55362C127.783 9.82064 127.558 10.0531 127.257 10.2509C126.957 10.4487 126.576 10.6069 126.114 10.7256C125.664 10.8344 125.138 10.8888 124.538 10.8888C123.949 10.8888 123.458 10.8442 123.065 10.7552C122.684 10.6662 122.337 10.5574 122.026 10.4289L122.424 9.44977C122.69 9.57834 123.007 9.67724 123.377 9.74647C123.758 9.8157 124.168 9.85032 124.607 9.85032C125.311 9.85032 125.848 9.74647 126.218 9.53878C126.587 9.3311 126.772 9.01462 126.772 8.58936C126.772 8.23332 126.599 7.9564 126.253 7.75861C125.906 7.55092 125.334 7.44708 124.538 7.44708H123.533Z" fill="white"/>
<path d="M130.348 3.33783H131.301L131.561 4.22792H131.63C131.895 3.88178 132.236 3.61969 132.652 3.44168C133.079 3.25377 133.564 3.15981 134.107 3.15981C135.262 3.15981 136.122 3.45157 136.688 4.03507C137.254 4.61857 137.537 5.57294 137.537 6.89819C137.537 7.52125 137.439 8.08497 137.243 8.58936C137.058 9.08385 136.792 9.50417 136.446 9.85032C136.099 10.1965 135.678 10.4635 135.181 10.6514C134.696 10.8393 134.153 10.9333 133.553 10.9333C133.125 10.9333 132.785 10.9085 132.531 10.8591C132.288 10.8195 132.023 10.7453 131.734 10.6366V13.7222H130.348V3.33783ZM133.847 4.19825C133.258 4.19825 132.791 4.33176 132.444 4.59879C132.109 4.85593 131.872 5.25152 131.734 5.78558V9.46461C131.942 9.60307 132.178 9.71186 132.444 9.79098C132.71 9.8602 133.062 9.89482 133.501 9.89482C134.298 9.89482 134.927 9.64263 135.389 9.13824C135.863 8.62397 136.099 7.87234 136.099 6.88335C136.099 6.47787 136.059 6.11194 135.978 5.78558C135.897 5.44932 135.764 5.16746 135.58 4.93999C135.406 4.70264 135.175 4.51967 134.887 4.3911C134.61 4.26254 134.263 4.19825 133.847 4.19825Z" fill="white"/>
<path d="M139.582 3.88672C140.021 3.65925 140.529 3.49113 141.106 3.38234C141.695 3.27355 142.307 3.21915 142.942 3.21915C143.543 3.21915 144.022 3.28838 144.38 3.42684C144.75 3.5653 145.027 3.74826 145.212 3.97573C145.408 4.19331 145.535 4.43561 145.593 4.70263C145.662 4.96966 145.697 5.23669 145.697 5.50372C145.697 6.09711 145.68 6.67566 145.645 7.23939C145.61 7.80311 145.593 8.33716 145.593 8.84155C145.593 9.20747 145.61 9.55362 145.645 9.87998C145.68 10.2063 145.743 10.508 145.835 10.7849H144.813L144.45 9.74647H144.363C144.259 9.88493 144.126 10.0234 143.964 10.1618C143.814 10.2904 143.63 10.4091 143.41 10.5179C143.191 10.6168 142.937 10.7008 142.648 10.7701C142.359 10.8393 142.03 10.8739 141.66 10.8739C141.291 10.8739 140.944 10.8245 140.621 10.7256C140.309 10.6267 140.038 10.4882 139.807 10.3102C139.576 10.1223 139.391 9.89976 139.252 9.64263C139.125 9.38549 139.062 9.09374 139.062 8.76737C139.062 8.33222 139.166 7.97124 139.374 7.68443C139.582 7.38774 139.87 7.15532 140.24 6.9872C140.621 6.80918 141.071 6.68555 141.591 6.61633C142.122 6.53721 142.706 6.49765 143.341 6.49765C143.503 6.49765 143.658 6.49765 143.809 6.49765C143.97 6.49765 144.132 6.50754 144.294 6.52732C144.328 6.23062 144.346 5.96359 144.346 5.72624C144.346 5.18229 144.219 4.80153 143.964 4.58396C143.71 4.36638 143.248 4.25759 142.579 4.25759C142.382 4.25759 142.169 4.27243 141.938 4.30209C141.718 4.32187 141.487 4.35649 141.245 4.40594C141.014 4.4455 140.789 4.49989 140.569 4.56912C140.361 4.62846 140.176 4.69769 140.015 4.77681L139.582 3.88672ZM142.042 9.83548C142.365 9.83548 142.654 9.80086 142.908 9.73164C143.162 9.65252 143.381 9.55856 143.566 9.44977C143.751 9.3311 143.901 9.20253 144.016 9.06407C144.143 8.92561 144.236 8.7921 144.294 8.66353V7.43224C144.132 7.42235 143.964 7.41741 143.791 7.41741C143.63 7.40752 143.468 7.40257 143.306 7.40257C142.948 7.40257 142.596 7.42235 142.249 7.46191C141.915 7.49158 141.614 7.55586 141.349 7.65476C141.095 7.74377 140.887 7.87234 140.725 8.04047C140.575 8.19871 140.5 8.40145 140.5 8.64869C140.5 8.99484 140.644 9.28165 140.933 9.50911C141.222 9.72669 141.591 9.83548 142.042 9.83548Z" fill="white"/>
<path d="M149.111 4.65813C149.492 4.18342 149.914 3.85211 150.376 3.6642C150.838 3.4664 151.415 3.3675 152.108 3.3675C153.171 3.3675 153.985 3.6642 154.551 4.25759C155.128 4.85098 155.417 5.72624 155.417 6.88335C155.417 8.21849 155.082 9.22725 154.412 9.90965C153.754 10.5921 152.83 10.9333 151.64 10.9333C150.37 10.9333 149.417 10.5574 148.782 9.80581C148.147 9.05418 147.829 7.87234 147.829 6.26029C147.829 5.40976 147.875 4.68286 147.968 4.07957C148.072 3.47629 148.216 2.96696 148.401 2.55159C148.597 2.13621 148.828 1.8049 149.094 1.55766C149.371 1.31041 149.677 1.11756 150.012 0.979097C150.358 0.830749 150.734 0.726906 151.138 0.667567C151.542 0.608227 151.975 0.558777 152.437 0.519218C153.038 0.469769 153.506 0.415375 153.841 0.356035C154.187 0.286807 154.464 0.168128 154.672 0L154.828 1.06811C154.712 1.15711 154.585 1.23129 154.447 1.29063C154.308 1.34997 154.141 1.39942 153.944 1.43898C153.748 1.47854 153.511 1.51315 153.234 1.54282C152.969 1.57249 152.657 1.59721 152.299 1.61699C151.802 1.64666 151.363 1.70106 150.982 1.78018C150.613 1.84941 150.289 1.99281 150.012 2.21039C149.746 2.41807 149.533 2.71972 149.371 3.11531C149.221 3.50102 149.117 4.01529 149.059 4.65813H149.111ZM149.267 7.06137C149.267 7.43719 149.313 7.79817 149.406 8.14431C149.498 8.49046 149.637 8.79704 149.821 9.06407C150.018 9.32121 150.266 9.52395 150.566 9.6723C150.867 9.82064 151.219 9.89482 151.623 9.89482C152.42 9.89482 153.009 9.65252 153.39 9.16791C153.783 8.67342 153.979 7.94651 153.979 6.9872C153.979 6.61138 153.939 6.26524 153.858 5.94876C153.777 5.63228 153.65 5.36031 153.477 5.13284C153.303 4.89549 153.084 4.71747 152.818 4.59879C152.553 4.47022 152.235 4.40594 151.866 4.40594C150.965 4.39605 150.307 4.62352 149.891 5.08834C149.475 5.54327 149.267 6.20095 149.267 7.06137Z" fill="white"/>
<path d="M157.117 7.04654C157.117 5.79052 157.44 4.8312 158.087 4.16858C158.745 3.49607 159.687 3.15981 160.911 3.15981C161.558 3.15981 162.118 3.25377 162.591 3.44168C163.076 3.61969 163.475 3.88178 163.787 4.22792C164.098 4.56418 164.329 4.97461 164.479 5.45921C164.63 5.93392 164.705 6.46303 164.705 7.04654C164.705 8.30255 164.376 9.26681 163.717 9.93932C163.07 10.6019 162.135 10.9333 160.911 10.9333C160.264 10.9333 159.698 10.8442 159.213 10.6662C158.74 10.4783 158.347 10.2162 158.035 9.87998C157.723 9.53384 157.492 9.12341 157.342 8.64869C157.192 8.16409 157.117 7.63004 157.117 7.04654ZM158.555 7.04654C158.555 7.42235 158.595 7.78333 158.676 8.12948C158.768 8.47562 158.907 8.77726 159.092 9.0344C159.277 9.29154 159.519 9.49922 159.819 9.65746C160.12 9.8157 160.484 9.89482 160.911 9.89482C162.481 9.90471 163.267 8.95528 163.267 7.04654C163.267 6.66083 163.221 6.29491 163.128 5.94876C163.047 5.60261 162.915 5.30097 162.73 5.04384C162.545 4.7867 162.302 4.58396 162.002 4.43561C161.702 4.27737 161.338 4.19825 160.911 4.19825C159.34 4.18836 158.555 5.13779 158.555 7.04654Z" fill="white"/>
<path d="M172.145 4.37627H169.425V10.7552H168.04V4.37627H165.32V3.33783H172.145V4.37627Z" fill="white"/>
<path d="M173.383 3.88672C173.822 3.65925 174.33 3.49113 174.907 3.38234C175.496 3.27355 176.108 3.21915 176.744 3.21915C177.344 3.21915 177.823 3.28838 178.181 3.42684C178.551 3.5653 178.828 3.74826 179.013 3.97573C179.209 4.19331 179.336 4.43561 179.394 4.70263C179.463 4.96966 179.498 5.23669 179.498 5.50372C179.498 6.09711 179.481 6.67566 179.446 7.23939C179.411 7.80311 179.394 8.33716 179.394 8.84155C179.394 9.20747 179.411 9.55362 179.446 9.87998C179.481 10.2063 179.544 10.508 179.637 10.7849H178.615L178.251 9.74647H178.164C178.06 9.88493 177.927 10.0234 177.766 10.1618C177.616 10.2904 177.431 10.4091 177.211 10.5179C176.992 10.6168 176.738 10.7008 176.449 10.7701C176.16 10.8393 175.831 10.8739 175.462 10.8739C175.092 10.8739 174.746 10.8245 174.422 10.7256C174.11 10.6267 173.839 10.4882 173.608 10.3102C173.377 10.1223 173.192 9.89976 173.054 9.64263C172.927 9.38549 172.863 9.09374 172.863 8.76737C172.863 8.33222 172.967 7.97124 173.175 7.68443C173.383 7.38774 173.672 7.15532 174.041 6.9872C174.422 6.80918 174.873 6.68555 175.392 6.61633C175.924 6.53721 176.507 6.49765 177.142 6.49765C177.304 6.49765 177.46 6.49765 177.61 6.49765C177.771 6.49765 177.933 6.50754 178.095 6.52732C178.129 6.23062 178.147 5.96359 178.147 5.72624C178.147 5.18229 178.02 4.80153 177.766 4.58396C177.512 4.36638 177.05 4.25759 176.38 4.25759C176.183 4.25759 175.97 4.27243 175.739 4.30209C175.519 4.32187 175.288 4.35649 175.046 4.40594C174.815 4.4455 174.59 4.49989 174.37 4.56912C174.162 4.62846 173.978 4.69769 173.816 4.77681L173.383 3.88672ZM175.843 9.83548C176.166 9.83548 176.455 9.80086 176.709 9.73164C176.963 9.65252 177.182 9.55856 177.367 9.44977C177.552 9.3311 177.702 9.20253 177.818 9.06407C177.945 8.92561 178.037 8.7921 178.095 8.66353V7.43224C177.933 7.42235 177.766 7.41741 177.592 7.41741C177.431 7.40752 177.269 7.40257 177.107 7.40257C176.749 7.40257 176.397 7.42235 176.051 7.46191C175.716 7.49158 175.415 7.55586 175.15 7.65476C174.896 7.74377 174.688 7.87234 174.526 8.04047C174.376 8.19871 174.301 8.40145 174.301 8.64869C174.301 8.99484 174.445 9.28165 174.734 9.50911C175.023 9.72669 175.392 9.83548 175.843 9.83548Z" fill="white"/>
<path d="M187.417 7.47674H183.501V10.7552H182.115V3.33783H183.501V6.43831H187.417V3.33783H188.802V10.7552H187.417V7.47674Z" fill="white"/>
<path d="M65.8076 21.1544C66.2119 21.1347 66.6334 21.1099 67.0723 21.0803C67.5227 21.0506 68.077 21.0358 68.7353 21.0358C69.8787 21.0358 70.6987 21.1891 71.1953 21.4956C71.6919 21.7923 71.9402 22.2473 71.9402 22.8604C71.9402 23.2066 71.8189 23.5478 71.5764 23.884C71.3454 24.2104 70.9585 24.4527 70.4157 24.611V24.6703C71.0971 24.7791 71.5764 24.9818 71.8536 25.2785C72.1307 25.5752 72.2693 25.9708 72.2693 26.4653C72.2693 27.2367 71.9459 27.7955 71.2992 28.1416C70.6525 28.4878 69.6823 28.6609 68.3888 28.6609C67.9038 28.6609 67.4534 28.646 67.0376 28.6164C66.6218 28.5966 66.2119 28.5718 65.8076 28.5422V21.1544ZM67.1935 27.5631C67.413 27.5829 67.6266 27.5977 67.8345 27.6076C68.0539 27.6175 68.308 27.6224 68.5967 27.6224C69.3705 27.6224 69.9422 27.5285 70.3118 27.3406C70.6929 27.1526 70.8834 26.8312 70.8834 26.3763C70.8834 26.0203 70.7217 25.7335 70.3984 25.5159C70.0866 25.2884 69.5264 25.1747 68.718 25.1747H67.1935V27.5631ZM68.8912 24.2698C69.0991 24.2698 69.3012 24.2401 69.4976 24.1807C69.6939 24.1214 69.8671 24.0423 70.0173 23.9434C70.1789 23.8346 70.306 23.711 70.3984 23.5725C70.5023 23.4341 70.5543 23.2857 70.5543 23.1275C70.5543 22.7319 70.4157 22.4599 70.1385 22.3116C69.8613 22.1533 69.3763 22.0742 68.6833 22.0742C68.3138 22.0742 68.0193 22.0791 67.7998 22.089C67.592 22.0989 67.3899 22.1088 67.1935 22.1187V24.2698H68.8912Z" fill="white"/>
<path d="M79.071 21.1544C79.4752 21.1347 79.8967 21.1099 80.3356 21.0803C80.786 21.0506 81.3403 21.0358 81.9986 21.0358C83.142 21.0358 83.962 21.1891 84.4586 21.4956C84.9552 21.7923 85.2035 22.2473 85.2035 22.8604C85.2035 23.2066 85.0822 23.5478 84.8397 23.884C84.6087 24.2104 84.2218 24.4527 83.679 24.611V24.6703C84.3604 24.7791 84.8397 24.9818 85.1169 25.2785C85.3941 25.5752 85.5326 25.9708 85.5326 26.4653C85.5326 27.2367 85.2093 27.7955 84.5625 28.1416C83.9158 28.4878 82.9457 28.6609 81.6522 28.6609C81.1671 28.6609 80.7167 28.646 80.3009 28.6164C79.8852 28.5966 79.4752 28.5718 79.071 28.5422V21.1544ZM80.4568 27.5631C80.6763 27.5829 80.8899 27.5977 81.0978 27.6076C81.3173 27.6175 81.5713 27.6224 81.8601 27.6224C82.6338 27.6224 83.2055 27.5285 83.5751 27.3406C83.9562 27.1526 84.1468 26.8312 84.1468 26.3763C84.1468 26.0203 83.9851 25.7335 83.6617 25.5159C83.3499 25.2884 82.7897 25.1747 81.9813 25.1747H80.4568V27.5631ZM82.1546 24.2698C82.3624 24.2698 82.5645 24.2401 82.7609 24.1807C82.9572 24.1214 83.1304 24.0423 83.2806 23.9434C83.4423 23.8346 83.5693 23.711 83.6617 23.5725C83.7656 23.4341 83.8176 23.2857 83.8176 23.1275C83.8176 22.7319 83.679 22.4599 83.4018 22.3116C83.1247 22.1533 82.6396 22.0742 81.9467 22.0742C81.5771 22.0742 81.2826 22.0791 81.0632 22.089C80.8553 22.0989 80.6532 22.1088 80.4568 22.1187V24.2698H82.1546Z" fill="white"/>
<path d="M94.0389 27.9636C93.6924 28.201 93.2536 28.3889 92.7223 28.5273C92.2026 28.6658 91.6483 28.735 91.0593 28.735C90.401 28.735 89.8293 28.646 89.3442 28.468C88.8592 28.2801 88.4607 28.018 88.1489 27.6818C87.8371 27.3356 87.6061 26.9252 87.456 26.4505C87.3058 25.9758 87.2308 25.4417 87.2308 24.8483C87.2308 23.5824 87.5599 22.6181 88.2182 21.9555C88.8765 21.2929 89.8177 20.9616 91.0419 20.9616C91.4346 20.9616 91.8273 21.0011 92.2199 21.0803C92.6126 21.1495 92.9648 21.288 93.2767 21.4956C93.5885 21.7033 93.8426 22 94.0389 22.3857C94.2352 22.7615 94.3334 23.261 94.3334 23.884C94.3334 24.2104 94.2988 24.5714 94.2295 24.967H88.6686C88.6686 25.4021 88.7206 25.7878 88.8245 26.1241C88.9285 26.4604 89.0901 26.7472 89.3096 26.9845C89.529 27.212 89.812 27.39 90.1584 27.5186C90.5164 27.6373 90.9495 27.6966 91.4577 27.6966C91.8504 27.6966 92.243 27.6373 92.6357 27.5186C93.0284 27.3999 93.3229 27.2614 93.5192 27.1032L94.0389 27.9636ZM91.0593 22C90.3779 22 89.8293 22.1533 89.4135 22.4599C89.0093 22.7665 88.7668 23.2907 88.6859 24.0324H92.9822C92.9822 23.2808 92.8147 22.7566 92.4798 22.4599C92.1449 22.1533 91.6714 22 91.0593 22Z" fill="white"/>
<path d="M97.3098 22.4599C97.6909 21.9852 98.1125 21.6539 98.5744 21.466C99.0364 21.2682 99.6138 21.1693 100.307 21.1693C101.369 21.1693 102.183 21.466 102.749 22.0594C103.327 22.6528 103.616 23.528 103.616 24.6851C103.616 26.0203 103.281 27.029 102.611 27.7114C101.953 28.3938 101.029 28.735 99.839 28.735C98.5686 28.735 97.6158 28.3592 96.9807 27.6076C96.3455 26.856 96.0279 25.6741 96.0279 24.0621C96.0279 23.2115 96.0741 22.4846 96.1664 21.8813C96.2704 21.2781 96.4147 20.7687 96.5995 20.3534C96.7959 19.938 97.0268 19.6067 97.2925 19.3594C97.5696 19.1122 97.8757 18.9193 98.2106 18.7809C98.5571 18.6325 98.9324 18.5287 99.3367 18.4693C99.7409 18.41 100.174 18.3605 100.636 18.321C101.236 18.2715 101.704 18.2171 102.039 18.1578C102.386 18.0886 102.663 17.9699 102.871 17.8018L103.027 18.8699C102.911 18.9589 102.784 19.0331 102.645 19.0924C102.507 19.1517 102.339 19.2012 102.143 19.2407C101.947 19.2803 101.71 19.3149 101.433 19.3446C101.167 19.3743 100.855 19.399 100.497 19.4188C100.001 19.4484 99.5619 19.5028 99.1807 19.5819C98.8112 19.6512 98.4878 19.7946 98.2106 20.0122C97.945 20.2198 97.7313 20.5215 97.5697 20.9171C97.4195 21.3028 97.3156 21.8171 97.2578 22.4599H97.3098ZM97.4657 24.8631C97.4657 25.239 97.5119 25.5999 97.6043 25.9461C97.6967 26.2922 97.8353 26.5988 98.0201 26.8658C98.2164 27.123 98.4647 27.3257 98.765 27.4741C99.0652 27.6224 99.4175 27.6966 99.8217 27.6966C100.619 27.6966 101.208 27.4543 101.589 26.9697C101.981 26.4752 102.178 25.7483 102.178 24.789C102.178 24.4132 102.137 24.067 102.056 23.7505C101.976 23.4341 101.849 23.1621 101.675 22.9346C101.502 22.6973 101.283 22.5192 101.017 22.4006C100.751 22.272 100.434 22.2077 100.064 22.2077C99.1634 22.1978 98.5051 22.4253 98.0894 22.8901C97.6736 23.345 97.4657 24.0027 97.4657 24.8631Z" fill="white"/>
<path d="M116.326 28.0675C115.98 28.285 115.57 28.4482 115.096 28.557C114.623 28.6757 114.126 28.735 113.607 28.735C112.937 28.735 112.371 28.646 111.909 28.468C111.447 28.2801 111.066 28.018 110.766 27.6818C110.477 27.3356 110.263 26.9252 110.125 26.4505C109.998 25.9659 109.934 25.4318 109.934 24.8483C109.934 23.5923 110.257 22.633 110.904 21.9704C111.551 21.2978 112.481 20.9616 113.693 20.9616C114.248 20.9616 114.715 21.0011 115.096 21.0803C115.489 21.1495 115.841 21.2533 116.153 21.3918L115.755 22.4154C115.489 22.2868 115.195 22.1879 114.871 22.1187C114.548 22.0396 114.201 22 113.832 22C112.192 22 111.372 22.9495 111.372 24.8483C111.372 25.2241 111.412 25.5851 111.493 25.9312C111.586 26.2675 111.73 26.5691 111.926 26.8362C112.134 27.0933 112.4 27.301 112.723 27.4592C113.058 27.6175 113.468 27.6966 113.953 27.6966C114.369 27.6966 114.738 27.6422 115.062 27.5334C115.397 27.4246 115.668 27.301 115.876 27.1625L116.326 28.0675Z" fill="white"/>
<path d="M123.491 22.178H120.771V28.557H119.385V22.178H116.665V21.1396H123.491V22.178Z" fill="white"/>
<path d="M127.413 25.9461L127.898 27.3702H127.985L128.366 25.9312L130.046 21.1396H131.45L128.886 27.8004C128.689 28.285 128.493 28.7548 128.297 29.2097C128.112 29.6647 127.904 30.0702 127.673 30.4262C127.442 30.7822 127.182 31.0641 126.894 31.2718C126.605 31.4894 126.27 31.5981 125.889 31.5981C125.473 31.5981 125.132 31.5487 124.867 31.4498L125.109 30.4262C125.259 30.4756 125.404 30.5004 125.542 30.5004C125.866 30.5004 126.177 30.352 126.478 30.0553C126.778 29.7685 127.026 29.2691 127.223 28.557L123.741 21.1396H125.334L127.413 25.9461Z" fill="white"/>
<path d="M140.356 30.441H139.421L139.161 28.557H132.647L132.388 30.441H131.452V27.5186H132.474C132.567 27.4098 132.688 27.2169 132.838 26.94C132.988 26.6532 133.133 26.2576 133.271 25.7532C133.421 25.239 133.548 24.606 133.652 23.8544C133.768 23.0929 133.837 22.1879 133.86 21.1396H139.092V27.5186H140.356V30.441ZM137.706 27.5186V22.178H135.107C135.084 22.5934 135.044 23.0483 134.986 23.5428C134.928 24.0274 134.848 24.517 134.744 25.0115C134.651 25.4961 134.53 25.956 134.38 26.3911C134.23 26.8263 134.056 27.2021 133.86 27.5186H137.706Z" fill="white"/>
<path d="M147.477 24.1659L147.529 23.2461H147.477L146.766 24.1956L142.869 28.557H142.072V21.1396H143.458V25.6642L143.406 26.5395H143.475L144.151 25.6197L148.048 21.1396H148.863V28.557H147.477V24.1659Z" fill="white"/>
<path d="M156.934 24.1659L156.986 23.2461H156.934L156.223 24.1956L152.326 28.557H151.529V21.1396H152.915V25.6642L152.863 26.5395H152.932L153.607 25.6197L157.505 21.1396H158.319V28.557H156.934V24.1659Z" fill="white"/>
<path d="M167.794 25.1302L168.072 26.851H168.089L168.383 25.1005L170.878 18.1726H171.571L174.083 25.1302L174.377 26.851H174.395L174.707 25.1005L176.751 18.1726H178.154L174.776 28.7202H173.979L171.519 21.7627L171.207 20.1902H171.121L170.809 21.7775L168.349 28.7202H167.552L164.087 18.1726H165.612L167.794 25.1302Z" fill="white"/>
<path d="M182.141 25.1302L182.418 26.851H182.435L182.73 25.1005L185.224 18.1726H185.917L188.429 25.1302L188.723 26.851H188.741L189.053 25.1005L191.097 18.1726H192.5L189.122 28.7202H188.325L185.865 21.7627L185.553 20.1902H185.467L185.155 21.7775L182.695 28.7202H181.898L178.433 18.1726H179.958L182.141 25.1302Z" fill="white"/>
<path fill-rule="evenodd" clip-rule="evenodd" d="M13.322 6.48032L25.1824 16.0941V0.503418H26.644V19.1768L13.322 8.36539L0 19.1768V0.503418H1.46152V16.0941L13.322 6.48032Z" fill="white"/>
<path fill-rule="evenodd" clip-rule="evenodd" d="M25.3059 27.4699L24.3728 28.5566L13.3218 19.6189L2.27072 28.5566L1.33765 27.4699L13.3218 17.6895L25.3059 27.4699Z" fill="white"/>
<path fill-rule="evenodd" clip-rule="evenodd" d="M42.8887 6.47983L54.7492 16.0936V0.50293H56.2106V19.1763L42.8887 8.3649L29.5667 19.1763V0.50293H31.0282V16.0936L42.8887 6.47983Z" fill="white"/>
<path fill-rule="evenodd" clip-rule="evenodd" d="M54.8729 27.4699L53.9397 28.5566L42.8888 19.6189L31.8376 28.5566L30.9045 27.4699L42.8888 17.6895L54.8729 27.4699Z" fill="white"/>
</g>
</svg>
