<svg width="114" height="114" viewBox="0 0 114 114" fill="none" xmlns="http://www.w3.org/2000/svg">
<path d="M113.139 57.0001C113.139 26.0031 87.997 0.861084 57.0001 0.861084C26.0031 0.861084 0.861084 26.0031 0.861084 57.0001C0.861084 87.997 26.0031 113.139 57.0001 113.139C87.997 113.139 113.139 87.997 113.139 57.0001Z" fill="#0066B3" stroke="white" stroke-miterlimit="10"/>
<path d="M45.6345 75.426C45.6345 70.2598 41.3294 65.9547 36.1632 65.9547C30.997 65.9547 26.6919 70.2598 26.6919 75.426C26.6919 80.5922 30.997 84.8973 36.1632 84.8973C41.3294 84.8973 45.6345 80.5922 45.6345 75.426Z" stroke="white" stroke-miterlimit="10"/>
<path d="M40.1238 75.4261C40.1238 73.1874 38.4018 71.4653 36.1631 71.4653C33.9244 71.4653 32.2024 73.1874 32.2024 75.4261C32.2024 77.6647 33.9244 79.3868 36.1631 79.3868C38.4018 79.3868 40.1238 77.4925 40.1238 75.4261Z" stroke="white" stroke-miterlimit="10"/>
<path d="M83.0031 71.8098C83.0031 68.7101 80.5922 66.2992 77.4925 66.2992C74.3928 66.2992 71.9819 68.7101 71.9819 71.8098C71.9819 74.9095 74.3928 77.3204 77.4925 77.3204C80.5922 77.3204 83.0031 74.9095 83.0031 71.8098Z" stroke="white" stroke-miterlimit="10"/>
<path d="M90.58 71.8097C90.58 64.577 84.725 58.722 77.4924 58.722C70.2598 58.722 64.4048 64.577 64.4048 71.8097C64.4048 79.0423 70.2598 84.8973 77.4924 84.8973C84.725 84.8973 90.58 79.0423 90.58 71.8097Z" stroke="white" stroke-miterlimit="10"/>
<path d="M48.0454 70.4321H61.8218" stroke="white" stroke-miterlimit="10"/>
<path d="M45.1179 63.1995H26.6919V49.2508L51.6617 46.1511L59.2387 29.1028H80.5922V55.6224H89.3747V59.9276" stroke="white" stroke-miterlimit="10"/>
<path d="M56.6555 47.1843L62.6827 32.0303H76.9758V52.1783L72.3262 54.0726H60.2718L56.6555 47.1843Z" stroke="white" stroke-miterlimit="10"/>
<path d="M35.9911 37.1964H31.8582V45.8067L35.9911 44.9457V37.1964Z" stroke="white" stroke-miterlimit="10"/>
<path d="M33.9246 30.4803V34.6133" stroke="white" stroke-miterlimit="10"/>
<path d="M58.0332 26.0031H81.6254" stroke="white" stroke-miterlimit="10"/>
<path d="M54.9337 55.1058H48.3899V68.0212H54.9337V55.1058Z" stroke="white" stroke-miterlimit="10"/>
<path d="M23.5922 70.4321H16.8762V76.9759H23.5922V70.4321Z" stroke="white" stroke-miterlimit="10"/>
<path d="M23.5922 48.5619H20.8369V68.0211H23.5922V48.5619Z" stroke="white" stroke-miterlimit="10"/>
</svg>
