<svg width="84" height="84" viewBox="0 0 84 84" fill="none" xmlns="http://www.w3.org/2000/svg">
<g clip-path="url(#clip0)">
<path d="M80.186 57.9063C88.9724 36.8176 78.9994 12.599 57.9107 3.81256C36.8219 -4.97384 12.6033 4.99917 3.81691 26.0879C-4.9695 47.1767 5.00352 71.3952 26.0923 80.1817C47.181 88.9681 71.3996 78.995 80.186 57.9063Z" fill="#0066B3" stroke="white" stroke-miterlimit="10"/>
<path d="M68.2655 33.2446H15.6069V61.5407H68.2655V33.2446Z" stroke="white" stroke-miterlimit="10"/>
<path d="M66.616 34.894H17.5103V59.891H66.616V34.894Z" stroke="white" stroke-miterlimit="10"/>
<path d="M22.9663 36.7974V57.8608" stroke="white" stroke-miterlimit="10"/>
<path d="M30.5796 36.7974V57.8608" stroke="white" stroke-miterlimit="10"/>
<path d="M38.1929 36.7974V57.8608" stroke="white" stroke-miterlimit="10"/>
<path d="M45.8062 36.7974V57.8608" stroke="white" stroke-miterlimit="10"/>
<path d="M53.4194 36.7974V57.8608" stroke="white" stroke-miterlimit="10"/>
<path d="M61.0327 36.7974V57.8608" stroke="white" stroke-miterlimit="10"/>
<path d="M16.6221 29.0574L34.6402 12.4351" stroke="white" stroke-miterlimit="10"/>
<path d="M67.3775 29.0574L49.3594 12.4351" stroke="white" stroke-miterlimit="10"/>
<path d="M17.3834 29.8188H15.6069V32.1028H17.3834V29.8188Z" stroke="white" stroke-miterlimit="10"/>
<path d="M68.2657 29.8188H66.4893V32.1028H68.2657V29.8188Z" stroke="white" stroke-miterlimit="10"/>
</g>
<defs>
<clipPath id="clip0">
<rect width="84" height="84" fill="white"/>
</clipPath>
</defs>
</svg>
