<svg width="84" height="84" viewBox="0 0 84 84" fill="none" xmlns="http://www.w3.org/2000/svg">
<path d="M83.3654 41.9998C83.3654 19.16 64.8397 0.634277 41.9998 0.634277C19.16 0.634277 0.634277 19.16 0.634277 41.9998C0.634277 64.8397 19.16 83.3654 41.9998 83.3654C64.8397 83.3654 83.3654 64.8397 83.3654 41.9998Z" fill="#0066B3" stroke="white" stroke-miterlimit="10"/>
<path d="M37.9391 42.2534H29.6914V50.5012H37.9391V42.2534Z" stroke="white" stroke-miterlimit="10"/>
<path d="M46.1872 34.1328H37.9395V42.3806H46.1872V34.1328Z" stroke="white" stroke-miterlimit="10"/>
<path d="M54.3078 42.2534H46.0601V50.5012H54.3078V42.2534Z" stroke="white" stroke-miterlimit="10"/>
<path d="M29.8185 34.1328H21.5708V42.3806H29.8185V34.1328Z" stroke="white" stroke-miterlimit="10"/>
<path d="M62.5558 34.1328H54.3081V42.3806H62.5558V34.1328Z" stroke="white" stroke-miterlimit="10"/>
<path d="M20.0483 26.7734H63.9517" stroke="white" stroke-miterlimit="10"/>
<path d="M18.5254 57.2266H65.3471" stroke="white" stroke-miterlimit="10"/>
</svg>
