<svg width="24" height="23" viewBox="0 0 24 23" fill="none" xmlns="http://www.w3.org/2000/svg">
<path d="M17.981 0H6C2.70476 0 0 2.59206 0 5.76825V17.25C0 20.4079 2.70476 23 6 23H17.981C21.2952 23 24 20.4079 24 17.2317V5.76825C24 2.59206 21.2952 0 17.981 0ZM11.3524 4.72778C11.3905 4.1619 11.9429 4.3627 12.2286 4.32619C15.8095 4.43571 18.8952 7.52064 18.8571 10.8429C18.8571 11.1714 18.9714 11.646 18.4571 11.646C17.9619 11.646 18.0952 11.1532 18.0381 10.8246C17.5619 7.30159 15.8476 5.64048 12.1143 5.09286C11.8095 5.05635 11.3333 5.11111 11.3524 4.72778ZM16.7048 10.9889C16.1333 11.0619 16.2476 10.5873 16.1905 10.277C15.8095 8.12302 15.0095 7.3381 12.7048 6.86349C12.3619 6.79048 11.8286 6.84524 11.9238 6.35238C12 5.87778 12.4762 6.04206 12.8381 6.07857C15.1429 6.33413 17.0286 8.21429 17.0095 10.277C16.9714 10.496 17.1238 10.9159 16.7048 10.9889ZM15.2762 9.85714C15.2762 10.1492 15.2381 10.423 14.8952 10.4595C14.6476 10.496 14.4952 10.2952 14.4571 10.0579C14.3619 9.18175 13.8667 8.65238 12.9143 8.50635C12.6286 8.46984 12.3619 8.37857 12.4952 8.01349C12.5905 7.77619 12.819 7.73968 13.0667 7.73968C14.0952 7.72143 15.2762 8.87143 15.2762 9.85714ZM18.8952 16.5929C18.4952 17.6333 17.1429 18.6921 15.981 18.6738C15.8095 18.6373 15.4857 18.5825 15.2 18.473C10.0952 16.4103 6.38095 13.0151 4.28571 8.15952C3.58095 6.53492 4.32381 5.14762 6.09524 4.6C6.41905 4.49048 6.72381 4.49048 7.04762 4.6C7.80952 4.85556 9.73333 7.35635 9.77143 8.08651C9.80952 8.65238 9.39048 8.9627 8.99048 9.21825C8.20952 9.71111 8.20952 10.3317 8.55238 11.0437C9.29524 12.6135 10.5714 13.7087 12.2286 14.4024C12.819 14.6579 13.4095 14.6397 13.8095 14.0556C14.5333 13.0151 15.4286 13.0698 16.4 13.7087C16.8952 14.0373 17.3905 14.3476 17.8476 14.6944C18.4762 15.1873 19.2762 15.5889 18.8952 16.5929Z" fill="#0066B3"/>
</svg>
