<svg width="114" height="118" viewBox="0 0 114 118" fill="none" xmlns="http://www.w3.org/2000/svg">
<g clip-path="url(#clip0)">
<path d="M113.139 58.7362C113.139 26.7995 87.997 0.895264 57.0001 0.895264C26.0031 0.895264 0.861084 26.7995 0.861084 58.7362C0.861084 90.6729 26.0031 116.577 57.0001 116.577C87.997 116.577 113.139 90.6729 113.139 58.7362Z" fill="#0066B3" stroke="white" stroke-width="0.9888" stroke-miterlimit="10"/>
<path d="M34.0965 70.4469H32.7189L30.9968 66.0112H24.7975L23.0754 70.4469H21.6978L27.2083 56.2528H28.586L34.0965 70.4469ZM27.8972 57.4948L25.1419 64.7692H30.6524L27.8972 57.4948Z" fill="white"/>
<path d="M87.1358 59.6238H80.592V45.4297H90.0633V46.4942H81.9697V51.4622H87.1358C89.7189 51.4622 91.2688 53.059 91.2688 55.543C91.2688 58.0269 89.7189 59.6238 87.1358 59.6238ZM86.9636 52.7042H82.1419V58.5592H86.9636C88.8579 58.5592 90.0633 57.4947 90.0633 55.543C89.8911 53.7687 88.8579 52.7042 86.9636 52.7042Z" fill="white"/>
<path d="M40.6404 50.9301H16.1873V76.1246H40.6404V50.9301Z" stroke="white" stroke-width="0.9888" stroke-miterlimit="10"/>
<path d="M97.8125 40.9941H73.3594V66.1886H97.8125V40.9941Z" stroke="white" stroke-width="0.9888" stroke-miterlimit="10"/>
<path d="M28.4138 50.93C28.4138 42.7684 34.7854 36.2036 42.7069 36.2036" stroke="white" stroke-width="0.9888" stroke-miterlimit="10" stroke-dasharray="2.97 2.97"/>
<path d="M42.7068 36.2036C50.6282 36.2036 56.9998 39.5747 56.9998 58.7367" stroke="white" stroke-width="0.9888" stroke-miterlimit="10" stroke-dasharray="2.97 2.97"/>
<path d="M85.2418 66.5435C85.2418 74.7051 78.8702 81.2698 70.9487 81.2698" stroke="white" stroke-width="0.9888" stroke-miterlimit="10" stroke-dasharray="2.97 2.97"/>
<path d="M71.1209 81.0925C63.1995 81.0925 56.8279 77.7214 56.8279 58.5593" stroke="white" stroke-width="0.9888" stroke-miterlimit="10" stroke-dasharray="2.97 2.97"/>
</g>
<defs>
<clipPath id="clip0">
<rect width="114" height="117.456" fill="white" transform="translate(0 0.00878906)"/>
</clipPath>
</defs>
</svg>
