<svg width="177" height="61" viewBox="0 0 177 61" fill="none" xmlns="http://www.w3.org/2000/svg">
<g clip-path="url(#clip0)">
<path d="M177 58.1628C177 59.6996 175.699 61 174.162 61H2.83768C1.3006 61 0 59.6996 0 58.1628V2.83721C0 1.30039 1.3006 0 2.83768 0H174.162C175.699 0 177 1.30039 177 2.83721V58.1628Z" fill="url(#paint0_linear)"/>
<path d="M97.427 15.6047H86.1945L85.958 17.1415C85.8398 17.969 85.7216 18.3236 85.3668 19.2694C86.9039 17.969 88.5592 17.4961 90.6875 17.4961C95.7717 17.4961 98.964 20.5698 98.964 25.5349C98.964 32.0368 93.8799 34.6376 88.2045 34.6376C82.5292 34.6376 77.9179 32.5097 77.5632 26.4806H84.421C84.5392 28.1357 85.8398 29.0814 88.0863 29.0814C90.451 29.0814 91.8699 27.781 91.8699 25.6531C91.8699 23.407 90.5693 22.2248 88.0863 22.2248C86.431 22.2248 85.4851 22.8159 84.7757 23.9981H78.3909L80.8739 9.93024H97.5452V15.6047H97.427Z" fill="white"/>
<path d="M116.936 19.9787V34.283H112.561V23.6434H109.96V24.4709C109.96 28.6085 110.078 34.5194 104.994 34.5194C104.403 34.5194 103.812 34.4012 103.22 34.1647V30.7364C103.457 30.8547 103.812 30.9729 104.048 30.9729C105.585 30.9729 105.585 28.3721 105.585 26.0078V19.8605H116.936V19.9787Z" fill="white"/>
<path d="M131.479 23.407H123.912V25.1802H130.77V28.4903H123.912V30.6182H131.715V34.283H119.537V19.9787H131.479V23.407Z" fill="white"/>
<path d="M145.549 23.6434H141.529V34.283H137.155V23.6434H133.135V19.9787H145.549V23.6434Z" fill="white"/>
<path d="M80.4007 51.7791H77.4448V42.2035H84.6572V44.686H80.4007V51.7791Z" fill="white"/>
<path d="M93.4067 51.7791H90.4508L89.9779 50.4787H86.9037L86.4308 51.7791H83.4749L87.0219 42.2035H89.8596L93.4067 51.7791ZM88.7955 46.814C88.559 46.1046 88.559 45.9864 88.4408 45.3954C88.3226 46.1047 88.2043 46.2229 88.0861 46.814C88.0861 46.814 87.8496 47.5233 87.6131 48.469H89.3867C89.1502 47.8779 88.7955 46.814 88.7955 46.814Z" fill="white"/>
<path d="M98.2543 42.2035C100.383 42.2035 102.393 42.7946 102.393 45.6318C102.393 47.8779 100.856 48.8236 98.7273 48.8236H96.9537V51.7791H93.9978V42.2035H98.2543ZM97.072 46.5775H98.4908C99.2002 46.5775 99.6732 46.3411 99.6732 45.5136C99.6732 44.8043 99.3185 44.4496 98.3726 44.4496H97.072V46.5775Z" fill="white"/>
<path d="M111.615 51.7791H108.659L108.186 50.4787H105.112L104.639 51.7791H101.683L105.23 42.2035H108.186L111.615 51.7791ZM107.004 46.814C106.768 46.1046 106.768 45.9864 106.649 45.3954C106.531 46.1047 106.413 46.2229 106.295 46.814C106.295 46.814 106.058 47.5233 105.822 48.469H107.595C107.359 47.8779 107.004 46.814 107.004 46.814Z" fill="white"/>
<path d="M120.956 51.7791H118V47.9961H115.28V51.7791H112.324V42.2035H115.28V45.3954H118V42.2035H120.956V51.7791Z" fill="white"/>
<path d="M130.415 44.686H127.695V51.7791H124.739V44.686H122.02V42.2035H130.297V44.686H130.415Z" fill="white"/>
<path d="M140.11 51.7791H137.273V48.1143C137.273 47.5233 137.273 46.3411 137.391 45.75L134.553 51.6608H131.361V42.0853H134.199V45.75C134.199 46.3411 134.199 47.2868 134.08 47.9961L136.8 42.0853H139.992V51.7791H140.11Z" fill="white"/>
<path d="M147.323 51.7791V48.3508H146.495L144.485 51.7791H140.938L143.657 47.7597C142.593 47.405 141.884 46.3411 141.884 45.1589C141.884 43.5039 142.83 42.2035 145.785 42.2035H150.16V51.7791H147.323ZM147.323 44.4496H145.785C145.076 44.4496 144.721 44.8043 144.721 45.3954C144.721 45.9864 145.076 46.3411 145.785 46.3411H147.323V44.4496Z" fill="white"/>
<path d="M32.8698 51.7791C24.8297 51.7791 11.942 35.7016 11.8237 16.6686V15.1318L13.3608 14.8953C19.982 13.8314 26.2486 11.7035 32.0422 8.51163L32.8698 8.03876L33.6975 8.51163C39.4911 11.7035 45.7576 13.9496 52.3788 14.8953L51.7877 18.4419C45.1664 17.3779 38.7816 15.25 32.7516 12.0581C27.3127 15.0136 21.4009 17.0233 15.2526 18.2054C15.962 35.7016 27.6674 48.3508 32.7516 48.3508V51.7791H32.8698Z" fill="white"/>
<path d="M61.3649 24.5891H32.8699V28.7267H61.3649V24.5891Z" fill="white"/>
<path d="M55.6895 32.5097H32.8699V36.1744H55.6895V32.5097Z" fill="white"/>
<path d="M50.9601 39.4845H32.8699V42.7946H50.9601V39.4845Z" fill="white"/>
<path d="M199.465 277.574L-369.607 -291.405L-1211.92 550.655L-642.733 1119.63L199.465 277.574Z" fill="url(#paint1_linear)"/>
</g>
<defs>
<linearGradient id="paint0_linear" x1="0" y1="30.5026" x2="177.057" y2="30.5026" gradientUnits="userSpaceOnUse">
<stop stop-color="#96345F"/>
<stop offset="1" stop-color="#D84245"/>
</linearGradient>
<linearGradient id="paint1_linear" x1="-1273.36" y1="414.108" x2="2.13931" y2="-160.435" gradientUnits="userSpaceOnUse">
<stop stop-color="#0C62A8"/>
<stop offset="0.2393" stop-color="#0E5FA3"/>
<stop offset="0.4399" stop-color="#125997"/>
<stop offset="0.6265" stop-color="#154F86"/>
<stop offset="0.8047" stop-color="#154170"/>
<stop offset="0.9754" stop-color="#123055"/>
<stop offset="1" stop-color="#112D51"/>
</linearGradient>
<clipPath id="clip0">
<rect width="177" height="61" rx="5" fill="white"/>
</clipPath>
</defs>
</svg>
