<svg width="36" height="36" viewBox="0 0 36 36" fill="none" xmlns="http://www.w3.org/2000/svg">
<path d="M24.7548 18.0491C24.7565 18.3438 24.6998 18.6359 24.5878 18.9088C24.4758 19.1816 24.3108 19.4297 24.1023 19.639L15.1023 28.5963C14.8925 28.8051 14.6435 28.9707 14.3694 29.0837C14.0953 29.1967 13.8015 29.2549 13.5048 29.2549C13.2081 29.2549 12.9143 29.1967 12.6402 29.0837C12.3661 28.9707 12.1171 28.8051 11.9073 28.5963C11.6975 28.3875 11.5311 28.1396 11.4176 27.8668C11.304 27.594 11.2456 27.3017 11.2456 27.0064C11.2456 26.7111 11.304 26.4187 11.4176 26.1459C11.5311 25.8731 11.6975 25.6253 11.9073 25.4165L19.3548 18.0491L12.1998 10.6593C11.9697 10.4533 11.7847 10.2022 11.6565 9.92182C11.5283 9.64143 11.4595 9.33772 11.4546 9.02969C11.4497 8.72166 11.5087 8.41594 11.628 8.13165C11.7472 7.84735 11.9241 7.5906 12.1476 7.37745C12.3711 7.1643 12.6363 6.99932 12.9268 6.89286C13.2172 6.78639 13.5266 6.74072 13.8357 6.7587C14.1447 6.77668 14.4466 6.85792 14.7226 6.99734C14.9987 7.13676 15.2428 7.33136 15.4398 7.56898L24.1248 16.5263C24.5215 16.9358 24.7468 17.4803 24.7548 18.0491Z" fill="white"/>
</svg>
