<svg width="36" height="36" viewBox="0 0 36 36" fill="none" xmlns="http://www.w3.org/2000/svg">
<path fill-rule="evenodd" clip-rule="evenodd" d="M9.50256 24.0692C8.83215 24.7396 8.83215 25.8266 9.50256 26.497C10.173 27.1674 11.2599 27.1674 11.9303 26.497L17.9998 20.4275L24.0696 26.4972C24.74 27.1676 25.8269 27.1676 26.4973 26.4972C27.1677 25.8268 27.1677 24.7399 26.4973 24.0695L20.4276 17.9997L26.4968 11.9305C27.1672 11.2601 27.1672 10.1731 26.4968 9.50274C25.8264 8.83234 24.7395 8.83234 24.0691 9.50274L17.9998 15.572L11.9308 9.50297C11.2604 8.83257 10.1735 8.83257 9.50306 9.50297C8.83265 10.1734 8.83265 11.2603 9.50306 11.9307L15.5721 17.9997L9.50256 24.0692Z" fill="white"/>
</svg>
