<svg width="144" height="148" viewBox="0 0 144 148" fill="none" xmlns="http://www.w3.org/2000/svg">
<g filter="url(#filter0_dd)">
<path d="M128.466 73.938C128.466 41.9843 103.247 16 72.2332 16C41.2197 16 16 41.9843 16 73.938C16 105.892 41.2197 131.876 72.2332 131.876C103.417 131.7 128.466 105.892 128.466 73.938Z" fill="white" stroke="white" stroke-miterlimit="10"/>
</g>
<g clip-path="url(#clip0)">
<path d="M101.761 91.4663C101.788 91.461 101.814 91.4538 101.84 91.447C101.862 91.4413 101.885 91.4365 101.907 91.4298C101.932 91.422 101.958 91.4123 101.983 91.4033C102.005 91.3953 102.027 91.3881 102.049 91.3788C102.073 91.369 102.095 91.3575 102.118 91.3466C102.141 91.3359 102.164 91.3261 102.186 91.3142C102.208 91.3025 102.228 91.2891 102.25 91.2764C102.272 91.2633 102.294 91.2509 102.315 91.2366C102.338 91.2214 102.359 91.2045 102.381 91.1881C102.4 91.1744 102.418 91.1614 102.436 91.1467C102.47 91.1193 102.501 91.0902 102.532 91.0602C102.538 91.0549 102.544 91.0504 102.549 91.0448C102.555 91.0391 102.56 91.0327 102.565 91.0268C102.595 90.9964 102.624 90.9652 102.651 90.9323C102.667 90.913 102.68 90.8929 102.695 90.873C102.71 90.8525 102.726 90.8325 102.741 90.8112C102.756 90.7884 102.769 90.7648 102.783 90.7414C102.795 90.7217 102.807 90.7024 102.818 90.6821C102.831 90.6584 102.842 90.634 102.853 90.61C102.863 90.5886 102.874 90.5675 102.883 90.5455C102.893 90.5219 102.9 90.4979 102.909 90.4739C102.918 90.4505 102.927 90.4273 102.934 90.4035C102.941 90.3792 102.946 90.3546 102.953 90.33C102.959 90.3057 102.966 90.2819 102.97 90.2575C102.976 90.2285 102.98 90.1994 102.984 90.1702C102.986 90.1497 102.99 90.1294 102.992 90.1087C102.998 90.0575 103 90.0064 103 89.9551V57.0437C103 56.1932 102.311 55.504 101.46 55.504H52.9582C52.9446 55.504 52.9315 55.5056 52.9179 55.506C52.8886 55.5068 52.8594 55.5081 52.8303 55.5105C52.8071 55.5124 52.7841 55.5151 52.7611 55.5181C52.7348 55.5214 52.7087 55.5253 52.6827 55.53C52.6582 55.5344 52.634 55.5395 52.61 55.545C52.5856 55.5508 52.5611 55.5569 52.5369 55.5639C52.5129 55.5707 52.4893 55.5781 52.4659 55.5859C52.4418 55.5941 52.4178 55.6027 52.3942 55.6122C52.3718 55.621 52.3499 55.63 52.3281 55.6399C52.3039 55.6508 52.2799 55.6625 52.2561 55.6746C52.2357 55.685 52.2158 55.6957 52.1961 55.707C52.1723 55.7206 52.1489 55.7349 52.1257 55.7497C52.1066 55.762 52.0879 55.7748 52.0694 55.7877C52.0477 55.8031 52.0261 55.8191 52.005 55.8359C51.9857 55.8513 51.9668 55.8671 51.9481 55.8834C51.9296 55.8996 51.9114 55.9158 51.8935 55.933C51.8732 55.9525 51.8537 55.9729 51.8344 55.9934C51.8247 56.0037 51.8144 56.0127 51.8052 56.0232C51.7997 56.0293 51.7954 56.0361 51.79 56.0423C51.7707 56.0646 51.7527 56.088 51.7346 56.1117C51.7214 56.1289 51.7079 56.1461 51.6956 56.1638C51.6796 56.1868 51.6648 56.2104 51.65 56.2342C51.6379 56.2537 51.6254 56.273 51.6143 56.2929C51.6013 56.3159 51.5901 56.3395 51.5784 56.3632C51.5677 56.3847 51.5566 56.4063 51.5469 56.4282C51.5369 56.4514 51.5281 56.4755 51.5192 56.4991C51.5104 56.5223 51.5014 56.5453 51.4938 56.5687C51.4862 56.5923 51.48 56.6163 51.4734 56.6403C51.4669 56.6649 51.4599 56.6894 51.4544 56.7142C51.4492 56.7374 51.4457 56.761 51.4416 56.7844C51.4371 56.8111 51.4326 56.8378 51.4293 56.8645C51.4266 56.8867 51.4254 56.9093 51.4238 56.9318C51.4217 56.9606 51.4199 56.9893 51.4194 57.0183C51.4192 57.0267 51.4182 57.0349 51.4182 57.0433V66.5389C51.4182 67.3894 52.1074 68.0786 52.958 68.0786C53.8085 68.0786 54.4977 67.3894 54.4977 66.5389V60.463L68.1874 72.5834C68.1159 72.6336 68.0472 72.6893 67.9831 72.7531L54.4975 86.2387V76.1199C54.4975 75.2693 53.8083 74.5801 52.9578 74.5801C52.1072 74.5801 51.418 75.2693 51.418 76.1199V78.0012H43.4626C42.612 78.0012 41.9229 78.6904 41.9229 79.541C41.9229 80.3916 42.612 81.0808 43.4626 81.0808H51.418V89.9561C51.418 90.8067 52.1072 91.4959 52.9578 91.4959H101.46C101.511 91.4959 101.561 91.4932 101.612 91.4883C101.636 91.486 101.658 91.4815 101.682 91.4782C101.708 91.4745 101.735 91.4714 101.761 91.4663ZM99.9205 86.2389L86.4347 72.7533C86.4261 72.7447 86.4169 72.7375 86.408 72.7293L96.5464 64.1278C97.1947 63.5776 97.2744 62.6061 96.7242 61.9576C96.1744 61.3095 95.2029 61.2294 94.554 61.7798L77.2305 76.4773L57.0199 58.5837H99.9205V86.2389ZM70.161 74.9312C70.2708 74.8213 70.3599 74.699 70.4295 74.5688L76.1884 79.6675C76.4795 79.9251 76.8441 80.0545 77.2091 80.0545C77.5635 80.0545 77.9176 79.9327 78.2055 79.6888L84.0744 74.7094C84.1278 74.7875 84.1879 74.862 84.2571 74.9312L97.7427 88.4168H56.6754L70.161 74.9312Z" fill="#0066B3"/>
<path d="M33.5398 73.0399H59.5446C60.3952 73.0399 61.0844 72.3507 61.0844 71.5001C61.0844 70.6496 60.3952 69.9604 59.5446 69.9604H33.5398C32.6892 69.9604 32 70.6496 32 71.5001C32 72.3507 32.6892 73.0399 33.5398 73.0399Z" fill="#0066B3"/>
<path d="M36.2343 64.5547H47.9108C48.7614 64.5547 49.4506 63.8655 49.4506 63.0149C49.4506 62.1644 48.7614 61.4752 47.9108 61.4752H36.2343C35.3838 61.4752 34.6946 62.1644 34.6946 63.0149C34.6946 63.8655 35.3838 64.5547 36.2343 64.5547Z" fill="#0066B3"/>
<path d="M44.8313 84.5027H33.5398C32.6892 84.5027 32 85.1919 32 86.0424C32 86.893 32.6892 87.5822 33.5398 87.5822H44.8313C45.6819 87.5822 46.3711 86.893 46.3711 86.0424C46.3711 85.1919 45.6819 84.5027 44.8313 84.5027Z" fill="#0066B3"/>
</g>
<defs>
<filter id="filter0_dd" x="0.5" y="0.5" width="143.466" height="146.876" filterUnits="userSpaceOnUse" color-interpolation-filters="sRGB">
<feFlood flood-opacity="0" result="BackgroundImageFix"/>
<feColorMatrix in="SourceAlpha" type="matrix" values="0 0 0 0 0 0 0 0 0 0 0 0 0 0 0 0 0 0 127 0"/>
<feOffset dx="5" dy="5"/>
<feGaussianBlur stdDeviation="5"/>
<feColorMatrix type="matrix" values="0 0 0 0 0.6512 0 0 0 0 0.66896 0 0 0 0 0.74 0 0 0 0.5 0"/>
<feBlend mode="normal" in2="BackgroundImageFix" result="effect1_dropShadow"/>
<feColorMatrix in="SourceAlpha" type="matrix" values="0 0 0 0 0 0 0 0 0 0 0 0 0 0 0 0 0 0 127 0"/>
<feOffset dx="-5" dy="-5"/>
<feGaussianBlur stdDeviation="5"/>
<feColorMatrix type="matrix" values="0 0 0 0 0.979167 0 0 0 0 0.983333 0 0 0 0 1 0 0 0 1 0"/>
<feBlend mode="normal" in2="effect1_dropShadow" result="effect2_dropShadow"/>
<feBlend mode="normal" in="SourceGraphic" in2="effect2_dropShadow" result="shape"/>
</filter>
<clipPath id="clip0">
<rect width="71" height="71" fill="white" transform="translate(32 38)"/>
</clipPath>
</defs>
</svg>
