<svg width="23" height="22" viewBox="0 0 23 22" fill="none" xmlns="http://www.w3.org/2000/svg">
<rect x="0.286133" y="0.104492" width="22.7138" height="21.1995" rx="5" fill="#7AD06D"/>
<path d="M11.3099 3.81166C7.68133 3.98443 4.81788 7.00632 4.82889 10.639C4.83224 11.7454 5.09935 12.7897 5.57054 13.7125L4.84709 17.2242C4.80796 17.4141 4.97928 17.5805 5.16799 17.5358L8.60906 16.7205C9.49313 17.1609 10.4861 17.4153 11.537 17.4313C15.2458 17.4879 18.3382 14.5431 18.4538 10.8357C18.5777 6.86171 15.2978 3.62173 11.3099 3.81166ZM15.4158 14.3907C14.4081 15.3984 13.0682 15.9534 11.643 15.9534C10.8086 15.9534 10.0096 15.7662 9.26837 15.397L8.78916 15.1583L6.67943 15.6581L7.12352 13.5023L6.88742 13.04C6.50262 12.2864 6.3075 11.4715 6.3075 10.6179C6.3075 9.19271 6.86249 7.85286 7.87023 6.84508C8.86897 5.84634 10.2307 5.28232 11.6431 5.28232C13.0683 5.28235 14.4081 5.83733 15.4159 6.84505C16.4236 7.85279 16.9786 9.19264 16.9786 10.6178C16.9786 12.0303 16.4146 13.392 15.4158 14.3907Z" fill="white"/>
<path d="M14.9503 12.0954L13.6304 11.7164C13.4569 11.6666 13.27 11.7158 13.1436 11.8446L12.8208 12.1735C12.6847 12.3121 12.4782 12.3567 12.2981 12.2838C11.6737 12.0311 10.3603 10.8633 10.0248 10.2792C9.92807 10.1107 9.94407 9.90003 10.0629 9.74628L10.3447 9.38172C10.4551 9.23888 10.4784 9.04705 10.4054 8.88193L9.85006 7.62597C9.71705 7.32515 9.33263 7.23758 9.08149 7.44998C8.71311 7.76155 8.27603 8.23501 8.22289 8.75953C8.12921 9.68431 8.52582 10.8501 10.0256 12.2499C11.7582 13.867 13.1457 14.0807 14.0491 13.8618C14.5615 13.7377 14.971 13.2402 15.2294 12.8328C15.4056 12.555 15.2665 12.1861 14.9503 12.0954Z" fill="white"/>
</svg>
