<svg width="114" height="114" viewBox="0 0 114 114" fill="none" xmlns="http://www.w3.org/2000/svg">
<path d="M113.139 57.0001C113.139 26.0031 87.997 0.861084 57.0001 0.861084C26.0031 0.861084 0.861084 26.0031 0.861084 57.0001C0.861084 87.997 26.0031 113.139 57.0001 113.139C87.997 113.139 113.139 87.997 113.139 57.0001Z" fill="#0066B3" stroke="white" stroke-miterlimit="10"/>
<path d="M93.3353 52.0061H20.4924V84.8973H93.3353V52.0061Z" fill="#0066B3" stroke="white" stroke-miterlimit="10"/>
<path d="M93.3353 38.4019H20.4924V52.3505H93.3353V38.4019Z" fill="#0066B3" stroke="white" stroke-miterlimit="10"/>
<path d="M71.982 42.8792H42.1904V61.6495H71.982V42.8792Z" fill="#0066B3"/>
<path d="M65.2658 47.1843H48.7341V57.5167H65.2658V47.1843Z" fill="#0066B3" stroke="white" stroke-miterlimit="10"/>
<path d="M40.8127 35.6466V25.6587H73.1874V35.6466" fill="#0066B3"/>
<path d="M40.8127 35.6466V25.6587H73.1874V35.6466" stroke="white" stroke-miterlimit="10"/>
</svg>
