<svg width="114" height="114" viewBox="0 0 114 114" fill="none" xmlns="http://www.w3.org/2000/svg">
<g clip-path="url(#clip0)">
<path d="M108.824 78.587C120.748 49.9666 107.214 17.0985 78.5931 5.17408C49.9727 -6.75032 17.1046 6.78449 5.18016 35.4049C-6.74425 64.0254 6.79056 96.8934 35.411 108.818C64.0314 120.742 96.8995 107.207 108.824 78.587Z" fill="#0066B3" stroke="white" stroke-miterlimit="10"/>
<path d="M92.6464 45.1177H21.1812V83.5195H92.6464V45.1177Z" stroke="white" stroke-miterlimit="10"/>
<path d="M90.4077 47.3564H23.7642V81.2809H90.4077V47.3564Z" stroke="white" stroke-miterlimit="10"/>
<path d="M31.1692 49.9395V78.5256" stroke="white" stroke-miterlimit="10"/>
<path d="M41.5015 49.9395V78.5256" stroke="white" stroke-miterlimit="10"/>
<path d="M51.8337 49.9395V78.5256" stroke="white" stroke-miterlimit="10"/>
<path d="M62.1663 49.9395V78.5256" stroke="white" stroke-miterlimit="10"/>
<path d="M72.4985 49.9395V78.5256" stroke="white" stroke-miterlimit="10"/>
<path d="M82.8308 49.9395V78.5256" stroke="white" stroke-miterlimit="10"/>
<path d="M22.5588 39.4349L47.012 16.876" stroke="white" stroke-miterlimit="10"/>
<path d="M91.441 39.4349L66.9878 16.876" stroke="white" stroke-miterlimit="10"/>
<path d="M23.592 40.468H21.1812V43.5677H23.592V40.468Z" stroke="white" stroke-miterlimit="10"/>
<path d="M92.6465 40.468H90.2356V43.5677H92.6465V40.468Z" stroke="white" stroke-miterlimit="10"/>
</g>
<defs>
<clipPath id="clip0">
<rect width="114" height="114" fill="white"/>
</clipPath>
</defs>
</svg>
