<svg width="114" height="114" viewBox="0 0 114 114" fill="none" xmlns="http://www.w3.org/2000/svg">
<path d="M113.139 57.0001C113.139 26.0031 87.997 0.861084 57.0001 0.861084C26.0031 0.861084 0.861084 26.0031 0.861084 57.0001C0.861084 87.997 26.0031 113.139 57.0001 113.139C87.997 113.139 113.139 87.997 113.139 57.0001Z" fill="#0066B3" stroke="white" stroke-miterlimit="10"/>
<path d="M55.6223 19.287V31.1692" stroke="white" stroke-miterlimit="10"/>
<path d="M20.8369 32.0302L29.275 40.4682" stroke="white" stroke-miterlimit="10"/>
<path d="M39.435 29.7915L36.6797 23.0754" stroke="white" stroke-miterlimit="10"/>
<path d="M90.408 32.03L81.97 40.4681" stroke="white" stroke-miterlimit="10"/>
<path d="M71.8098 29.7915L74.3929 23.0754" stroke="white" stroke-miterlimit="10"/>
<path d="M16.1873 55.4502H24.9697V57.1723H18.2537V62.6828H24.4531V64.4049H18.2537V71.8097H16.1873V55.4502Z" fill="white"/>
<path d="M97.4684 64.2328H91.0968V70.0877H98.1572V71.8098H88.8582V55.2781H97.8128V57.0001H91.0968V62.1663H97.4684V64.2328Z" fill="white"/>
<path d="M54.0725 69.7432L80.4199 28.2417L59.2387 72.4985L54.0725 69.7432Z" stroke="white" stroke-miterlimit="10"/>
<path d="M62.5107 71.1209C62.5107 68.0212 60.0998 65.6104 57.0001 65.6104C54.0726 65.6104 51.4895 68.0212 51.4895 71.1209C51.4895 74.0484 53.9004 76.6315 57.0001 76.6315C59.9276 76.4593 62.5107 74.0484 62.5107 71.1209Z" fill="#0066B3" stroke="white" stroke-miterlimit="10"/>
</svg>
