<svg width="144" height="147" viewBox="0 0 144 147" fill="none" xmlns="http://www.w3.org/2000/svg">
<g filter="url(#filter0_dd)">
<path d="M128.139 73.774C128.139 41.8372 102.997 15.933 72.0001 15.933C41.0031 15.933 15.8611 41.8372 15.8611 73.774C15.8611 105.711 41.0031 131.615 72.0001 131.615C102.997 131.615 128.139 105.711 128.139 73.774Z" fill="white"/>
<path d="M93.1812 103.936C93.1812 101.63 95.0754 99.6781 97.3141 99.6781C99.5528 99.6781 101.447 101.63 101.447 103.936C101.447 106.243 99.5528 108.195 97.3141 108.195C95.0754 108.195 93.1812 106.243 93.1812 103.936Z" stroke="#0066B3" stroke-miterlimit="10"/>
<path d="M52.0239 103.936C52.0239 101.63 53.9182 99.6781 56.1569 99.6781C58.3955 99.6781 60.2898 101.63 60.2898 103.936C60.2898 106.243 58.3955 108.195 56.1569 108.195C53.746 108.195 52.0239 106.243 52.0239 103.936Z" stroke="#0066B3" stroke-miterlimit="10"/>
<path d="M37.3867 103.936C37.3867 101.63 39.281 99.6781 41.5197 99.6781C43.7583 99.6781 45.6526 101.63 45.6526 103.936C45.6526 106.243 43.7583 108.195 41.5197 108.195C39.281 108.195 37.3867 106.243 37.3867 103.936Z" stroke="#0066B3" stroke-miterlimit="10"/>
<path d="M90.5981 103.936H62.5286" stroke="#0066B3" stroke-miterlimit="10"/>
<path d="M49.9576 103.936H47.8911" stroke="#0066B3" stroke-miterlimit="10"/>
<path d="M104.03 103.936H107.819V92.0488L102.652 89.0326L93.1811 76.6128H79.749V98.9684" stroke="#0066B3" stroke-miterlimit="10"/>
<path d="M99.3806 97.1942V91.1619" stroke="#0066B3" stroke-miterlimit="10"/>
<path d="M102.48 89.2101H79.4048" stroke="#0066B3" stroke-miterlimit="10"/>
<path d="M68.3836 67.7415H30.8428V95.0651H76.3051V78.7419C75.2718 77.4999 71.9999 73.0642 68.3836 67.7415Z" stroke="#0066B3" stroke-miterlimit="10"/>
<path d="M58.3958 45.5632C58.3958 56.0314 76.6495 79.0968 76.6495 79.0968C76.6495 79.0968 94.9033 55.8539 94.9033 45.5632C94.9033 35.095 86.8097 26.756 76.6495 26.756C66.4894 26.756 58.3958 35.2725 58.3958 45.5632Z" stroke="#0066B3" stroke-miterlimit="10"/>
<path d="M76.6496 55.6765C81.988 55.6765 86.2931 51.2409 86.2931 45.7407C86.2931 40.2405 81.988 35.8048 76.6496 35.8048C71.3112 35.8048 67.0061 40.2405 67.0061 45.7407C67.0061 51.2409 71.3112 55.6765 76.6496 55.6765Z" stroke="#0066B3" stroke-miterlimit="10"/>
</g>
<defs>
<filter id="filter0_dd" x="0.861084" y="0.932983" width="142.278" height="145.682" filterUnits="userSpaceOnUse" color-interpolation-filters="sRGB">
<feFlood flood-opacity="0" result="BackgroundImageFix"/>
<feColorMatrix in="SourceAlpha" type="matrix" values="0 0 0 0 0 0 0 0 0 0 0 0 0 0 0 0 0 0 127 0"/>
<feOffset dx="5" dy="5"/>
<feGaussianBlur stdDeviation="5"/>
<feColorMatrix type="matrix" values="0 0 0 0 0.6512 0 0 0 0 0.66896 0 0 0 0 0.74 0 0 0 0.5 0"/>
<feBlend mode="normal" in2="BackgroundImageFix" result="effect1_dropShadow"/>
<feColorMatrix in="SourceAlpha" type="matrix" values="0 0 0 0 0 0 0 0 0 0 0 0 0 0 0 0 0 0 127 0"/>
<feOffset dx="-5" dy="-5"/>
<feGaussianBlur stdDeviation="5"/>
<feColorMatrix type="matrix" values="0 0 0 0 0.979167 0 0 0 0 0.983333 0 0 0 0 1 0 0 0 1 0"/>
<feBlend mode="normal" in2="effect1_dropShadow" result="effect2_dropShadow"/>
<feBlend mode="normal" in="SourceGraphic" in2="effect2_dropShadow" result="shape"/>
</filter>
</defs>
</svg>
