<svg width="143" height="146" viewBox="0 0 143 146" fill="none" xmlns="http://www.w3.org/2000/svg">
<g filter="url(#filter0_dd)">
<path d="M127.278 73.0758C127.278 41.1391 102.136 15.2349 71.139 15.2349C40.142 15.2349 15 41.1391 15 73.0758C15 105.013 40.142 130.917 71.139 130.917C102.136 130.917 127.278 105.013 127.278 73.0758Z" fill="white"/>
<path d="M75.6164 41.8486L77.5106 47.8811L77.6828 48.4134L78.1994 48.5908L82.5046 50.5425L83.1934 50.8974L83.71 50.5425L89.3928 47.7037L92.4925 50.8974L95.5922 54.091L92.8369 59.7687L92.6647 60.4784L92.8369 61.0107L94.559 65.6238L94.7312 66.3335L95.42 66.5109L101.275 68.4626V73.0757V77.6888L95.42 79.6405L95.0756 79.8179L94.9034 80.3502L93.0091 84.7858L92.6647 85.4955L93.0091 86.0278L95.7644 91.8829L92.6647 95.0766L89.565 98.2702L84.0544 95.4314L83.5378 95.0766L83.0212 95.254L78.7161 97.0283L77.855 97.5605L77.6828 98.2702L75.7886 104.303H71.3112H66.8339L64.9396 98.2702L64.5952 97.738L64.0786 97.5605L59.7735 95.6089L59.0846 95.254L58.568 95.6089L52.8852 98.4477L49.7855 95.254L46.6858 92.0603L49.4411 86.3827L49.7855 85.8504L49.6133 85.3181L47.8913 80.705L47.3747 79.9953L46.858 79.6405L41.0031 77.6888V73.0757V68.4626L46.858 66.5109L47.3747 66.3335L47.5469 65.8012L49.4411 61.3655L49.7855 60.6558L49.4411 60.1235L46.6858 54.2685L49.7855 51.0748L52.8852 47.8811L58.3958 50.7199L58.9124 51.0748L59.429 50.8974L63.9064 49.1231L64.5952 48.9457L64.7674 48.236L66.6617 42.026H71.139H75.6164V41.8486ZM76.6496 40.4292H71.139H65.6284L63.3898 47.5263L58.9124 49.3005L52.5408 45.9294L48.5801 49.8328L44.6194 53.7362L47.8913 60.4784L45.997 64.9141L39.281 67.2206V72.8983V78.5759L46.1692 80.8825L47.8913 85.3181L44.6194 91.8829L48.5801 95.9637L52.5408 99.8671L59.0846 96.496L63.3898 98.4477L65.6284 105.367H71.139H76.6496L78.8883 98.2702L83.1934 96.496L89.565 99.8671L93.5257 95.9637L97.3142 91.8829L94.0423 85.1407L95.9366 80.705L102.653 78.3985V72.7208V67.0432L95.7644 64.7366L94.0423 60.301L97.3142 53.7362L93.5257 49.8328L89.565 45.9294L83.0212 49.3005L78.7161 47.3488L76.6496 40.4292Z" fill="#0066B3"/>
<path d="M71.1389 57.6397C79.4048 57.6397 86.1208 64.5593 86.1208 73.0757C86.1208 81.5922 79.4048 88.5118 71.1389 88.5118C62.873 88.5118 56.157 81.5922 56.157 73.0757C56.157 64.5593 62.873 57.6397 71.1389 57.6397ZM71.1389 56.0428C62.012 56.0428 54.6072 63.6722 54.6072 73.0757C54.6072 82.4793 62.012 90.1086 71.1389 90.1086C80.2658 90.1086 87.6706 82.4793 87.6706 73.0757C87.6706 63.6722 80.2658 56.0428 71.1389 56.0428Z" fill="#0066B3"/>
<path d="M71.1389 61.8978C77.1661 61.8978 81.9879 66.8658 81.9879 73.0757C81.9879 79.2857 77.1661 84.2537 71.1389 84.2537C65.1118 84.2537 60.29 79.2857 60.29 73.0757C60.29 66.8658 65.1118 61.8978 71.1389 61.8978ZM71.1389 60.4784C64.4229 60.4784 58.9124 66.1561 58.9124 73.0757C58.9124 79.9954 64.4229 85.6731 71.1389 85.6731C77.855 85.6731 83.3655 79.9954 83.3655 73.0757C83.3655 66.1561 77.855 60.4784 71.1389 60.4784Z" fill="#0066B3"/>
</g>
<defs>
<filter id="filter0_dd" x="0" y="0.234863" width="142.278" height="145.682" filterUnits="userSpaceOnUse" color-interpolation-filters="sRGB">
<feFlood flood-opacity="0" result="BackgroundImageFix"/>
<feColorMatrix in="SourceAlpha" type="matrix" values="0 0 0 0 0 0 0 0 0 0 0 0 0 0 0 0 0 0 127 0"/>
<feOffset dx="5" dy="5"/>
<feGaussianBlur stdDeviation="5"/>
<feColorMatrix type="matrix" values="0 0 0 0 0.6512 0 0 0 0 0.66896 0 0 0 0 0.74 0 0 0 0.5 0"/>
<feBlend mode="normal" in2="BackgroundImageFix" result="effect1_dropShadow"/>
<feColorMatrix in="SourceAlpha" type="matrix" values="0 0 0 0 0 0 0 0 0 0 0 0 0 0 0 0 0 0 127 0"/>
<feOffset dx="-5" dy="-5"/>
<feGaussianBlur stdDeviation="5"/>
<feColorMatrix type="matrix" values="0 0 0 0 0.979167 0 0 0 0 0.983333 0 0 0 0 1 0 0 0 1 0"/>
<feBlend mode="normal" in2="effect1_dropShadow" result="effect2_dropShadow"/>
<feBlend mode="normal" in="SourceGraphic" in2="effect2_dropShadow" result="shape"/>
</filter>
</defs>
</svg>
