<svg width="144" height="147" viewBox="0 0 144 147" fill="none" xmlns="http://www.w3.org/2000/svg">
<g filter="url(#filter0_dd)">
<path d="M128.148 73.3235C128.148 41.3698 102.928 15.3855 71.9148 15.3855C40.9014 15.3855 15.6816 41.3698 15.6816 73.3235C15.6816 105.277 40.9014 131.261 71.9148 131.261C103.099 131.086 128.148 105.277 128.148 73.3235Z" fill="white"/>
<path d="M60.8384 70.1633C64.9281 65.9496 64.9281 58.9268 60.8384 54.5375" stroke="#0066B3" stroke-width="0.9419" stroke-miterlimit="10"/>
<path d="M68.1658 77.8884C76.5155 69.2855 76.5155 55.4155 68.1658 46.8126" stroke="#0066B3" stroke-width="0.9419" stroke-miterlimit="10"/>
<path d="M75.4932 85.6135C87.9326 72.7969 87.9326 51.9041 75.4932 38.9119" stroke="#0066B3" stroke-width="0.9419" stroke-miterlimit="10"/>
<path d="M80.2644 106.857C80.2644 104.926 78.7308 103.346 76.8563 103.346C74.9819 103.346 73.4482 104.926 73.4482 106.857C73.4482 108.789 74.9819 110.369 76.8563 110.369C78.7308 110.369 80.2644 108.789 80.2644 106.857Z" stroke="#0066B3" stroke-width="0.9419" stroke-miterlimit="10"/>
<path d="M49.0806 81.5753C49.0806 95.6209 59.9864 106.857 73.6187 106.857" stroke="#0066B3" stroke-width="0.9419" stroke-miterlimit="10"/>
<path d="M53.8518 44.7057C44.4797 44.7057 36.8115 52.6063 36.8115 62.2626C36.8115 71.919 44.4797 79.8196 53.8518 79.8196V44.7057Z" stroke="#0066B3" stroke-width="0.9419" stroke-miterlimit="10"/>
</g>
<defs>
<filter id="filter0_dd" x="0.681641" y="0.385498" width="142.466" height="145.876" filterUnits="userSpaceOnUse" color-interpolation-filters="sRGB">
<feFlood flood-opacity="0" result="BackgroundImageFix"/>
<feColorMatrix in="SourceAlpha" type="matrix" values="0 0 0 0 0 0 0 0 0 0 0 0 0 0 0 0 0 0 127 0"/>
<feOffset dx="5" dy="5"/>
<feGaussianBlur stdDeviation="5"/>
<feColorMatrix type="matrix" values="0 0 0 0 0.6512 0 0 0 0 0.66896 0 0 0 0 0.74 0 0 0 0.5 0"/>
<feBlend mode="normal" in2="BackgroundImageFix" result="effect1_dropShadow"/>
<feColorMatrix in="SourceAlpha" type="matrix" values="0 0 0 0 0 0 0 0 0 0 0 0 0 0 0 0 0 0 127 0"/>
<feOffset dx="-5" dy="-5"/>
<feGaussianBlur stdDeviation="5"/>
<feColorMatrix type="matrix" values="0 0 0 0 0.979167 0 0 0 0 0.983333 0 0 0 0 1 0 0 0 1 0"/>
<feBlend mode="normal" in2="effect1_dropShadow" result="effect2_dropShadow"/>
<feBlend mode="normal" in="SourceGraphic" in2="effect2_dropShadow" result="shape"/>
</filter>
</defs>
</svg>
