<svg width="144" height="148" viewBox="0 0 144 148" fill="none" xmlns="http://www.w3.org/2000/svg">
<g filter="url(#filter0_dd)">
<path d="M128.148 73.8921C128.148 41.9384 102.928 15.9541 71.9146 15.9541C40.9011 15.9541 15.6814 41.9384 15.6814 73.8921C15.6814 105.846 40.9011 131.83 71.9146 131.83C103.098 131.655 128.148 105.846 128.148 73.8921Z" fill="white" stroke="white" stroke-miterlimit="10"/>
<path d="M96.4527 105.67C96.4527 100.93 85.5469 97.0673 71.9146 97.0673C58.4527 97.0673 47.3765 100.93 47.3765 105.67C47.3765 110.411 58.2823 114.273 71.9146 114.273C85.5469 114.273 96.4527 110.411 96.4527 105.67Z" stroke="#0066B3" stroke-miterlimit="10"/>
<path d="M93.2149 84.9529H50.9548V103.915H93.2149V84.9529Z" fill="white"/>
<path d="M85.0356 103.739C85.0356 99.3497 79.2419 95.6627 72.085 95.6627C64.928 95.6627 59.1343 99.3497 59.1343 103.739" stroke="#0066B3" stroke-miterlimit="10"/>
<path d="M93.2149 79.1592H50.9548V98.1207H93.2149V79.1592Z" fill="white"/>
<path d="M112.3 46.5032H31.8696V97.2428H112.3V46.5032Z" stroke="#0066B3" stroke-miterlimit="10"/>
<path d="M72.0849 95.6636C73.1073 95.6636 74.1297 94.7855 74.1297 93.5563C74.1297 92.327 73.2777 91.449 72.0849 91.449C70.8921 91.449 70.04 92.327 70.04 93.5563C70.04 94.7855 70.8921 95.6636 72.0849 95.6636Z" stroke="#0066B3" stroke-miterlimit="10"/>
<path d="M34.937 90.22H109.063" stroke="#0066B3" stroke-miterlimit="10"/>
<path d="M58.623 25.2593C48.2284 25.2593 39.8787 33.8622 39.8787 44.5719C39.8787 55.2817 58.623 79.1592 58.623 79.1592C58.623 79.1592 77.3674 55.2817 77.3674 44.5719C77.3674 33.8622 69.0177 25.2593 58.623 25.2593Z" fill="white" stroke="#0066B3" stroke-miterlimit="10"/>
<path d="M58.6229 54.9305C53.17 54.9305 48.7395 50.3657 48.7395 44.7474C48.7395 39.1292 53.17 34.5643 58.6229 34.5643C64.0758 34.5643 68.5063 39.1292 68.5063 44.7474C68.5063 50.3657 64.0758 54.9305 58.6229 54.9305Z" fill="white" stroke="#0066B3" stroke-miterlimit="10"/>
<path d="M117.924 93.7314C117.924 82.4949 109.063 73.5409 98.3271 73.5409C87.5917 73.5409 78.7307 82.6705 78.7307 93.7314C78.7307 104.968 87.4213 113.922 98.3271 113.922C109.233 113.922 117.924 104.792 117.924 93.7314Z" fill="white" stroke="#0066B3" stroke-miterlimit="10"/>
<path d="M105.654 93.7314C105.654 89.5177 102.417 86.1819 98.3271 86.1819C94.2374 86.1819 90.9998 89.5177 90.9998 93.7314C90.9998 97.9452 94.2374 101.281 98.3271 101.281C102.417 101.281 105.654 97.7696 105.654 93.7314Z" fill="white" stroke="#0066B3" stroke-miterlimit="10"/>
<path d="M101.053 93.7314C101.053 92.1513 99.8607 90.9224 98.327 90.9224C96.7934 90.9224 95.6006 92.1513 95.6006 93.7314C95.6006 95.3115 96.7934 96.5404 98.327 96.5404C99.8607 96.5404 101.053 95.1359 101.053 93.7314Z" fill="white" stroke="#0066B3" stroke-miterlimit="10"/>
</g>
<defs>
<filter id="filter0_dd" x="0.181396" y="0.454102" width="143.466" height="146.876" filterUnits="userSpaceOnUse" color-interpolation-filters="sRGB">
<feFlood flood-opacity="0" result="BackgroundImageFix"/>
<feColorMatrix in="SourceAlpha" type="matrix" values="0 0 0 0 0 0 0 0 0 0 0 0 0 0 0 0 0 0 127 0"/>
<feOffset dx="5" dy="5"/>
<feGaussianBlur stdDeviation="5"/>
<feColorMatrix type="matrix" values="0 0 0 0 0.6512 0 0 0 0 0.66896 0 0 0 0 0.74 0 0 0 0.5 0"/>
<feBlend mode="normal" in2="BackgroundImageFix" result="effect1_dropShadow"/>
<feColorMatrix in="SourceAlpha" type="matrix" values="0 0 0 0 0 0 0 0 0 0 0 0 0 0 0 0 0 0 127 0"/>
<feOffset dx="-5" dy="-5"/>
<feGaussianBlur stdDeviation="5"/>
<feColorMatrix type="matrix" values="0 0 0 0 0.979167 0 0 0 0 0.983333 0 0 0 0 1 0 0 0 1 0"/>
<feBlend mode="normal" in2="effect1_dropShadow" result="effect2_dropShadow"/>
<feBlend mode="normal" in="SourceGraphic" in2="effect2_dropShadow" result="shape"/>
</filter>
</defs>
</svg>
